<mxfile host="app.diagrams.net" agent="Mozilla/5.0 (Windows NT 10.0; Win64; x64) AppleWebKit/537.36 (KHTML, like Gecko) Chrome/126.0.0.0 YaBrowser/24.7.0.0 Safari/537.36" version="24.8.1">
  <diagram name="DF" id="BleSmaJVXqo2yb7Co1eL">
    <mxGraphModel dx="4829" dy="2129" grid="1" gridSize="10" guides="1" tooltips="0" connect="1" arrows="1" fold="1" page="0" pageScale="1" pageWidth="827" pageHeight="1169" math="0" shadow="0">
      <root>
        <mxCell id="0" />
        <mxCell id="1" parent="0" />
        <mxCell id="JB9Il4g9EO8bp8syB02q-1" value="1111" style="rounded=0;whiteSpace=wrap;html=1;fillColor=#dae8fc;strokeColor=#6c8ebf;movable=0;resizable=0;rotatable=0;deletable=0;editable=0;locked=1;connectable=0;" parent="1" vertex="1">
          <mxGeometry x="50" y="-190" width="3400" height="2270" as="geometry" />
        </mxCell>
        <mxCell id="kQWFD41fJFxlXKQhT5sF-1" value="" style="group" parent="1" vertex="1" connectable="0">
          <mxGeometry x="2060" y="-200" width="155" height="49" as="geometry" />
        </mxCell>
        <mxCell id="cKbgiC5qh_IXnBO1eU4K-166" value="&lt;p style=&quot;margin: 0px 0px 0px 13px; text-indent: -13px; font-variant-numeric: normal; font-variant-east-asian: normal; font-variant-alternates: normal; font-kerning: auto; font-optical-sizing: auto; font-feature-settings: normal; font-variation-settings: normal; font-variant-position: normal; font-stretch: normal; font-size: 14px; line-height: normal; color: rgb(14, 14, 14); text-align: start;&quot; class=&quot;p1&quot;&gt;&lt;br&gt;&lt;/p&gt;" style="rounded=1;whiteSpace=wrap;html=1;fillColor=#FF77BF;strokeColor=none;arcSize=33;" parent="kQWFD41fJFxlXKQhT5sF-1" vertex="1">
          <mxGeometry y="13" width="155" height="34" as="geometry" />
        </mxCell>
        <mxCell id="cKbgiC5qh_IXnBO1eU4K-165" value="&lt;font style=&quot;font-size: 18px;&quot;&gt;&lt;i&gt;React/HTML/CSS&lt;/i&gt;&lt;/font&gt;" style="text;html=1;align=center;verticalAlign=middle;whiteSpace=wrap;rounded=1;shadow=0;fontSize=23;fontStyle=1" parent="kQWFD41fJFxlXKQhT5sF-1" vertex="1">
          <mxGeometry x="29" y="5.5" width="89" height="49" as="geometry" />
        </mxCell>
        <mxCell id="cKbgiC5qh_IXnBO1eU4K-98" value="" style="rounded=0;whiteSpace=wrap;html=1;fillColor=#e1d5e7;strokeColor=#9673a6;movable=0;resizable=0;rotatable=0;deletable=0;editable=0;locked=1;connectable=0;" parent="1" vertex="1">
          <mxGeometry x="50" y="-593" width="3400" height="400" as="geometry" />
        </mxCell>
        <mxCell id="ISwjRsLXD4yoOcMXPSiY-8" value="" style="group" parent="1" vertex="1" connectable="0">
          <mxGeometry x="2770" y="-580" width="535" height="220" as="geometry" />
        </mxCell>
        <mxCell id="Tz6aEU4ManMyac2rpAqn-102" value="" style="rounded=1;whiteSpace=wrap;html=1;arcSize=5;fillColor=#fff2cc;strokeColor=#d6b656;" parent="ISwjRsLXD4yoOcMXPSiY-8" vertex="1">
          <mxGeometry x="17" width="518" height="220" as="geometry" />
        </mxCell>
        <mxCell id="Tz6aEU4ManMyac2rpAqn-103" value="TurboPay" style="text;html=1;align=center;verticalAlign=middle;whiteSpace=wrap;rounded=1;shadow=0;fontSize=23;fontStyle=1" parent="ISwjRsLXD4yoOcMXPSiY-8" vertex="1">
          <mxGeometry width="177" height="49" as="geometry" />
        </mxCell>
        <mxCell id="ISwjRsLXD4yoOcMXPSiY-9" value="" style="group" parent="1" vertex="1" connectable="0">
          <mxGeometry x="2820" y="-520" width="518" height="224" as="geometry" />
        </mxCell>
        <mxCell id="Tz6aEU4ManMyac2rpAqn-100" value="" style="rounded=1;whiteSpace=wrap;html=1;arcSize=5;fillColor=#fff2cc;strokeColor=#d6b656;" parent="ISwjRsLXD4yoOcMXPSiY-9" vertex="1">
          <mxGeometry width="518" height="224" as="geometry" />
        </mxCell>
        <mxCell id="Tz6aEU4ManMyac2rpAqn-101" value="FastMoney" style="text;html=1;align=center;verticalAlign=middle;whiteSpace=wrap;rounded=1;shadow=0;fontSize=23;fontStyle=1" parent="ISwjRsLXD4yoOcMXPSiY-9" vertex="1">
          <mxGeometry x="2" width="141" height="49" as="geometry" />
        </mxCell>
        <mxCell id="ISwjRsLXD4yoOcMXPSiY-10" value="" style="group" parent="1" vertex="1" connectable="0">
          <mxGeometry x="2850" y="-460" width="514" height="244" as="geometry" />
        </mxCell>
        <mxCell id="Tz6aEU4ManMyac2rpAqn-104" value="" style="rounded=1;whiteSpace=wrap;html=1;arcSize=5;fillColor=#fff2cc;strokeColor=#d6b656;" parent="ISwjRsLXD4yoOcMXPSiY-10" vertex="1">
          <mxGeometry width="514" height="244" as="geometry" />
        </mxCell>
        <mxCell id="Tz6aEU4ManMyac2rpAqn-105" value="Яндекс.Pay" style="text;html=1;align=center;verticalAlign=middle;whiteSpace=wrap;rounded=1;shadow=0;fontSize=23;fontStyle=1" parent="ISwjRsLXD4yoOcMXPSiY-10" vertex="1">
          <mxGeometry width="150" height="49" as="geometry" />
        </mxCell>
        <mxCell id="jmPRH8THJJi4gKTDYtl7-163" value="" style="endArrow=classic;html=1;rounded=1;exitX=0.75;exitY=1;exitDx=0;exitDy=0;curved=0;entryX=0.75;entryY=1;entryDx=0;entryDy=0;" edge="1" parent="ISwjRsLXD4yoOcMXPSiY-10" source="Tz6aEU4ManMyac2rpAqn-104" target="Tz6aEU4ManMyac2rpAqn-104">
          <mxGeometry width="50" height="50" relative="1" as="geometry">
            <mxPoint x="386" y="244" as="sourcePoint" />
            <mxPoint x="380" y="570" as="targetPoint" />
            <Array as="points" />
          </mxGeometry>
        </mxCell>
        <mxCell id="cKbgiC5qh_IXnBO1eU4K-95" value="Администратор" style="shape=umlActor;verticalLabelPosition=bottom;verticalAlign=top;html=1;outlineConnect=0;rounded=1;" parent="1" vertex="1">
          <mxGeometry x="603" y="-430" width="65" height="141" as="geometry" />
        </mxCell>
        <mxCell id="cKbgiC5qh_IXnBO1eU4K-100" value="WAN" style="text;html=1;align=center;verticalAlign=middle;whiteSpace=wrap;rounded=1;shadow=0;fontSize=23;fontStyle=1" parent="1" vertex="1">
          <mxGeometry x="67" y="-569" width="85" height="49" as="geometry" />
        </mxCell>
        <mxCell id="cKbgiC5qh_IXnBO1eU4K-101" value="LAN" style="text;html=1;align=center;verticalAlign=middle;whiteSpace=wrap;rounded=1;shadow=0;fontSize=23;fontStyle=1" parent="1" vertex="1">
          <mxGeometry x="62.5" y="106" width="85" height="49" as="geometry" />
        </mxCell>
        <mxCell id="cKbgiC5qh_IXnBO1eU4K-121" value="&lt;font style=&quot;font-size: 12px;&quot;&gt;[Пользователь.ID]&lt;/font&gt;" style="text;html=1;align=center;verticalAlign=middle;whiteSpace=wrap;rounded=1;fontSize=13;labelBackgroundColor=default;fontColor=#007575;" parent="1" vertex="1">
          <mxGeometry x="3280" y="-81" width="160" height="30" as="geometry" />
        </mxCell>
        <mxCell id="cKbgiC5qh_IXnBO1eU4K-122" value="&lt;font style=&quot;font-size: 12px;&quot;&gt;[Заказ.ID]&lt;/font&gt;" style="text;html=1;align=center;verticalAlign=middle;whiteSpace=wrap;rounded=1;fontSize=13;labelBackgroundColor=default;fontColor=#007575;" parent="1" vertex="1">
          <mxGeometry x="3313.5" y="-43.5" width="160" height="30" as="geometry" />
        </mxCell>
        <mxCell id="cKbgiC5qh_IXnBO1eU4K-123" value="&lt;font style=&quot;font-size: 12px;&quot;&gt;[Заказ.Сумма]&lt;/font&gt;" style="text;html=1;align=center;verticalAlign=middle;whiteSpace=wrap;rounded=1;fontSize=13;labelBackgroundColor=default;fontColor=#007575;" parent="1" vertex="1">
          <mxGeometry x="3313.5" y="-60" width="160" height="30" as="geometry" />
        </mxCell>
        <mxCell id="cKbgiC5qh_IXnBO1eU4K-146" value="" style="strokeWidth=2;html=1;shape=mxgraph.flowchart.database;whiteSpace=wrap;rounded=1;movable=1;resizable=1;rotatable=1;deletable=1;editable=1;locked=0;connectable=1;" parent="1" vertex="1">
          <mxGeometry x="3130" y="-400" width="220" height="171" as="geometry" />
        </mxCell>
        <mxCell id="cKbgiC5qh_IXnBO1eU4K-152" value="&lt;p style=&quot;margin: 0px 0px 0px 13px; text-indent: -13px; font-variant-numeric: normal; font-variant-east-asian: normal; font-variant-alternates: normal; font-kerning: auto; font-optical-sizing: auto; font-feature-settings: normal; font-variation-settings: normal; font-variant-position: normal; font-stretch: normal; font-size: 14px; line-height: normal; text-align: start;&quot; class=&quot;p1&quot;&gt;&lt;span style=&quot;font-size: 12px; text-align: center; text-indent: 0px;&quot;&gt;[Транзакция.Статус]&lt;/span&gt;&lt;br&gt;&lt;/p&gt;" style="rounded=1;whiteSpace=wrap;html=1;fillColor=#B8B8B8;strokeColor=#FFD966;" parent="1" vertex="1">
          <mxGeometry x="3180" y="-310" width="119" height="21" as="geometry" />
        </mxCell>
        <mxCell id="cKbgiC5qh_IXnBO1eU4K-153" value="&lt;p style=&quot;margin: 0px 0px 0px 13px; text-indent: -13px; font-variant-numeric: normal; font-variant-east-asian: normal; font-variant-alternates: normal; font-kerning: auto; font-optical-sizing: auto; font-feature-settings: normal; font-variation-settings: normal; font-variant-position: normal; font-stretch: normal; font-size: 14px; line-height: normal; text-align: start;&quot; class=&quot;p1&quot;&gt;&lt;span style=&quot;font-size: 12px; text-align: center; text-indent: 0px;&quot;&gt;[Транзакция.ID]&lt;/span&gt;&lt;br&gt;&lt;/p&gt;" style="rounded=1;whiteSpace=wrap;html=1;fillColor=#B8B8B8;strokeColor=#FFD966;" parent="1" vertex="1">
          <mxGeometry x="3180" y="-280" width="119" height="21" as="geometry" />
        </mxCell>
        <mxCell id="Tz6aEU4ManMyac2rpAqn-4" value="Клиент" style="shape=umlActor;verticalLabelPosition=bottom;verticalAlign=top;html=1;outlineConnect=0;rounded=1;" parent="1" vertex="1">
          <mxGeometry x="2352.5" y="-451" width="65" height="141" as="geometry" />
        </mxCell>
        <mxCell id="Tz6aEU4ManMyac2rpAqn-10" value="" style="endArrow=classic;html=1;rounded=1;dashed=1;entryX=0.676;entryY=-0.082;entryDx=0;entryDy=0;entryPerimeter=0;fontSize=12;" parent="1" source="Tz6aEU4ManMyac2rpAqn-4" target="cKbgiC5qh_IXnBO1eU4K-164" edge="1">
          <mxGeometry width="50" height="50" relative="1" as="geometry">
            <mxPoint x="1985" y="-420" as="sourcePoint" />
            <mxPoint x="1986.2600000000002" y="-156.48099999999977" as="targetPoint" />
            <Array as="points" />
          </mxGeometry>
        </mxCell>
        <mxCell id="d3r_7VUgfL_-Ddzbqp2A-3" value="&lt;h1 style=&quot;margin-top: 0px; font-size: 15px;&quot;&gt;&lt;p class=&quot;p1&quot; style=&quot;margin: 0px 0px 0px 21px; text-indent: -21px; font-variant-numeric: normal; font-variant-east-asian: normal; font-variant-alternates: normal; font-kerning: auto; font-optical-sizing: auto; font-feature-settings: normal; font-variation-settings: normal; font-variant-position: normal; font-stretch: normal; font-size: 15px; line-height: normal; color: rgb(14, 14, 14);&quot;&gt;&lt;span class=&quot;s1&quot; style=&quot;font-weight: 400; font-variant-numeric: normal; font-variant-east-asian: normal; font-variant-alternates: normal; font-kerning: auto; font-optical-sizing: auto; font-feature-settings: normal; font-variation-settings: normal; font-variant-position: normal; font-stretch: normal; line-height: normal; font-family: &amp;quot;Times New Roman&amp;quot;; font-size: 15px;&quot;&gt;1.&amp;nbsp;&lt;/span&gt;&lt;b style=&quot;font-size: 15px;&quot;&gt;Инициировать платёж&lt;/b&gt;&lt;b style=&quot;font-weight: 400; font-size: 15px;&quot;&gt;&amp;nbsp;&lt;/b&gt;&lt;span style=&quot;background-color: initial; color: rgb(51, 51, 51); font-family: &amp;quot;YS Text&amp;quot;, -apple-system, BlinkMacSystemFont, Arial, Helvetica, sans-serif; font-size: 16px; font-weight: 400;&quot;&gt;—&lt;/span&gt;&lt;span style=&quot;background-color: initial; color: rgb(0, 0, 0); font-weight: normal;&quot;&gt;&amp;nbsp;т&lt;/span&gt;&lt;span style=&quot;background-color: initial; font-weight: 400;&quot;&gt;орговая площадка инициирует платёж, отправив необходимые данные (ID пользователя, ID заказа, сумма заказа) в платёжный сервис.&lt;/span&gt;&lt;/p&gt;&lt;p class=&quot;p1&quot; style=&quot;margin: 0px 0px 0px 21px; text-indent: -21px; font-variant-numeric: normal; font-variant-east-asian: normal; font-variant-alternates: normal; font-kerning: auto; font-optical-sizing: auto; font-feature-settings: normal; font-variation-settings: normal; font-variant-position: normal; font-weight: 400; font-stretch: normal; font-size: 15px; line-height: normal; color: rgb(14, 14, 14);&quot;&gt;&lt;span class=&quot;s1&quot; style=&quot;font-variant-numeric: normal; font-variant-east-asian: normal; font-variant-alternates: normal; font-kerning: auto; font-optical-sizing: auto; font-feature-settings: normal; font-variation-settings: normal; font-variant-position: normal; font-stretch: normal; line-height: normal; font-family: &amp;quot;Times New Roman&amp;quot;; font-size: 15px;&quot;&gt;2.&amp;nbsp;&lt;/span&gt;&lt;b style=&quot;font-size: 15px;&quot;&gt;Предоставить статус платежа&amp;nbsp;&lt;/b&gt;&lt;span style=&quot;background-color: initial; color: rgb(51, 51, 51); font-family: &amp;quot;YS Text&amp;quot;, -apple-system, BlinkMacSystemFont, Arial, Helvetica, sans-serif; font-size: 16px;&quot;&gt;— п&lt;/span&gt;&lt;span style=&quot;background-color: initial; color: rgb(0, 0, 0);&quot;&gt;латё&lt;/span&gt;&lt;span style=&quot;background-color: initial; color: rgb(0, 0, 0);&quot;&gt;жный сервис принял запрос на проведение оплаты,&lt;/span&gt;&lt;span style=&quot;background-color: initial;&quot; class=&quot;Apple-converted-space&quot;&gt;&amp;nbsp;&lt;/span&gt;&lt;span style=&quot;background-color: initial;&quot;&gt;подтвердил возможность проведения платежа со счёта клиента, назначил идентификатор для этой транзакции и установил статус.&lt;/span&gt;&lt;/p&gt;&lt;p class=&quot;p1&quot; style=&quot;margin: 0px 0px 0px 21px; text-indent: -21px; font-variant-numeric: normal; font-variant-east-asian: normal; font-variant-alternates: normal; font-kerning: auto; font-optical-sizing: auto; font-feature-settings: normal; font-variation-settings: normal; font-variant-position: normal; font-weight: 400; font-stretch: normal; font-size: 15px; line-height: normal; color: rgb(14, 14, 14);&quot;&gt;&lt;span class=&quot;s1&quot; style=&quot;font-variant-numeric: normal; font-variant-east-asian: normal; font-variant-alternates: normal; font-kerning: auto; font-optical-sizing: auto; font-feature-settings: normal; font-variation-settings: normal; font-variant-position: normal; font-stretch: normal; line-height: normal; font-family: &amp;quot;Times New Roman&amp;quot;; font-size: 15px;&quot;&gt;3.&amp;nbsp;&lt;/span&gt;&lt;b style=&quot;font-size: 15px;&quot;&gt;Подтверждение платежа&amp;nbsp;&lt;/b&gt;&lt;span style=&quot;background-color: initial; color: rgb(51, 51, 51); font-family: &amp;quot;YS Text&amp;quot;, -apple-system, BlinkMacSystemFont, Arial, Helvetica, sans-serif; font-size: 16px;&quot;&gt;— т&lt;/span&gt;&lt;span style=&quot;background-color: initial; color: rgb(0, 0, 0);&quot;&gt;орговая площадка уведомляет платёжный сервис о подтверждении операции, отправляя ID транзакции.&lt;/span&gt;&lt;/p&gt;&lt;p class=&quot;p1&quot; style=&quot;margin: 0px 0px 0px 21px; text-indent: -21px; font-variant-numeric: normal; font-variant-east-asian: normal; font-variant-alternates: normal; font-kerning: auto; font-optical-sizing: auto; font-feature-settings: normal; font-variation-settings: normal; font-variant-position: normal; font-weight: 400; font-stretch: normal; font-size: 15px; line-height: normal; color: rgb(14, 14, 14);&quot;&gt;&lt;span class=&quot;s1&quot; style=&quot;font-variant-numeric: normal; font-variant-east-asian: normal; font-variant-alternates: normal; font-kerning: auto; font-optical-sizing: auto; font-feature-settings: normal; font-variation-settings: normal; font-variant-position: normal; font-stretch: normal; line-height: normal; font-family: &amp;quot;Times New Roman&amp;quot;; font-size: 15px;&quot;&gt;4.&amp;nbsp;&lt;/span&gt;&lt;b style=&quot;font-size: 15px;&quot;&gt;Запросить статус платежа&lt;/b&gt;&amp;nbsp;&lt;span style=&quot;background-color: initial; color: rgb(51, 51, 51); font-family: &amp;quot;YS Text&amp;quot;, -apple-system, BlinkMacSystemFont, Arial, Helvetica, sans-serif; font-size: 16px;&quot;&gt;— т&lt;/span&gt;&lt;span style=&quot;background-color: initial; color: rgb(0, 0, 0);&quot;&gt;орговая площадка отправляет запрос в платёжный сервис для получения текущего статуса обработки транзакции по ID.&lt;/span&gt;&lt;/p&gt;&lt;p class=&quot;p1&quot; style=&quot;margin: 0px 0px 0px 21px; text-indent: -21px; font-variant-numeric: normal; font-variant-east-asian: normal; font-variant-alternates: normal; font-kerning: auto; font-optical-sizing: auto; font-feature-settings: normal; font-variation-settings: normal; font-variant-position: normal; font-weight: 400; font-stretch: normal; font-size: 15px; line-height: normal; color: rgb(14, 14, 14);&quot;&gt;&lt;span class=&quot;s1&quot; style=&quot;font-variant-numeric: normal; font-variant-east-asian: normal; font-variant-alternates: normal; font-kerning: auto; font-optical-sizing: auto; font-feature-settings: normal; font-variation-settings: normal; font-variant-position: normal; font-stretch: normal; line-height: normal; font-family: &amp;quot;Times New Roman&amp;quot;; font-size: 15px;&quot;&gt;5.&amp;nbsp;&lt;/span&gt;&lt;b style=&quot;font-size: 15px;&quot;&gt;Подтверждение отмены платежа (альтернативный сценарий)&amp;nbsp;&lt;/b&gt;&lt;span style=&quot;background-color: initial; color: rgb(51, 51, 51); font-family: &amp;quot;YS Text&amp;quot;, -apple-system, BlinkMacSystemFont, Arial, Helvetica, sans-serif; font-size: 16px;&quot;&gt;— п&lt;/span&gt;&lt;span style=&quot;background-color: initial; color: rgb(0, 0, 0);&quot;&gt;латёжный сервис уведомляет систему об успешной отмене платежа, предоставляя статус отменённой транзакции.&lt;/span&gt;&lt;/p&gt;&lt;/h1&gt;" style="text;html=1;whiteSpace=wrap;overflow=hidden;rounded=0;fontSize=15;" parent="1" vertex="1">
          <mxGeometry x="-921" y="-51" width="904" height="189" as="geometry" />
        </mxCell>
        <mxCell id="ro2GFgqDV0QlA6Vm-lQV-1" value="&lt;font style=&quot;font-size: 20px;&quot;&gt;Описание взаимодействий&lt;/font&gt;" style="text;html=1;align=center;verticalAlign=middle;whiteSpace=wrap;rounded=0;" parent="1" vertex="1">
          <mxGeometry x="-651" y="-90" width="310" height="30" as="geometry" />
        </mxCell>
        <mxCell id="ISwjRsLXD4yoOcMXPSiY-1" value="" style="group" parent="1" vertex="1" connectable="0">
          <mxGeometry x="2840" y="-410" width="260" height="39" as="geometry" />
        </mxCell>
        <mxCell id="cKbgiC5qh_IXnBO1eU4K-172" value="" style="rounded=1;whiteSpace=wrap;html=1;fillColor=#ffe6cc;strokeColor=#d79b00;" parent="ISwjRsLXD4yoOcMXPSiY-1" vertex="1">
          <mxGeometry x="10" width="250" height="39" as="geometry" />
        </mxCell>
        <mxCell id="cKbgiC5qh_IXnBO1eU4K-173" value="" style="sketch=0;outlineConnect=0;fontColor=#232F3E;gradientColor=none;fillColor=#232F3D;strokeColor=none;dashed=0;verticalLabelPosition=bottom;verticalAlign=top;align=center;html=1;fontSize=12;fontStyle=0;aspect=fixed;pointerEvents=1;shape=mxgraph.aws4.gear;rounded=1;" parent="ISwjRsLXD4yoOcMXPSiY-1" vertex="1">
          <mxGeometry x="230" y="11" width="17" height="17" as="geometry" />
        </mxCell>
        <mxCell id="cKbgiC5qh_IXnBO1eU4K-174" value="Инициировать платёж" style="text;html=1;align=center;verticalAlign=middle;whiteSpace=wrap;rounded=1;fontSize=13;" parent="ISwjRsLXD4yoOcMXPSiY-1" vertex="1">
          <mxGeometry y="4.5" width="170" height="30" as="geometry" />
        </mxCell>
        <mxCell id="ISwjRsLXD4yoOcMXPSiY-2" value="" style="group" parent="1" vertex="1" connectable="0">
          <mxGeometry x="2840" y="-360" width="260" height="39" as="geometry" />
        </mxCell>
        <mxCell id="cKbgiC5qh_IXnBO1eU4K-129" value="" style="rounded=1;whiteSpace=wrap;html=1;fillColor=#ffe6cc;strokeColor=#d79b00;" parent="ISwjRsLXD4yoOcMXPSiY-2" vertex="1">
          <mxGeometry x="10" width="250" height="39" as="geometry" />
        </mxCell>
        <mxCell id="cKbgiC5qh_IXnBO1eU4K-130" value="" style="sketch=0;outlineConnect=0;fontColor=#232F3E;gradientColor=none;fillColor=#232F3D;strokeColor=none;dashed=0;verticalLabelPosition=bottom;verticalAlign=top;align=center;html=1;fontSize=12;fontStyle=0;aspect=fixed;pointerEvents=1;shape=mxgraph.aws4.gear;rounded=1;" parent="ISwjRsLXD4yoOcMXPSiY-2" vertex="1">
          <mxGeometry x="230" y="11" width="17" height="17" as="geometry" />
        </mxCell>
        <mxCell id="cKbgiC5qh_IXnBO1eU4K-131" value="Подтвердить платёж" style="text;html=1;align=center;verticalAlign=middle;whiteSpace=wrap;rounded=1;fontSize=13;" parent="ISwjRsLXD4yoOcMXPSiY-2" vertex="1">
          <mxGeometry y="4.5" width="170" height="30" as="geometry" />
        </mxCell>
        <mxCell id="ISwjRsLXD4yoOcMXPSiY-3" value="" style="group" parent="1" vertex="1" connectable="0">
          <mxGeometry x="2850" y="-310" width="250" height="39" as="geometry" />
        </mxCell>
        <mxCell id="cKbgiC5qh_IXnBO1eU4K-132" value="" style="rounded=1;whiteSpace=wrap;html=1;fillColor=#ffe6cc;strokeColor=#d79b00;" parent="ISwjRsLXD4yoOcMXPSiY-3" vertex="1">
          <mxGeometry width="250" height="39" as="geometry" />
        </mxCell>
        <mxCell id="cKbgiC5qh_IXnBO1eU4K-133" value="" style="sketch=0;outlineConnect=0;fontColor=#232F3E;gradientColor=none;fillColor=#232F3D;strokeColor=none;dashed=0;verticalLabelPosition=bottom;verticalAlign=top;align=center;html=1;fontSize=12;fontStyle=0;aspect=fixed;pointerEvents=1;shape=mxgraph.aws4.gear;rounded=1;" parent="ISwjRsLXD4yoOcMXPSiY-3" vertex="1">
          <mxGeometry x="220" y="11" width="17" height="17" as="geometry" />
        </mxCell>
        <mxCell id="cKbgiC5qh_IXnBO1eU4K-134" value="Предоставить статус платежа" style="text;html=1;align=center;verticalAlign=middle;whiteSpace=wrap;rounded=1;fontSize=13;" parent="ISwjRsLXD4yoOcMXPSiY-3" vertex="1">
          <mxGeometry y="4.5" width="200" height="30" as="geometry" />
        </mxCell>
        <mxCell id="ISwjRsLXD4yoOcMXPSiY-4" value="" style="group" parent="1" vertex="1" connectable="0">
          <mxGeometry x="2840" y="-260" width="260" height="39" as="geometry" />
        </mxCell>
        <mxCell id="cKbgiC5qh_IXnBO1eU4K-135" value="" style="rounded=1;whiteSpace=wrap;html=1;fillColor=#ffe6cc;strokeColor=#d79b00;" parent="ISwjRsLXD4yoOcMXPSiY-4" vertex="1">
          <mxGeometry x="10" width="250" height="39" as="geometry" />
        </mxCell>
        <mxCell id="cKbgiC5qh_IXnBO1eU4K-136" value="" style="sketch=0;outlineConnect=0;fontColor=#232F3E;gradientColor=none;fillColor=#232F3D;strokeColor=none;dashed=0;verticalLabelPosition=bottom;verticalAlign=top;align=center;html=1;fontSize=12;fontStyle=0;aspect=fixed;pointerEvents=1;shape=mxgraph.aws4.gear;rounded=1;" parent="ISwjRsLXD4yoOcMXPSiY-4" vertex="1">
          <mxGeometry x="230" y="11" width="17" height="17" as="geometry" />
        </mxCell>
        <mxCell id="cKbgiC5qh_IXnBO1eU4K-137" value="Подтвердить отмену платежа" style="text;html=1;align=center;verticalAlign=middle;whiteSpace=wrap;rounded=1;fontSize=13;" parent="ISwjRsLXD4yoOcMXPSiY-4" vertex="1">
          <mxGeometry y="4.5" width="210" height="30" as="geometry" />
        </mxCell>
        <mxCell id="JB9Il4g9EO8bp8syB02q-6" value="" style="group" parent="1" vertex="1" connectable="0">
          <mxGeometry x="2060" y="-150" width="650" height="210" as="geometry" />
        </mxCell>
        <mxCell id="cKbgiC5qh_IXnBO1eU4K-163" value="" style="rounded=1;whiteSpace=wrap;html=1;arcSize=3;fillColor=#f5f5f5;strokeColor=#1C57CD;strokeWidth=3;align=center;verticalAlign=middle;fontFamily=Helvetica;fontSize=12;fontColor=#333333;resizable=1;" parent="JB9Il4g9EO8bp8syB02q-6" vertex="1">
          <mxGeometry width="650" height="210" as="geometry" />
        </mxCell>
        <mxCell id="cKbgiC5qh_IXnBO1eU4K-164" value="Портал электронной площадки" style="text;html=1;align=center;verticalAlign=middle;whiteSpace=wrap;rounded=1;shadow=0;fontSize=23;fontStyle=1" parent="JB9Il4g9EO8bp8syB02q-6" vertex="1">
          <mxGeometry x="67" y="2" width="380" height="49" as="geometry" />
        </mxCell>
        <mxCell id="BZBJQn5B5M7l6MrAMs_o-1" value="" style="group" parent="JB9Il4g9EO8bp8syB02q-6" vertex="1" connectable="0">
          <mxGeometry x="10" y="60" width="309" height="39" as="geometry" />
        </mxCell>
        <mxCell id="BZBJQn5B5M7l6MrAMs_o-53" value="" style="group" parent="BZBJQn5B5M7l6MrAMs_o-1" vertex="1" connectable="0">
          <mxGeometry width="309" height="39" as="geometry" />
        </mxCell>
        <mxCell id="cKbgiC5qh_IXnBO1eU4K-175" value="" style="rounded=1;whiteSpace=wrap;html=1;fillColor=#1C57CD;strokeColor=none;" parent="BZBJQn5B5M7l6MrAMs_o-53" vertex="1">
          <mxGeometry width="309" height="39" as="geometry" />
        </mxCell>
        <mxCell id="cKbgiC5qh_IXnBO1eU4K-176" value="" style="sketch=0;outlineConnect=0;fontColor=#FFFFFF;gradientColor=none;fillColor=#FFFFFF;strokeColor=none;dashed=0;verticalLabelPosition=bottom;verticalAlign=top;align=center;html=1;fontSize=12;fontStyle=0;aspect=fixed;pointerEvents=1;shape=mxgraph.aws4.gear;rounded=1;" parent="BZBJQn5B5M7l6MrAMs_o-53" vertex="1">
          <mxGeometry x="280" y="11" width="17" height="17" as="geometry" />
        </mxCell>
        <mxCell id="cKbgiC5qh_IXnBO1eU4K-177" value="Зарегистрироваться на площадке" style="text;html=1;align=center;verticalAlign=middle;whiteSpace=wrap;rounded=1;fontSize=13;fontColor=#FFFFFF;" parent="BZBJQn5B5M7l6MrAMs_o-53" vertex="1">
          <mxGeometry x="9" y="4.5" width="218" height="30" as="geometry" />
        </mxCell>
        <mxCell id="BZBJQn5B5M7l6MrAMs_o-2" value="" style="group" parent="JB9Il4g9EO8bp8syB02q-6" vertex="1" connectable="0">
          <mxGeometry x="10" y="110" width="309" height="39" as="geometry" />
        </mxCell>
        <mxCell id="BZBJQn5B5M7l6MrAMs_o-54" value="" style="group" parent="BZBJQn5B5M7l6MrAMs_o-2" vertex="1" connectable="0">
          <mxGeometry width="309" height="39" as="geometry" />
        </mxCell>
        <mxCell id="cKbgiC5qh_IXnBO1eU4K-178" value="" style="rounded=1;whiteSpace=wrap;html=1;fillColor=#1C57CD;strokeColor=none;" parent="BZBJQn5B5M7l6MrAMs_o-54" vertex="1">
          <mxGeometry width="309" height="39" as="geometry" />
        </mxCell>
        <mxCell id="cKbgiC5qh_IXnBO1eU4K-179" value="" style="sketch=0;outlineConnect=0;fontColor=#FFFFFF;gradientColor=none;fillColor=#FFFFFF;strokeColor=none;dashed=0;verticalLabelPosition=bottom;verticalAlign=top;align=center;html=1;fontSize=12;fontStyle=0;aspect=fixed;pointerEvents=1;shape=mxgraph.aws4.gear;rounded=1;" parent="BZBJQn5B5M7l6MrAMs_o-54" vertex="1">
          <mxGeometry x="280" y="11" width="17" height="17" as="geometry" />
        </mxCell>
        <mxCell id="cKbgiC5qh_IXnBO1eU4K-180" value="Редактировать профиль" style="text;html=1;align=center;verticalAlign=middle;whiteSpace=wrap;rounded=1;fontSize=13;fontColor=#FFFFFF;" parent="BZBJQn5B5M7l6MrAMs_o-54" vertex="1">
          <mxGeometry x="8" y="4.5" width="164" height="30" as="geometry" />
        </mxCell>
        <mxCell id="BZBJQn5B5M7l6MrAMs_o-3" value="" style="group" parent="JB9Il4g9EO8bp8syB02q-6" vertex="1" connectable="0">
          <mxGeometry x="10" y="160" width="309" height="39" as="geometry" />
        </mxCell>
        <mxCell id="BZBJQn5B5M7l6MrAMs_o-55" value="" style="group" parent="BZBJQn5B5M7l6MrAMs_o-3" vertex="1" connectable="0">
          <mxGeometry width="309" height="39" as="geometry" />
        </mxCell>
        <mxCell id="cKbgiC5qh_IXnBO1eU4K-181" value="" style="rounded=1;whiteSpace=wrap;html=1;fillColor=#1C57CD;strokeColor=none;" parent="BZBJQn5B5M7l6MrAMs_o-55" vertex="1">
          <mxGeometry width="309" height="39" as="geometry" />
        </mxCell>
        <mxCell id="cKbgiC5qh_IXnBO1eU4K-182" value="" style="sketch=0;outlineConnect=0;fontColor=#FFFFFF;gradientColor=none;fillColor=#FFFFFF;strokeColor=none;dashed=0;verticalLabelPosition=bottom;verticalAlign=top;align=center;html=1;fontSize=12;fontStyle=0;aspect=fixed;pointerEvents=1;shape=mxgraph.aws4.gear;rounded=1;" parent="BZBJQn5B5M7l6MrAMs_o-55" vertex="1">
          <mxGeometry x="280" y="11" width="17" height="17" as="geometry" />
        </mxCell>
        <mxCell id="cKbgiC5qh_IXnBO1eU4K-183" value="Разместить заказ" style="text;html=1;align=center;verticalAlign=middle;whiteSpace=wrap;rounded=1;fontSize=13;fontColor=#FFFFFF;" parent="BZBJQn5B5M7l6MrAMs_o-55" vertex="1">
          <mxGeometry x="14" y="3" width="117" height="30" as="geometry" />
        </mxCell>
        <mxCell id="BZBJQn5B5M7l6MrAMs_o-4" value="" style="group" parent="JB9Il4g9EO8bp8syB02q-6" vertex="1" connectable="0">
          <mxGeometry x="330" y="60" width="309" height="39" as="geometry" />
        </mxCell>
        <mxCell id="BZBJQn5B5M7l6MrAMs_o-56" value="" style="group" parent="BZBJQn5B5M7l6MrAMs_o-4" vertex="1" connectable="0">
          <mxGeometry width="309" height="39" as="geometry" />
        </mxCell>
        <mxCell id="cKbgiC5qh_IXnBO1eU4K-184" value="" style="rounded=1;whiteSpace=wrap;html=1;fillColor=#1C57CD;strokeColor=none;" parent="BZBJQn5B5M7l6MrAMs_o-56" vertex="1">
          <mxGeometry width="309" height="39" as="geometry" />
        </mxCell>
        <mxCell id="cKbgiC5qh_IXnBO1eU4K-185" value="" style="sketch=0;outlineConnect=0;fontColor=#FFFFFF;gradientColor=none;fillColor=#FFFFFF;strokeColor=none;dashed=0;verticalLabelPosition=bottom;verticalAlign=top;align=center;html=1;fontSize=12;fontStyle=0;aspect=fixed;pointerEvents=1;shape=mxgraph.aws4.gear;rounded=1;" parent="BZBJQn5B5M7l6MrAMs_o-56" vertex="1">
          <mxGeometry x="280" y="11" width="17" height="17" as="geometry" />
        </mxCell>
        <mxCell id="cKbgiC5qh_IXnBO1eU4K-186" value="Разместить услугу" style="text;html=1;align=center;verticalAlign=middle;whiteSpace=wrap;rounded=1;fontSize=13;fontColor=#FFFFFF;" parent="BZBJQn5B5M7l6MrAMs_o-56" vertex="1">
          <mxGeometry x="6" y="4.5" width="132" height="30" as="geometry" />
        </mxCell>
        <mxCell id="BZBJQn5B5M7l6MrAMs_o-5" value="" style="group" parent="JB9Il4g9EO8bp8syB02q-6" vertex="1" connectable="0">
          <mxGeometry x="330" y="110" width="309" height="39" as="geometry" />
        </mxCell>
        <mxCell id="BZBJQn5B5M7l6MrAMs_o-57" value="" style="group" parent="BZBJQn5B5M7l6MrAMs_o-5" vertex="1" connectable="0">
          <mxGeometry width="309" height="39" as="geometry" />
        </mxCell>
        <mxCell id="cKbgiC5qh_IXnBO1eU4K-187" value="" style="rounded=1;whiteSpace=wrap;html=1;fillColor=#1C57CD;strokeColor=none;" parent="BZBJQn5B5M7l6MrAMs_o-57" vertex="1">
          <mxGeometry width="309" height="39" as="geometry" />
        </mxCell>
        <mxCell id="cKbgiC5qh_IXnBO1eU4K-188" value="" style="sketch=0;outlineConnect=0;fontColor=#FFFFFF;gradientColor=none;fillColor=#FFFFFF;strokeColor=none;dashed=0;verticalLabelPosition=bottom;verticalAlign=top;align=center;html=1;fontSize=12;fontStyle=0;aspect=fixed;pointerEvents=1;shape=mxgraph.aws4.gear;rounded=1;" parent="BZBJQn5B5M7l6MrAMs_o-57" vertex="1">
          <mxGeometry x="280" y="11" width="17" height="17" as="geometry" />
        </mxCell>
        <mxCell id="cKbgiC5qh_IXnBO1eU4K-189" value="Создать аукцион" style="text;html=1;align=center;verticalAlign=middle;whiteSpace=wrap;rounded=1;fontSize=13;fontColor=#FFFFFF;" parent="BZBJQn5B5M7l6MrAMs_o-57" vertex="1">
          <mxGeometry x="10" y="4.5" width="110" height="30" as="geometry" />
        </mxCell>
        <mxCell id="BZBJQn5B5M7l6MrAMs_o-6" value="" style="group" parent="JB9Il4g9EO8bp8syB02q-6" vertex="1" connectable="0">
          <mxGeometry x="330" y="160" width="309" height="39" as="geometry" />
        </mxCell>
        <mxCell id="BZBJQn5B5M7l6MrAMs_o-58" value="" style="group" parent="BZBJQn5B5M7l6MrAMs_o-6" vertex="1" connectable="0">
          <mxGeometry width="309" height="39" as="geometry" />
        </mxCell>
        <mxCell id="cKbgiC5qh_IXnBO1eU4K-190" value="" style="rounded=1;whiteSpace=wrap;html=1;fillColor=#1C57CD;strokeColor=none;" parent="BZBJQn5B5M7l6MrAMs_o-58" vertex="1">
          <mxGeometry width="309" height="39" as="geometry" />
        </mxCell>
        <mxCell id="cKbgiC5qh_IXnBO1eU4K-191" value="" style="sketch=0;outlineConnect=0;fontColor=#FFFFFF;gradientColor=none;fillColor=#FFFFFF;strokeColor=none;dashed=0;verticalLabelPosition=bottom;verticalAlign=top;align=center;html=1;fontSize=12;fontStyle=0;aspect=fixed;pointerEvents=1;shape=mxgraph.aws4.gear;rounded=1;" parent="BZBJQn5B5M7l6MrAMs_o-58" vertex="1">
          <mxGeometry x="280" y="11" width="17" height="17" as="geometry" />
        </mxCell>
        <mxCell id="cKbgiC5qh_IXnBO1eU4K-192" value="Подать заявку на аукцион" style="text;html=1;align=center;verticalAlign=middle;whiteSpace=wrap;rounded=1;fontSize=13;fontColor=#FFFFFF;" parent="BZBJQn5B5M7l6MrAMs_o-58" vertex="1">
          <mxGeometry x="10" y="4.5" width="167" height="30" as="geometry" />
        </mxCell>
        <mxCell id="JB9Il4g9EO8bp8syB02q-55" value="" style="group" parent="1" vertex="1" connectable="0">
          <mxGeometry x="2770" y="112" width="914" height="469" as="geometry" />
        </mxCell>
        <mxCell id="jmPRH8THJJi4gKTDYtl7-102" value="" style="group" vertex="1" connectable="0" parent="JB9Il4g9EO8bp8syB02q-55">
          <mxGeometry x="-300" width="970" height="392" as="geometry" />
        </mxCell>
        <mxCell id="JB9Il4g9EO8bp8syB02q-43" value="" style="rounded=1;whiteSpace=wrap;html=1;arcSize=5;fillColor=#f5f5f5;strokeColor=#FF0000;strokeWidth=3;" parent="jmPRH8THJJi4gKTDYtl7-102" vertex="1">
          <mxGeometry width="970" height="280" as="geometry" />
        </mxCell>
        <mxCell id="JB9Il4g9EO8bp8syB02q-44" value="&lt;font style=&quot;font-size: 23px;&quot;&gt;Платежный сервис&lt;/font&gt;" style="text;html=1;align=center;verticalAlign=middle;whiteSpace=wrap;rounded=1;fontSize=13;" parent="jmPRH8THJJi4gKTDYtl7-102" vertex="1">
          <mxGeometry width="930" height="80" as="geometry" />
        </mxCell>
        <mxCell id="BZBJQn5B5M7l6MrAMs_o-46" value="" style="group" parent="jmPRH8THJJi4gKTDYtl7-102" vertex="1" connectable="0">
          <mxGeometry x="10" y="175" width="309" height="39" as="geometry" />
        </mxCell>
        <mxCell id="Tz6aEU4ManMyac2rpAqn-130" value="" style="rounded=1;whiteSpace=wrap;html=1;fillColor=#1C57CD;strokeColor=none;" parent="BZBJQn5B5M7l6MrAMs_o-46" vertex="1">
          <mxGeometry width="309" height="39" as="geometry" />
        </mxCell>
        <mxCell id="Tz6aEU4ManMyac2rpAqn-131" value="" style="sketch=0;outlineConnect=0;fontColor=#232F3E;gradientColor=none;fillColor=#FFFFFF;strokeColor=none;dashed=0;verticalLabelPosition=bottom;verticalAlign=top;align=center;html=1;fontSize=12;fontStyle=0;aspect=fixed;pointerEvents=1;shape=mxgraph.aws4.gear;rounded=1;" parent="BZBJQn5B5M7l6MrAMs_o-46" vertex="1">
          <mxGeometry x="280" y="11" width="17" height="17" as="geometry" />
        </mxCell>
        <mxCell id="Tz6aEU4ManMyac2rpAqn-132" value="Предоставить статус операции" style="text;html=1;align=center;verticalAlign=middle;whiteSpace=wrap;rounded=1;fontSize=13;fontColor=#FFFFFF;strokeColor=none;" parent="BZBJQn5B5M7l6MrAMs_o-46" vertex="1">
          <mxGeometry y="4.5" width="207" height="30" as="geometry" />
        </mxCell>
        <mxCell id="BZBJQn5B5M7l6MrAMs_o-47" value="" style="group" parent="jmPRH8THJJi4gKTDYtl7-102" vertex="1" connectable="0">
          <mxGeometry x="10" y="125" width="309" height="39" as="geometry" />
        </mxCell>
        <mxCell id="Tz6aEU4ManMyac2rpAqn-127" value="" style="rounded=1;whiteSpace=wrap;html=1;fillColor=#1C57CD;strokeColor=none;" parent="BZBJQn5B5M7l6MrAMs_o-47" vertex="1">
          <mxGeometry width="309" height="39" as="geometry" />
        </mxCell>
        <mxCell id="Tz6aEU4ManMyac2rpAqn-128" value="" style="sketch=0;outlineConnect=0;fontColor=#232F3E;gradientColor=none;fillColor=#FFFFFF;strokeColor=none;dashed=0;verticalLabelPosition=bottom;verticalAlign=top;align=center;html=1;fontSize=12;fontStyle=0;aspect=fixed;pointerEvents=1;shape=mxgraph.aws4.gear;rounded=1;" parent="BZBJQn5B5M7l6MrAMs_o-47" vertex="1">
          <mxGeometry x="280" y="11" width="17" height="17" as="geometry" />
        </mxCell>
        <mxCell id="Tz6aEU4ManMyac2rpAqn-129" value="Запросить статус операции" style="text;html=1;align=center;verticalAlign=middle;whiteSpace=wrap;rounded=1;fontSize=13;fontColor=#FFFFFF;strokeColor=none;" parent="BZBJQn5B5M7l6MrAMs_o-47" vertex="1">
          <mxGeometry x="3" y="6" width="179" height="30" as="geometry" />
        </mxCell>
        <mxCell id="BZBJQn5B5M7l6MrAMs_o-48" value="" style="group" parent="jmPRH8THJJi4gKTDYtl7-102" vertex="1" connectable="0">
          <mxGeometry x="10" y="79" width="309" height="39" as="geometry" />
        </mxCell>
        <mxCell id="Tz6aEU4ManMyac2rpAqn-124" value="" style="rounded=1;whiteSpace=wrap;html=1;fillColor=#1C57CD;strokeColor=none;" parent="BZBJQn5B5M7l6MrAMs_o-48" vertex="1">
          <mxGeometry width="309" height="39" as="geometry" />
        </mxCell>
        <mxCell id="Tz6aEU4ManMyac2rpAqn-125" value="" style="sketch=0;outlineConnect=0;fontColor=#232F3E;gradientColor=none;fillColor=#FFFFFF;strokeColor=none;dashed=0;verticalLabelPosition=bottom;verticalAlign=top;align=center;html=1;fontSize=12;fontStyle=0;aspect=fixed;pointerEvents=1;shape=mxgraph.aws4.gear;rounded=1;" parent="BZBJQn5B5M7l6MrAMs_o-48" vertex="1">
          <mxGeometry x="280" y="11" width="17" height="17" as="geometry" />
        </mxCell>
        <mxCell id="Tz6aEU4ManMyac2rpAqn-126" value="Инициировать отмену транзакции" style="text;html=1;align=center;verticalAlign=middle;whiteSpace=wrap;rounded=1;fontSize=13;fontColor=#FFFFFF;strokeColor=none;" parent="BZBJQn5B5M7l6MrAMs_o-48" vertex="1">
          <mxGeometry x="2" y="4" width="223" height="30" as="geometry" />
        </mxCell>
        <mxCell id="BZBJQn5B5M7l6MrAMs_o-49" value="" style="group" parent="jmPRH8THJJi4gKTDYtl7-102" vertex="1" connectable="0">
          <mxGeometry x="327" y="215" width="309" height="39" as="geometry" />
        </mxCell>
        <mxCell id="Tz6aEU4ManMyac2rpAqn-121" value="" style="rounded=1;whiteSpace=wrap;html=1;fillColor=#1C57CD;strokeColor=none;" parent="BZBJQn5B5M7l6MrAMs_o-49" vertex="1">
          <mxGeometry width="309" height="39" as="geometry" />
        </mxCell>
        <mxCell id="Tz6aEU4ManMyac2rpAqn-122" value="" style="sketch=0;outlineConnect=0;fontColor=#232F3E;gradientColor=none;fillColor=#FFFFFF;strokeColor=none;dashed=0;verticalLabelPosition=bottom;verticalAlign=top;align=center;html=1;fontSize=12;fontStyle=0;aspect=fixed;pointerEvents=1;shape=mxgraph.aws4.gear;rounded=1;" parent="BZBJQn5B5M7l6MrAMs_o-49" vertex="1">
          <mxGeometry x="280" y="11" width="17" height="17" as="geometry" />
        </mxCell>
        <mxCell id="Tz6aEU4ManMyac2rpAqn-123" value="Предоставить список и статус операций" style="text;html=1;align=center;verticalAlign=middle;whiteSpace=wrap;rounded=1;fontSize=13;fontColor=#FFFFFF;strokeColor=none;" parent="BZBJQn5B5M7l6MrAMs_o-49" vertex="1">
          <mxGeometry y="4.5" width="263" height="30" as="geometry" />
        </mxCell>
        <mxCell id="BZBJQn5B5M7l6MrAMs_o-50" value="" style="group" parent="jmPRH8THJJi4gKTDYtl7-102" vertex="1" connectable="0">
          <mxGeometry x="320" y="169" width="316" height="39" as="geometry" />
        </mxCell>
        <mxCell id="Tz6aEU4ManMyac2rpAqn-118" value="" style="rounded=1;whiteSpace=wrap;html=1;fillColor=#1C57CD;strokeColor=none;" parent="BZBJQn5B5M7l6MrAMs_o-50" vertex="1">
          <mxGeometry x="7" width="309" height="39" as="geometry" />
        </mxCell>
        <mxCell id="Tz6aEU4ManMyac2rpAqn-119" value="" style="sketch=0;outlineConnect=0;fontColor=#232F3E;gradientColor=none;fillColor=#FFFFFF;strokeColor=none;dashed=0;verticalLabelPosition=bottom;verticalAlign=top;align=center;html=1;fontSize=12;fontStyle=0;aspect=fixed;pointerEvents=1;shape=mxgraph.aws4.gear;rounded=1;" parent="BZBJQn5B5M7l6MrAMs_o-50" vertex="1">
          <mxGeometry x="287" y="11" width="17" height="17" as="geometry" />
        </mxCell>
        <mxCell id="Tz6aEU4ManMyac2rpAqn-120" value="Авторизация платёжной операции" style="text;html=1;align=center;verticalAlign=middle;whiteSpace=wrap;rounded=1;fontSize=13;fontColor=#FFFFFF;strokeColor=none;" parent="BZBJQn5B5M7l6MrAMs_o-50" vertex="1">
          <mxGeometry y="4.5" width="243" height="30" as="geometry" />
        </mxCell>
        <mxCell id="BZBJQn5B5M7l6MrAMs_o-51" value="" style="group" parent="jmPRH8THJJi4gKTDYtl7-102" vertex="1" connectable="0">
          <mxGeometry x="327" y="125" width="309" height="39" as="geometry" />
        </mxCell>
        <mxCell id="Tz6aEU4ManMyac2rpAqn-115" value="" style="rounded=1;whiteSpace=wrap;html=1;fillColor=#1C57CD;strokeColor=none;" parent="BZBJQn5B5M7l6MrAMs_o-51" vertex="1">
          <mxGeometry width="309" height="39" as="geometry" />
        </mxCell>
        <mxCell id="Tz6aEU4ManMyac2rpAqn-116" value="" style="sketch=0;outlineConnect=0;fontColor=#232F3E;gradientColor=none;fillColor=#FFFFFF;strokeColor=none;dashed=0;verticalLabelPosition=bottom;verticalAlign=top;align=center;html=1;fontSize=12;fontStyle=0;aspect=fixed;pointerEvents=1;shape=mxgraph.aws4.gear;rounded=1;" parent="BZBJQn5B5M7l6MrAMs_o-51" vertex="1">
          <mxGeometry x="280" y="11" width="17" height="17" as="geometry" />
        </mxCell>
        <mxCell id="Tz6aEU4ManMyac2rpAqn-117" value="Учёт платёжной операции" style="text;html=1;align=center;verticalAlign=middle;whiteSpace=wrap;rounded=1;fontSize=13;fontColor=#FFFFFF;strokeColor=none;" parent="BZBJQn5B5M7l6MrAMs_o-51" vertex="1">
          <mxGeometry x="5" y="4.5" width="173" height="30" as="geometry" />
        </mxCell>
        <mxCell id="BZBJQn5B5M7l6MrAMs_o-52" value="" style="group" parent="jmPRH8THJJi4gKTDYtl7-102" vertex="1" connectable="0">
          <mxGeometry x="330.5" y="80" width="309" height="39" as="geometry" />
        </mxCell>
        <mxCell id="Tz6aEU4ManMyac2rpAqn-109" value="" style="rounded=1;whiteSpace=wrap;html=1;fillColor=#1C57CD;strokeColor=none;" parent="BZBJQn5B5M7l6MrAMs_o-52" vertex="1">
          <mxGeometry x="-3.5" width="309" height="39" as="geometry" />
        </mxCell>
        <mxCell id="Tz6aEU4ManMyac2rpAqn-110" value="" style="sketch=0;outlineConnect=0;fontColor=#232F3E;gradientColor=none;fillColor=#FFFFFF;strokeColor=none;dashed=0;verticalLabelPosition=bottom;verticalAlign=top;align=center;html=1;fontSize=12;fontStyle=0;aspect=fixed;pointerEvents=1;shape=mxgraph.aws4.gear;rounded=1;" parent="BZBJQn5B5M7l6MrAMs_o-52" vertex="1">
          <mxGeometry x="280" y="11" width="17" height="17" as="geometry" />
        </mxCell>
        <mxCell id="Tz6aEU4ManMyac2rpAqn-111" value="Инициировать платёжную операцию" style="text;html=1;align=center;verticalAlign=middle;whiteSpace=wrap;rounded=1;fontSize=13;fontColor=#FFFFFF;strokeColor=none;" parent="BZBJQn5B5M7l6MrAMs_o-52" vertex="1">
          <mxGeometry y="4.5" width="243" height="30" as="geometry" />
        </mxCell>
        <mxCell id="BZBJQn5B5M7l6MrAMs_o-22" value="" style="group" parent="jmPRH8THJJi4gKTDYtl7-102" vertex="1" connectable="0">
          <mxGeometry x="10" y="227" width="309" height="39" as="geometry" />
        </mxCell>
        <mxCell id="Tz6aEU4ManMyac2rpAqn-106" value="" style="rounded=1;whiteSpace=wrap;html=1;fillColor=#1C57CD;strokeColor=none;" parent="BZBJQn5B5M7l6MrAMs_o-22" vertex="1">
          <mxGeometry width="309" height="39" as="geometry" />
        </mxCell>
        <mxCell id="Tz6aEU4ManMyac2rpAqn-107" value="" style="sketch=0;outlineConnect=0;fontColor=#232F3E;gradientColor=none;fillColor=#FFFFFF;strokeColor=none;dashed=0;verticalLabelPosition=bottom;verticalAlign=top;align=center;html=1;fontSize=12;fontStyle=0;aspect=fixed;pointerEvents=1;shape=mxgraph.aws4.gear;rounded=1;" parent="BZBJQn5B5M7l6MrAMs_o-22" vertex="1">
          <mxGeometry x="286" y="11" width="17" height="17" as="geometry" />
        </mxCell>
        <mxCell id="Tz6aEU4ManMyac2rpAqn-108" value="Определить способ оплаты" style="text;html=1;align=center;verticalAlign=middle;whiteSpace=wrap;rounded=1;fontSize=13;fontColor=#FFFFFF;strokeColor=none;" parent="BZBJQn5B5M7l6MrAMs_o-22" vertex="1">
          <mxGeometry x="7" y="4.5" width="173" height="30" as="geometry" />
        </mxCell>
        <mxCell id="JB9Il4g9EO8bp8syB02q-107" value="" style="group" parent="jmPRH8THJJi4gKTDYtl7-102" vertex="1" connectable="0">
          <mxGeometry x="654" y="58" width="299.5" height="312" as="geometry" />
        </mxCell>
        <mxCell id="JB9Il4g9EO8bp8syB02q-108" value="" style="strokeWidth=2;html=1;shape=mxgraph.flowchart.database;whiteSpace=wrap;rounded=1;movable=1;resizable=1;rotatable=1;deletable=1;editable=1;locked=0;connectable=1;" parent="JB9Il4g9EO8bp8syB02q-107" vertex="1">
          <mxGeometry width="260" height="130" as="geometry" />
        </mxCell>
        <mxCell id="JB9Il4g9EO8bp8syB02q-109" value="" style="group" parent="JB9Il4g9EO8bp8syB02q-107" vertex="1" connectable="0">
          <mxGeometry x="75.41949494949495" y="10.252050816696912" width="110.5808080808081" height="27.745916515426497" as="geometry" />
        </mxCell>
        <mxCell id="JB9Il4g9EO8bp8syB02q-110" value="&lt;p style=&quot;margin: 0px 0px 0px 13px; text-indent: -13px; font-variant-numeric: normal; font-variant-east-asian: normal; font-variant-alternates: normal; font-kerning: auto; font-optical-sizing: auto; font-feature-settings: normal; font-variation-settings: normal; font-variant-position: normal; font-stretch: normal; font-size: 14px; line-height: normal; color: rgb(14, 14, 14); text-align: start;&quot; class=&quot;p1&quot;&gt;&lt;br&gt;&lt;/p&gt;" style="rounded=1;whiteSpace=wrap;html=1;fillColor=#FF77BF;strokeColor=none;arcSize=50;" parent="JB9Il4g9EO8bp8syB02q-109" vertex="1">
          <mxGeometry y="5.096188747731397" width="110.5808080808081" height="18.686025408348456" as="geometry" />
        </mxCell>
        <mxCell id="cKbgiC5qh_IXnBO1eU4K-150" value="&lt;p style=&quot;margin: 0px 0px 0px 13px; text-indent: -13px; font-variant-numeric: normal; font-variant-east-asian: normal; font-variant-alternates: normal; font-kerning: auto; font-optical-sizing: auto; font-feature-settings: normal; font-variation-settings: normal; font-variant-position: normal; font-stretch: normal; line-height: normal; text-align: start;&quot; class=&quot;p1&quot;&gt;&lt;span style=&quot;text-align: center; text-indent: 0px;&quot;&gt;&lt;font style=&quot;font-size: 14px;&quot; face=&quot;Times New Roman&quot;&gt;[Транзакция.ID]&lt;/font&gt;&lt;/span&gt;&lt;br&gt;&lt;/p&gt;" style="rounded=1;whiteSpace=wrap;html=1;fillColor=#B8B8B8;strokeColor=#FFD966;" parent="JB9Il4g9EO8bp8syB02q-107" vertex="1">
          <mxGeometry x="20" y="54.5" width="104" height="21" as="geometry" />
        </mxCell>
        <mxCell id="cKbgiC5qh_IXnBO1eU4K-151" value="&lt;p style=&quot;margin: 0px 0px 0px 13px; text-indent: -13px; font-variant-numeric: normal; font-variant-east-asian: normal; font-variant-alternates: normal; font-kerning: auto; font-optical-sizing: auto; font-feature-settings: normal; font-variation-settings: normal; font-variant-position: normal; font-stretch: normal; line-height: normal; text-align: start;&quot; class=&quot;p1&quot;&gt;&lt;span style=&quot;text-align: center; text-indent: 0px;&quot;&gt;&lt;font style=&quot;font-size: 14px;&quot; face=&quot;Times New Roman&quot;&gt;[Транзакция.Статус]&lt;/font&gt;&lt;/span&gt;&lt;br&gt;&lt;/p&gt;" style="rounded=1;whiteSpace=wrap;html=1;fillColor=#B8B8B8;strokeColor=#FFD966;" parent="JB9Il4g9EO8bp8syB02q-107" vertex="1">
          <mxGeometry x="97.41" y="89" width="125" height="21" as="geometry" />
        </mxCell>
        <mxCell id="JB9Il4g9EO8bp8syB02q-111" value="&lt;font style=&quot;font-size: 18px;&quot;&gt;&lt;i&gt;PostgreSQL&lt;/i&gt;&lt;/font&gt;" style="text;html=1;align=center;verticalAlign=middle;whiteSpace=wrap;rounded=1;shadow=0;fontSize=23;fontStyle=1" parent="JB9Il4g9EO8bp8syB02q-107" vertex="1">
          <mxGeometry x="97.41151515151489" y="9.622050816697083" width="65.17676767676768" height="27.745916515426497" as="geometry" />
        </mxCell>
        <mxCell id="cKbgiC5qh_IXnBO1eU4K-10" value="" style="rounded=1;whiteSpace=wrap;html=1;fillColor=#1C57CD;strokeColor=none;container=0;" parent="JB9Il4g9EO8bp8syB02q-107" vertex="1">
          <mxGeometry x="-9.5" y="156" width="309" height="39" as="geometry" />
        </mxCell>
        <mxCell id="cKbgiC5qh_IXnBO1eU4K-12" value="Сгенерировать отчёт по продажам" style="text;html=1;align=center;verticalAlign=middle;whiteSpace=wrap;rounded=1;fontSize=13;fontColor=#FFFFFF;strokeColor=none;container=0;" parent="JB9Il4g9EO8bp8syB02q-107" vertex="1">
          <mxGeometry x="-3.5" y="160.5" width="226" height="30" as="geometry" />
        </mxCell>
        <mxCell id="cKbgiC5qh_IXnBO1eU4K-11" value="" style="sketch=0;outlineConnect=0;fontColor=#232F3E;gradientColor=none;fillColor=#FFFFFF;strokeColor=none;dashed=0;verticalLabelPosition=bottom;verticalAlign=top;align=center;html=1;fontSize=12;fontStyle=0;aspect=fixed;pointerEvents=1;shape=mxgraph.aws4.gear;rounded=1;container=0;" parent="JB9Il4g9EO8bp8syB02q-107" vertex="1">
          <mxGeometry x="267.5" y="167" width="17" height="17" as="geometry" />
        </mxCell>
        <mxCell id="JB9Il4g9EO8bp8syB02q-69" value="" style="group" parent="1" vertex="1" connectable="0">
          <mxGeometry x="1070" y="380" width="914" height="492.5" as="geometry" />
        </mxCell>
        <mxCell id="JB9Il4g9EO8bp8syB02q-70" value="" style="rounded=1;whiteSpace=wrap;html=1;arcSize=5;fillColor=#f5f5f5;strokeColor=#FF0000;strokeWidth=3;" parent="JB9Il4g9EO8bp8syB02q-69" vertex="1">
          <mxGeometry width="710" height="250" as="geometry" />
        </mxCell>
        <mxCell id="JB9Il4g9EO8bp8syB02q-71" value="&lt;font style=&quot;font-size: 23px;&quot;&gt;Сервис техподдержки&lt;/font&gt;" style="text;html=1;align=center;verticalAlign=middle;whiteSpace=wrap;rounded=1;fontSize=13;" parent="JB9Il4g9EO8bp8syB02q-69" vertex="1">
          <mxGeometry x="2.76" width="707.24" height="80" as="geometry" />
        </mxCell>
        <mxCell id="BZBJQn5B5M7l6MrAMs_o-42" value="" style="group" parent="JB9Il4g9EO8bp8syB02q-69" vertex="1" connectable="0">
          <mxGeometry x="20" y="80" width="309" height="39" as="geometry" />
        </mxCell>
        <mxCell id="cKbgiC5qh_IXnBO1eU4K-31" value="" style="rounded=1;whiteSpace=wrap;html=1;fillColor=#1C57CD;strokeColor=none;" parent="BZBJQn5B5M7l6MrAMs_o-42" vertex="1">
          <mxGeometry width="309" height="39" as="geometry" />
        </mxCell>
        <mxCell id="cKbgiC5qh_IXnBO1eU4K-32" value="" style="sketch=0;outlineConnect=0;fontColor=#232F3E;gradientColor=none;fillColor=#FFFFFF;strokeColor=none;dashed=0;verticalLabelPosition=bottom;verticalAlign=top;align=center;html=1;fontSize=12;fontStyle=0;aspect=fixed;pointerEvents=1;shape=mxgraph.aws4.gear;rounded=1;" parent="BZBJQn5B5M7l6MrAMs_o-42" vertex="1">
          <mxGeometry x="280" y="11" width="17" height="17" as="geometry" />
        </mxCell>
        <mxCell id="cKbgiC5qh_IXnBO1eU4K-33" value="Создать заявку на техподдержку" style="text;html=1;align=center;verticalAlign=middle;whiteSpace=wrap;rounded=1;fontSize=13;fontColor=#FFFFFF;strokeColor=none;" parent="BZBJQn5B5M7l6MrAMs_o-42" vertex="1">
          <mxGeometry y="4.5" width="230" height="30" as="geometry" />
        </mxCell>
        <mxCell id="BZBJQn5B5M7l6MrAMs_o-41" value="" style="group" parent="JB9Il4g9EO8bp8syB02q-69" vertex="1" connectable="0">
          <mxGeometry x="20" y="126" width="309" height="39" as="geometry" />
        </mxCell>
        <mxCell id="cKbgiC5qh_IXnBO1eU4K-34" value="" style="rounded=1;whiteSpace=wrap;html=1;fillColor=#1C57CD;strokeColor=none;" parent="BZBJQn5B5M7l6MrAMs_o-41" vertex="1">
          <mxGeometry width="309" height="39" as="geometry" />
        </mxCell>
        <mxCell id="cKbgiC5qh_IXnBO1eU4K-35" value="" style="sketch=0;outlineConnect=0;fontColor=#232F3E;gradientColor=none;fillColor=#FFFFFF;strokeColor=none;dashed=0;verticalLabelPosition=bottom;verticalAlign=top;align=center;html=1;fontSize=12;fontStyle=0;aspect=fixed;pointerEvents=1;shape=mxgraph.aws4.gear;rounded=1;" parent="BZBJQn5B5M7l6MrAMs_o-41" vertex="1">
          <mxGeometry x="280" y="11" width="17" height="17" as="geometry" />
        </mxCell>
        <mxCell id="cKbgiC5qh_IXnBO1eU4K-36" value="Регистрация заявки на техподдержку" style="text;html=1;align=center;verticalAlign=middle;whiteSpace=wrap;rounded=1;fontSize=13;fontColor=#FFFFFF;strokeColor=none;" parent="BZBJQn5B5M7l6MrAMs_o-41" vertex="1">
          <mxGeometry x="4" y="4.5" width="249" height="30" as="geometry" />
        </mxCell>
        <mxCell id="JB9Il4g9EO8bp8syB02q-117" value="" style="group" parent="JB9Il4g9EO8bp8syB02q-69" vertex="1" connectable="0">
          <mxGeometry x="390" y="80" width="290" height="312" as="geometry" />
        </mxCell>
        <mxCell id="JB9Il4g9EO8bp8syB02q-118" value="" style="strokeWidth=2;html=1;shape=mxgraph.flowchart.database;whiteSpace=wrap;rounded=1;movable=1;resizable=1;rotatable=1;deletable=1;editable=1;locked=0;connectable=1;" parent="JB9Il4g9EO8bp8syB02q-117" vertex="1">
          <mxGeometry width="290" height="160" as="geometry" />
        </mxCell>
        <mxCell id="jmPRH8THJJi4gKTDYtl7-33" value="&lt;p style=&quot;margin: 0px 0px 0px 13px; text-indent: -13px; font-variant-numeric: normal; font-variant-east-asian: normal; font-variant-alternates: normal; font-kerning: auto; font-optical-sizing: auto; font-feature-settings: normal; font-variation-settings: normal; font-variant-position: normal; font-stretch: normal; font-size: 14px; line-height: normal; color: rgb(14, 14, 14); text-align: start;&quot; class=&quot;p1&quot;&gt;&lt;font face=&quot;Times New Roman&quot;&gt;Заявка.ID&lt;/font&gt;&lt;/p&gt;" style="rounded=1;whiteSpace=wrap;html=1;fillColor=#b1ddf0;strokeColor=#FF0000;" vertex="1" parent="JB9Il4g9EO8bp8syB02q-117">
          <mxGeometry x="20" y="80" width="151" height="21" as="geometry" />
        </mxCell>
        <mxCell id="jmPRH8THJJi4gKTDYtl7-51" value="&lt;p style=&quot;margin: 0px 0px 0px 13px; text-indent: -13px; font-variant-numeric: normal; font-variant-east-asian: normal; font-variant-alternates: normal; font-kerning: auto; font-optical-sizing: auto; font-feature-settings: normal; font-variation-settings: normal; font-variant-position: normal; font-stretch: normal; font-size: 14px; line-height: normal; color: rgb(14, 14, 14); text-align: start;&quot; class=&quot;p1&quot;&gt;&lt;font face=&quot;Times New Roman&quot;&gt;Заявка&lt;/font&gt;&lt;/p&gt;" style="rounded=1;whiteSpace=wrap;html=1;fillColor=#b1ddf0;strokeColor=#FF0000;" vertex="1" parent="JB9Il4g9EO8bp8syB02q-117">
          <mxGeometry x="120" y="110" width="151" height="21" as="geometry" />
        </mxCell>
        <mxCell id="JB9Il4g9EO8bp8syB02q-119" value="" style="group" parent="JB9Il4g9EO8bp8syB02q-117" vertex="1" connectable="0">
          <mxGeometry x="89.70949494949491" y="10.002050816697192" width="110.5808080808081" height="27.745916515426497" as="geometry" />
        </mxCell>
        <mxCell id="JB9Il4g9EO8bp8syB02q-120" value="&lt;p style=&quot;margin: 0px 0px 0px 13px; text-indent: -13px; font-variant-numeric: normal; font-variant-east-asian: normal; font-variant-alternates: normal; font-kerning: auto; font-optical-sizing: auto; font-feature-settings: normal; font-variation-settings: normal; font-variant-position: normal; font-stretch: normal; font-size: 14px; line-height: normal; color: rgb(14, 14, 14); text-align: start;&quot; class=&quot;p1&quot;&gt;&lt;br&gt;&lt;/p&gt;" style="rounded=1;whiteSpace=wrap;html=1;fillColor=#FF77BF;strokeColor=none;arcSize=50;" parent="JB9Il4g9EO8bp8syB02q-119" vertex="1">
          <mxGeometry y="5.096188747731397" width="110.5808080808081" height="18.686025408348456" as="geometry" />
        </mxCell>
        <mxCell id="JB9Il4g9EO8bp8syB02q-121" value="&lt;font style=&quot;font-size: 18px;&quot;&gt;&lt;i&gt;PostgreSQL&lt;/i&gt;&lt;/font&gt;" style="text;html=1;align=center;verticalAlign=middle;whiteSpace=wrap;rounded=1;shadow=0;fontSize=23;fontStyle=1" parent="JB9Il4g9EO8bp8syB02q-119" vertex="1">
          <mxGeometry x="22.702020202020204" width="65.17676767676768" height="27.745916515426497" as="geometry" />
        </mxCell>
        <mxCell id="jmPRH8THJJi4gKTDYtl7-251" value="" style="edgeStyle=orthogonalEdgeStyle;rounded=0;orthogonalLoop=1;jettySize=auto;html=1;strokeColor=#FF0000;exitX=0.829;exitY=0.003;exitDx=0;exitDy=0;exitPerimeter=0;" edge="1" parent="JB9Il4g9EO8bp8syB02q-69" source="JB9Il4g9EO8bp8syB02q-9">
          <mxGeometry relative="1" as="geometry">
            <mxPoint x="-160" y="460" as="sourcePoint" />
            <mxPoint x="380" y="250" as="targetPoint" />
            <Array as="points">
              <mxPoint x="-162" y="370" />
              <mxPoint x="380" y="370" />
            </Array>
          </mxGeometry>
        </mxCell>
        <mxCell id="jmPRH8THJJi4gKTDYtl7-254" value="&lt;span style=&quot;font-size: 12px;&quot;&gt;Передача данных о пользователе&lt;/span&gt;" style="edgeLabel;html=1;align=center;verticalAlign=middle;resizable=0;points=[];rounded=1;" vertex="1" connectable="0" parent="JB9Il4g9EO8bp8syB02q-69">
          <mxGeometry x="-49.99666666666644" y="370" as="geometry">
            <mxPoint x="1" y="-4" as="offset" />
          </mxGeometry>
        </mxCell>
        <mxCell id="jmPRH8THJJi4gKTDYtl7-259" value="&lt;span style=&quot;font-size: 12px;&quot;&gt;Запрос данных о пользователе&lt;/span&gt;" style="edgeLabel;html=1;align=center;verticalAlign=middle;resizable=0;points=[];rounded=1;" vertex="1" connectable="0" parent="JB9Il4g9EO8bp8syB02q-69">
          <mxGeometry x="600.0033333333336" y="460" as="geometry" />
        </mxCell>
        <mxCell id="jmPRH8THJJi4gKTDYtl7-257" value="" style="group;labelBackgroundColor=default;" vertex="1" connectable="0" parent="JB9Il4g9EO8bp8syB02q-69">
          <mxGeometry x="530" y="452.5" width="160" height="40" as="geometry" />
        </mxCell>
        <mxCell id="jmPRH8THJJi4gKTDYtl7-258" value="&lt;font style=&quot;font-size: 12px;&quot;&gt;[Пользователь.ID]&lt;/font&gt;" style="text;html=1;align=center;verticalAlign=middle;whiteSpace=wrap;rounded=1;fontSize=13;labelBackgroundColor=default;fontColor=#B8B8B8;" vertex="1" parent="jmPRH8THJJi4gKTDYtl7-257">
          <mxGeometry y="13" width="160" height="30" as="geometry" />
        </mxCell>
        <mxCell id="JB9Il4g9EO8bp8syB02q-169" value="" style="group" parent="1" vertex="1" connectable="0">
          <mxGeometry x="62.5" y="-200" width="650" height="254.5" as="geometry" />
        </mxCell>
        <mxCell id="JB9Il4g9EO8bp8syB02q-170" value="&lt;p style=&quot;margin: 0px 0px 0px 13px; text-indent: -13px; font-variant-numeric: normal; font-variant-east-asian: normal; font-variant-alternates: normal; font-kerning: auto; font-optical-sizing: auto; font-feature-settings: normal; font-variation-settings: normal; font-variant-position: normal; font-stretch: normal; font-size: 14px; line-height: normal; color: rgb(14, 14, 14); text-align: start;&quot; class=&quot;p1&quot;&gt;&lt;br&gt;&lt;/p&gt;" style="rounded=1;whiteSpace=wrap;html=1;fillColor=#FF77BF;strokeColor=none;arcSize=33;" parent="JB9Il4g9EO8bp8syB02q-169" vertex="1">
          <mxGeometry y="7.5" width="155" height="34" as="geometry" />
        </mxCell>
        <mxCell id="JB9Il4g9EO8bp8syB02q-171" value="" style="group" parent="JB9Il4g9EO8bp8syB02q-169" vertex="1" connectable="0">
          <mxGeometry y="44.5" width="650" height="210" as="geometry" />
        </mxCell>
        <mxCell id="JB9Il4g9EO8bp8syB02q-172" value="" style="rounded=1;whiteSpace=wrap;html=1;arcSize=3;fillColor=#f5f5f5;strokeColor=#FF0000;strokeWidth=3;align=center;verticalAlign=middle;fontFamily=Helvetica;fontSize=12;fontColor=#333333;resizable=1;" parent="JB9Il4g9EO8bp8syB02q-171" vertex="1">
          <mxGeometry width="650" height="210" as="geometry" />
        </mxCell>
        <mxCell id="JB9Il4g9EO8bp8syB02q-173" value="Административная панель электронной площадки" style="text;html=1;align=center;verticalAlign=middle;whiteSpace=wrap;rounded=1;shadow=0;fontSize=23;fontStyle=1" parent="JB9Il4g9EO8bp8syB02q-171" vertex="1">
          <mxGeometry y="2" width="650" height="49" as="geometry" />
        </mxCell>
        <mxCell id="JB9Il4g9EO8bp8syB02q-174" value="" style="group" parent="JB9Il4g9EO8bp8syB02q-171" vertex="1" connectable="0">
          <mxGeometry x="10" y="60" width="309" height="39" as="geometry" />
        </mxCell>
        <mxCell id="JB9Il4g9EO8bp8syB02q-175" value="" style="group" parent="JB9Il4g9EO8bp8syB02q-174" vertex="1" connectable="0">
          <mxGeometry width="309" height="39" as="geometry" />
        </mxCell>
        <mxCell id="JB9Il4g9EO8bp8syB02q-176" value="" style="rounded=1;whiteSpace=wrap;html=1;fillColor=#1C57CD;strokeColor=none;" parent="JB9Il4g9EO8bp8syB02q-175" vertex="1">
          <mxGeometry width="309" height="39" as="geometry" />
        </mxCell>
        <mxCell id="JB9Il4g9EO8bp8syB02q-177" value="" style="sketch=0;outlineConnect=0;fontColor=#FFFFFF;gradientColor=none;fillColor=#FFFFFF;strokeColor=none;dashed=0;verticalLabelPosition=bottom;verticalAlign=top;align=center;html=1;fontSize=12;fontStyle=0;aspect=fixed;pointerEvents=1;shape=mxgraph.aws4.gear;rounded=1;" parent="JB9Il4g9EO8bp8syB02q-175" vertex="1">
          <mxGeometry x="280" y="11" width="17" height="17" as="geometry" />
        </mxCell>
        <mxCell id="JB9Il4g9EO8bp8syB02q-178" value="Редактировать заявку на техподдержку" style="text;html=1;align=center;verticalAlign=middle;whiteSpace=wrap;rounded=1;fontSize=13;fontColor=#FFFFFF;" parent="JB9Il4g9EO8bp8syB02q-175" vertex="1">
          <mxGeometry x="9" y="4.5" width="251" height="30" as="geometry" />
        </mxCell>
        <mxCell id="JB9Il4g9EO8bp8syB02q-179" value="" style="group" parent="JB9Il4g9EO8bp8syB02q-171" vertex="1" connectable="0">
          <mxGeometry x="10" y="110" width="309" height="39" as="geometry" />
        </mxCell>
        <mxCell id="JB9Il4g9EO8bp8syB02q-180" value="" style="group" parent="JB9Il4g9EO8bp8syB02q-179" vertex="1" connectable="0">
          <mxGeometry width="309" height="39" as="geometry" />
        </mxCell>
        <mxCell id="JB9Il4g9EO8bp8syB02q-181" value="" style="rounded=1;whiteSpace=wrap;html=1;fillColor=#1C57CD;strokeColor=none;" parent="JB9Il4g9EO8bp8syB02q-180" vertex="1">
          <mxGeometry width="309" height="39" as="geometry" />
        </mxCell>
        <mxCell id="JB9Il4g9EO8bp8syB02q-182" value="" style="sketch=0;outlineConnect=0;fontColor=#FFFFFF;gradientColor=none;fillColor=#FFFFFF;strokeColor=none;dashed=0;verticalLabelPosition=bottom;verticalAlign=top;align=center;html=1;fontSize=12;fontStyle=0;aspect=fixed;pointerEvents=1;shape=mxgraph.aws4.gear;rounded=1;" parent="JB9Il4g9EO8bp8syB02q-180" vertex="1">
          <mxGeometry x="280" y="11" width="17" height="17" as="geometry" />
        </mxCell>
        <mxCell id="JB9Il4g9EO8bp8syB02q-183" value="Редактировать аукцион" style="text;html=1;align=center;verticalAlign=middle;whiteSpace=wrap;rounded=1;fontSize=13;fontColor=#FFFFFF;" parent="JB9Il4g9EO8bp8syB02q-180" vertex="1">
          <mxGeometry x="8" y="4.5" width="164" height="30" as="geometry" />
        </mxCell>
        <mxCell id="JB9Il4g9EO8bp8syB02q-184" value="" style="group" parent="JB9Il4g9EO8bp8syB02q-171" vertex="1" connectable="0">
          <mxGeometry x="10" y="160" width="309" height="39" as="geometry" />
        </mxCell>
        <mxCell id="JB9Il4g9EO8bp8syB02q-185" value="" style="group" parent="JB9Il4g9EO8bp8syB02q-184" vertex="1" connectable="0">
          <mxGeometry width="309" height="39" as="geometry" />
        </mxCell>
        <mxCell id="JB9Il4g9EO8bp8syB02q-186" value="" style="rounded=1;whiteSpace=wrap;html=1;fillColor=#1C57CD;strokeColor=none;" parent="JB9Il4g9EO8bp8syB02q-185" vertex="1">
          <mxGeometry width="309" height="39" as="geometry" />
        </mxCell>
        <mxCell id="JB9Il4g9EO8bp8syB02q-187" value="" style="sketch=0;outlineConnect=0;fontColor=#FFFFFF;gradientColor=none;fillColor=#FFFFFF;strokeColor=none;dashed=0;verticalLabelPosition=bottom;verticalAlign=top;align=center;html=1;fontSize=12;fontStyle=0;aspect=fixed;pointerEvents=1;shape=mxgraph.aws4.gear;rounded=1;" parent="JB9Il4g9EO8bp8syB02q-185" vertex="1">
          <mxGeometry x="280" y="11" width="17" height="17" as="geometry" />
        </mxCell>
        <mxCell id="JB9Il4g9EO8bp8syB02q-188" value="Валидировать заявку" style="text;html=1;align=center;verticalAlign=middle;whiteSpace=wrap;rounded=1;fontSize=13;fontColor=#FFFFFF;" parent="JB9Il4g9EO8bp8syB02q-185" vertex="1">
          <mxGeometry x="14" y="3" width="146" height="30" as="geometry" />
        </mxCell>
        <mxCell id="JB9Il4g9EO8bp8syB02q-204" value="&lt;font style=&quot;font-size: 18px;&quot;&gt;&lt;i&gt;React/HTML/CSS&lt;/i&gt;&lt;/font&gt;" style="text;html=1;align=center;verticalAlign=middle;whiteSpace=wrap;rounded=1;shadow=0;fontSize=23;fontStyle=1" parent="JB9Il4g9EO8bp8syB02q-169" vertex="1">
          <mxGeometry x="33" width="89" height="49" as="geometry" />
        </mxCell>
        <mxCell id="jmPRH8THJJi4gKTDYtl7-6" value="" style="group" vertex="1" connectable="0" parent="1">
          <mxGeometry x="355" y="-416.5" width="65" height="141" as="geometry" />
        </mxCell>
        <mxCell id="JB9Il4g9EO8bp8syB02q-132" value="" style="endArrow=classic;html=1;rounded=1;dashed=1;" parent="jmPRH8THJJi4gKTDYtl7-6" edge="1">
          <mxGeometry width="50" height="50" relative="1" as="geometry">
            <mxPoint x="48" y="156.5" as="sourcePoint" />
            <mxPoint x="45" y="266.5" as="targetPoint" />
            <Array as="points" />
          </mxGeometry>
        </mxCell>
        <mxCell id="cKbgiC5qh_IXnBO1eU4K-157" value="Специалист поддержки" style="shape=umlActor;verticalLabelPosition=bottom;verticalAlign=top;html=1;outlineConnect=0;rounded=1;" parent="1" vertex="1">
          <mxGeometry x="372.5" y="-440" width="65" height="141" as="geometry" />
        </mxCell>
        <mxCell id="jmPRH8THJJi4gKTDYtl7-53" value="" style="group" vertex="1" connectable="0" parent="1">
          <mxGeometry x="468" y="1490" width="912" height="600" as="geometry" />
        </mxCell>
        <mxCell id="JB9Il4g9EO8bp8syB02q-54" value="" style="group" parent="jmPRH8THJJi4gKTDYtl7-53" vertex="1" connectable="0">
          <mxGeometry width="912" height="600" as="geometry" />
        </mxCell>
        <mxCell id="jmPRH8THJJi4gKTDYtl7-52" value="" style="group" vertex="1" connectable="0" parent="JB9Il4g9EO8bp8syB02q-54">
          <mxGeometry x="-320" width="990" height="360" as="geometry" />
        </mxCell>
        <mxCell id="JB9Il4g9EO8bp8syB02q-46" value="" style="rounded=1;whiteSpace=wrap;html=1;arcSize=5;fillColor=#f5f5f5;strokeColor=#FF0000;strokeWidth=3;" parent="jmPRH8THJJi4gKTDYtl7-52" vertex="1">
          <mxGeometry width="990" height="360" as="geometry" />
        </mxCell>
        <mxCell id="JB9Il4g9EO8bp8syB02q-47" value="&lt;font style=&quot;font-size: 23px;&quot;&gt;Сервис управления аукционами&lt;/font&gt;" style="text;html=1;align=center;verticalAlign=middle;whiteSpace=wrap;rounded=1;fontSize=13;" parent="jmPRH8THJJi4gKTDYtl7-52" vertex="1">
          <mxGeometry width="990" height="60" as="geometry" />
        </mxCell>
        <mxCell id="BZBJQn5B5M7l6MrAMs_o-27" value="" style="group" parent="jmPRH8THJJi4gKTDYtl7-52" vertex="1" connectable="0">
          <mxGeometry x="334.5" y="70" width="309" height="39" as="geometry" />
        </mxCell>
        <mxCell id="Tz6aEU4ManMyac2rpAqn-135" value="" style="rounded=1;whiteSpace=wrap;html=1;fillColor=#1C57CD;strokeColor=none;" parent="BZBJQn5B5M7l6MrAMs_o-27" vertex="1">
          <mxGeometry width="309" height="39" as="geometry" />
        </mxCell>
        <mxCell id="Tz6aEU4ManMyac2rpAqn-136" value="" style="sketch=0;outlineConnect=0;fontColor=#232F3E;gradientColor=none;fillColor=#FFFFFF;strokeColor=none;dashed=0;verticalLabelPosition=bottom;verticalAlign=top;align=center;html=1;fontSize=12;fontStyle=0;aspect=fixed;pointerEvents=1;shape=mxgraph.aws4.gear;rounded=1;" parent="BZBJQn5B5M7l6MrAMs_o-27" vertex="1">
          <mxGeometry x="286" y="11" width="17" height="17" as="geometry" />
        </mxCell>
        <mxCell id="Tz6aEU4ManMyac2rpAqn-137" value="Создать аукцион" style="text;html=1;align=center;verticalAlign=middle;whiteSpace=wrap;rounded=1;fontSize=13;fontColor=#FFFFFF;strokeColor=none;" parent="BZBJQn5B5M7l6MrAMs_o-27" vertex="1">
          <mxGeometry x="3" y="4.5" width="113" height="30" as="geometry" />
        </mxCell>
        <mxCell id="BZBJQn5B5M7l6MrAMs_o-28" value="" style="group" parent="jmPRH8THJJi4gKTDYtl7-52" vertex="1" connectable="0">
          <mxGeometry x="334.5" y="117.5" width="309" height="39" as="geometry" />
        </mxCell>
        <mxCell id="Tz6aEU4ManMyac2rpAqn-140" value="" style="rounded=1;whiteSpace=wrap;html=1;fillColor=#1C57CD;strokeColor=none;" parent="BZBJQn5B5M7l6MrAMs_o-28" vertex="1">
          <mxGeometry width="309" height="39" as="geometry" />
        </mxCell>
        <mxCell id="Tz6aEU4ManMyac2rpAqn-141" value="" style="sketch=0;outlineConnect=0;fontColor=#232F3E;gradientColor=none;fillColor=#FFFFFF;strokeColor=none;dashed=0;verticalLabelPosition=bottom;verticalAlign=top;align=center;html=1;fontSize=12;fontStyle=0;aspect=fixed;pointerEvents=1;shape=mxgraph.aws4.gear;rounded=1;" parent="BZBJQn5B5M7l6MrAMs_o-28" vertex="1">
          <mxGeometry x="286" y="11" width="17" height="17" as="geometry" />
        </mxCell>
        <mxCell id="Tz6aEU4ManMyac2rpAqn-142" value="Редактировать аукцион" style="text;html=1;align=center;verticalAlign=middle;whiteSpace=wrap;rounded=1;fontSize=13;fontColor=#FFFFFF;strokeColor=none;" parent="BZBJQn5B5M7l6MrAMs_o-28" vertex="1">
          <mxGeometry x="3" y="4.5" width="160" height="30" as="geometry" />
        </mxCell>
        <mxCell id="BZBJQn5B5M7l6MrAMs_o-29" value="" style="group" parent="jmPRH8THJJi4gKTDYtl7-52" vertex="1" connectable="0">
          <mxGeometry x="334.5" y="165" width="309" height="39" as="geometry" />
        </mxCell>
        <mxCell id="Tz6aEU4ManMyac2rpAqn-143" value="" style="rounded=1;whiteSpace=wrap;html=1;fillColor=#1C57CD;strokeColor=none;" parent="BZBJQn5B5M7l6MrAMs_o-29" vertex="1">
          <mxGeometry width="309" height="39" as="geometry" />
        </mxCell>
        <mxCell id="Tz6aEU4ManMyac2rpAqn-144" value="" style="sketch=0;outlineConnect=0;fontColor=#232F3E;gradientColor=none;fillColor=#FFFFFF;strokeColor=none;dashed=0;verticalLabelPosition=bottom;verticalAlign=top;align=center;html=1;fontSize=12;fontStyle=0;aspect=fixed;pointerEvents=1;shape=mxgraph.aws4.gear;rounded=1;" parent="BZBJQn5B5M7l6MrAMs_o-29" vertex="1">
          <mxGeometry x="286" y="11" width="17" height="17" as="geometry" />
        </mxCell>
        <mxCell id="Tz6aEU4ManMyac2rpAqn-145" value="Обработать новую заявку на аукцион" style="text;html=1;align=center;verticalAlign=middle;whiteSpace=wrap;rounded=1;fontSize=13;fontColor=#FFFFFF;strokeColor=none;" parent="BZBJQn5B5M7l6MrAMs_o-29" vertex="1">
          <mxGeometry x="3" y="4.5" width="241" height="30" as="geometry" />
        </mxCell>
        <mxCell id="BZBJQn5B5M7l6MrAMs_o-30" value="" style="group" parent="jmPRH8THJJi4gKTDYtl7-52" vertex="1" connectable="0">
          <mxGeometry x="334.5" y="213" width="309" height="39" as="geometry" />
        </mxCell>
        <mxCell id="Tz6aEU4ManMyac2rpAqn-146" value="" style="rounded=1;whiteSpace=wrap;html=1;fillColor=#1C57CD;strokeColor=none;" parent="BZBJQn5B5M7l6MrAMs_o-30" vertex="1">
          <mxGeometry width="309" height="39" as="geometry" />
        </mxCell>
        <mxCell id="Tz6aEU4ManMyac2rpAqn-147" value="" style="sketch=0;outlineConnect=0;fontColor=#232F3E;gradientColor=none;fillColor=#FFFFFF;strokeColor=none;dashed=0;verticalLabelPosition=bottom;verticalAlign=top;align=center;html=1;fontSize=12;fontStyle=0;aspect=fixed;pointerEvents=1;shape=mxgraph.aws4.gear;rounded=1;" parent="BZBJQn5B5M7l6MrAMs_o-30" vertex="1">
          <mxGeometry x="286" y="11" width="17" height="17" as="geometry" />
        </mxCell>
        <mxCell id="Tz6aEU4ManMyac2rpAqn-148" value="Обновление ставок аукциона" style="text;html=1;align=center;verticalAlign=middle;whiteSpace=wrap;rounded=1;fontSize=13;fontColor=#FFFFFF;strokeColor=none;" parent="BZBJQn5B5M7l6MrAMs_o-30" vertex="1">
          <mxGeometry x="4" y="4.5" width="189" height="30" as="geometry" />
        </mxCell>
        <mxCell id="BZBJQn5B5M7l6MrAMs_o-31" value="" style="group" parent="jmPRH8THJJi4gKTDYtl7-52" vertex="1" connectable="0">
          <mxGeometry x="334.5" y="261" width="309" height="39" as="geometry" />
        </mxCell>
        <mxCell id="Tz6aEU4ManMyac2rpAqn-149" value="" style="rounded=1;whiteSpace=wrap;html=1;fillColor=#1C57CD;strokeColor=none;" parent="BZBJQn5B5M7l6MrAMs_o-31" vertex="1">
          <mxGeometry width="309" height="39" as="geometry" />
        </mxCell>
        <mxCell id="Tz6aEU4ManMyac2rpAqn-150" value="" style="sketch=0;outlineConnect=0;fontColor=#232F3E;gradientColor=none;fillColor=#FFFFFF;strokeColor=none;dashed=0;verticalLabelPosition=bottom;verticalAlign=top;align=center;html=1;fontSize=12;fontStyle=0;aspect=fixed;pointerEvents=1;shape=mxgraph.aws4.gear;rounded=1;" parent="BZBJQn5B5M7l6MrAMs_o-31" vertex="1">
          <mxGeometry x="286" y="11" width="17" height="17" as="geometry" />
        </mxCell>
        <mxCell id="Tz6aEU4ManMyac2rpAqn-151" value="Нотификация участника аукциона" style="text;html=1;align=center;verticalAlign=middle;whiteSpace=wrap;rounded=1;fontSize=13;fontColor=#FFFFFF;strokeColor=none;" parent="BZBJQn5B5M7l6MrAMs_o-31" vertex="1">
          <mxGeometry x="3" y="4.5" width="218" height="30" as="geometry" />
        </mxCell>
        <mxCell id="BZBJQn5B5M7l6MrAMs_o-43" value="" style="group" parent="jmPRH8THJJi4gKTDYtl7-52" vertex="1" connectable="0">
          <mxGeometry x="14.5" y="115" width="309" height="39" as="geometry" />
        </mxCell>
        <mxCell id="cKbgiC5qh_IXnBO1eU4K-28" value="" style="rounded=1;whiteSpace=wrap;html=1;fillColor=#1C57CD;strokeColor=none;" parent="BZBJQn5B5M7l6MrAMs_o-43" vertex="1">
          <mxGeometry width="309" height="39" as="geometry" />
        </mxCell>
        <mxCell id="cKbgiC5qh_IXnBO1eU4K-29" value="" style="sketch=0;outlineConnect=0;fontColor=#232F3E;gradientColor=none;fillColor=#FFFFFF;strokeColor=none;dashed=0;verticalLabelPosition=bottom;verticalAlign=top;align=center;html=1;fontSize=12;fontStyle=0;aspect=fixed;pointerEvents=1;shape=mxgraph.aws4.gear;rounded=1;" parent="BZBJQn5B5M7l6MrAMs_o-43" vertex="1">
          <mxGeometry x="280" y="11" width="17" height="17" as="geometry" />
        </mxCell>
        <mxCell id="cKbgiC5qh_IXnBO1eU4K-30" value="Обновить статус заявки на апелляцию" style="text;html=1;align=center;verticalAlign=middle;whiteSpace=wrap;rounded=1;fontSize=13;fontColor=#FFFFFF;strokeColor=none;" parent="BZBJQn5B5M7l6MrAMs_o-43" vertex="1">
          <mxGeometry x="3" y="4.5" width="250" height="30" as="geometry" />
        </mxCell>
        <mxCell id="BZBJQn5B5M7l6MrAMs_o-44" value="" style="group" parent="jmPRH8THJJi4gKTDYtl7-52" vertex="1" connectable="0">
          <mxGeometry x="14.5" y="70" width="309" height="39" as="geometry" />
        </mxCell>
        <mxCell id="cKbgiC5qh_IXnBO1eU4K-25" value="" style="rounded=1;whiteSpace=wrap;html=1;fillColor=#1C57CD;strokeColor=none;" parent="BZBJQn5B5M7l6MrAMs_o-44" vertex="1">
          <mxGeometry width="309" height="39" as="geometry" />
        </mxCell>
        <mxCell id="cKbgiC5qh_IXnBO1eU4K-26" value="" style="sketch=0;outlineConnect=0;fontColor=#232F3E;gradientColor=none;fillColor=#FFFFFF;strokeColor=none;dashed=0;verticalLabelPosition=bottom;verticalAlign=top;align=center;html=1;fontSize=12;fontStyle=0;aspect=fixed;pointerEvents=1;shape=mxgraph.aws4.gear;rounded=1;" parent="BZBJQn5B5M7l6MrAMs_o-44" vertex="1">
          <mxGeometry x="280" y="11" width="17" height="17" as="geometry" />
        </mxCell>
        <mxCell id="cKbgiC5qh_IXnBO1eU4K-27" value="Регистрация заявки на апелляцию" style="text;html=1;align=center;verticalAlign=middle;whiteSpace=wrap;rounded=1;fontSize=13;fontColor=#FFFFFF;strokeColor=none;" parent="BZBJQn5B5M7l6MrAMs_o-44" vertex="1">
          <mxGeometry x="1" y="4.5" width="227" height="30" as="geometry" />
        </mxCell>
        <mxCell id="BZBJQn5B5M7l6MrAMs_o-45" value="" style="group" parent="jmPRH8THJJi4gKTDYtl7-52" vertex="1" connectable="0">
          <mxGeometry x="334.5" y="310" width="309" height="39" as="geometry" />
        </mxCell>
        <mxCell id="cKbgiC5qh_IXnBO1eU4K-22" value="" style="rounded=1;whiteSpace=wrap;html=1;fillColor=#1C57CD;strokeColor=none;" parent="BZBJQn5B5M7l6MrAMs_o-45" vertex="1">
          <mxGeometry width="309" height="39" as="geometry" />
        </mxCell>
        <mxCell id="cKbgiC5qh_IXnBO1eU4K-23" value="" style="sketch=0;outlineConnect=0;fontColor=#232F3E;gradientColor=none;fillColor=#FFFFFF;strokeColor=none;dashed=0;verticalLabelPosition=bottom;verticalAlign=top;align=center;html=1;fontSize=12;fontStyle=0;aspect=fixed;pointerEvents=1;shape=mxgraph.aws4.gear;rounded=1;" parent="BZBJQn5B5M7l6MrAMs_o-45" vertex="1">
          <mxGeometry x="285" y="11" width="17" height="17" as="geometry" />
        </mxCell>
        <mxCell id="cKbgiC5qh_IXnBO1eU4K-24" value="Создать заявку на апелляцию&amp;nbsp;" style="text;html=1;align=center;verticalAlign=middle;whiteSpace=wrap;rounded=1;fontSize=13;fontColor=#FFFFFF;strokeColor=none;" parent="BZBJQn5B5M7l6MrAMs_o-45" vertex="1">
          <mxGeometry x="4" y="4.5" width="202" height="30" as="geometry" />
        </mxCell>
        <mxCell id="BZBJQn5B5M7l6MrAMs_o-37" value="" style="group" parent="jmPRH8THJJi4gKTDYtl7-52" vertex="1" connectable="0">
          <mxGeometry x="14.5" y="209" width="309" height="39" as="geometry" />
        </mxCell>
        <mxCell id="cKbgiC5qh_IXnBO1eU4K-37" value="" style="rounded=1;whiteSpace=wrap;html=1;fillColor=#1C57CD;strokeColor=none;" parent="BZBJQn5B5M7l6MrAMs_o-37" vertex="1">
          <mxGeometry width="309" height="39" as="geometry" />
        </mxCell>
        <mxCell id="cKbgiC5qh_IXnBO1eU4K-38" value="" style="sketch=0;outlineConnect=0;fontColor=#232F3E;gradientColor=none;fillColor=#FFFFFF;strokeColor=none;dashed=0;verticalLabelPosition=bottom;verticalAlign=top;align=center;html=1;fontSize=12;fontStyle=0;aspect=fixed;pointerEvents=1;shape=mxgraph.aws4.gear;rounded=1;" parent="BZBJQn5B5M7l6MrAMs_o-37" vertex="1">
          <mxGeometry x="280" y="11" width="17" height="17" as="geometry" />
        </mxCell>
        <mxCell id="cKbgiC5qh_IXnBO1eU4K-39" value="Обновление статуса аукциона" style="text;html=1;align=center;verticalAlign=middle;whiteSpace=wrap;rounded=1;fontSize=13;fontColor=#FFFFFF;strokeColor=none;" parent="BZBJQn5B5M7l6MrAMs_o-37" vertex="1">
          <mxGeometry y="4.5" width="202" height="30" as="geometry" />
        </mxCell>
        <mxCell id="BZBJQn5B5M7l6MrAMs_o-38" value="" style="group" parent="jmPRH8THJJi4gKTDYtl7-52" vertex="1" connectable="0">
          <mxGeometry x="14.5" y="163" width="309" height="39" as="geometry" />
        </mxCell>
        <mxCell id="cKbgiC5qh_IXnBO1eU4K-19" value="" style="rounded=1;whiteSpace=wrap;html=1;fillColor=#1C57CD;strokeColor=none;" parent="BZBJQn5B5M7l6MrAMs_o-38" vertex="1">
          <mxGeometry width="309" height="39" as="geometry" />
        </mxCell>
        <mxCell id="cKbgiC5qh_IXnBO1eU4K-20" value="" style="sketch=0;outlineConnect=0;fontColor=#232F3E;gradientColor=none;fillColor=#FFFFFF;strokeColor=none;dashed=0;verticalLabelPosition=bottom;verticalAlign=top;align=center;html=1;fontSize=12;fontStyle=0;aspect=fixed;pointerEvents=1;shape=mxgraph.aws4.gear;rounded=1;" parent="BZBJQn5B5M7l6MrAMs_o-38" vertex="1">
          <mxGeometry x="280" y="11" width="17" height="17" as="geometry" />
        </mxCell>
        <mxCell id="cKbgiC5qh_IXnBO1eU4K-21" value="Обновление ставок аукциона" style="text;html=1;align=center;verticalAlign=middle;whiteSpace=wrap;rounded=1;fontSize=13;fontColor=#FFFFFF;strokeColor=none;" parent="BZBJQn5B5M7l6MrAMs_o-38" vertex="1">
          <mxGeometry y="4.5" width="202" height="30" as="geometry" />
        </mxCell>
        <mxCell id="BZBJQn5B5M7l6MrAMs_o-40" value="" style="group" parent="jmPRH8THJJi4gKTDYtl7-52" vertex="1" connectable="0">
          <mxGeometry x="14.5" y="253" width="309" height="39" as="geometry" />
        </mxCell>
        <mxCell id="cKbgiC5qh_IXnBO1eU4K-40" value="" style="rounded=1;whiteSpace=wrap;html=1;fillColor=#1C57CD;strokeColor=none;" parent="BZBJQn5B5M7l6MrAMs_o-40" vertex="1">
          <mxGeometry width="309" height="39" as="geometry" />
        </mxCell>
        <mxCell id="cKbgiC5qh_IXnBO1eU4K-41" value="" style="sketch=0;outlineConnect=0;fontColor=#232F3E;gradientColor=none;fillColor=#FFFFFF;strokeColor=none;dashed=0;verticalLabelPosition=bottom;verticalAlign=top;align=center;html=1;fontSize=12;fontStyle=0;aspect=fixed;pointerEvents=1;shape=mxgraph.aws4.gear;rounded=1;" parent="BZBJQn5B5M7l6MrAMs_o-40" vertex="1">
          <mxGeometry x="280" y="11" width="17" height="17" as="geometry" />
        </mxCell>
        <mxCell id="cKbgiC5qh_IXnBO1eU4K-42" value="Обновление статуса заявки" style="text;html=1;align=center;verticalAlign=middle;whiteSpace=wrap;rounded=1;fontSize=13;fontColor=#FFFFFF;strokeColor=none;" parent="BZBJQn5B5M7l6MrAMs_o-40" vertex="1">
          <mxGeometry x="8" y="4" width="176" height="30" as="geometry" />
        </mxCell>
        <mxCell id="JB9Il4g9EO8bp8syB02q-103" value="" style="strokeWidth=2;html=1;shape=mxgraph.flowchart.database;whiteSpace=wrap;rounded=1;movable=1;resizable=1;rotatable=1;deletable=1;editable=1;locked=0;connectable=1;" parent="jmPRH8THJJi4gKTDYtl7-52" vertex="1">
          <mxGeometry x="684.5" y="61" width="290" height="279" as="geometry" />
        </mxCell>
        <mxCell id="Tz6aEU4ManMyac2rpAqn-7" value="&lt;p style=&quot;margin: 0px 0px 0px 13px; text-indent: -13px; font-variant-numeric: normal; font-variant-east-asian: normal; font-variant-alternates: normal; font-kerning: auto; font-optical-sizing: auto; font-feature-settings: normal; font-variation-settings: normal; font-variant-position: normal; font-stretch: normal; font-size: 14px; line-height: normal; color: rgb(14, 14, 14); text-align: start;&quot; class=&quot;p1&quot;&gt;&lt;font face=&quot;Times New Roman&quot;&gt;Заявка на аукцион.ID&lt;/font&gt;&lt;/p&gt;" style="rounded=1;whiteSpace=wrap;html=1;fillColor=#b1ddf0;strokeColor=#10739e;" parent="jmPRH8THJJi4gKTDYtl7-52" vertex="1">
          <mxGeometry x="694.5" y="202" width="151" height="21" as="geometry" />
        </mxCell>
        <mxCell id="JB9Il4g9EO8bp8syB02q-102" value="" style="group" parent="jmPRH8THJJi4gKTDYtl7-53" vertex="1" connectable="0">
          <mxGeometry x="364.5" y="62" width="290" height="312" as="geometry" />
        </mxCell>
        <mxCell id="JB9Il4g9EO8bp8syB02q-104" value="" style="group" parent="JB9Il4g9EO8bp8syB02q-102" vertex="1" connectable="0">
          <mxGeometry x="84.94949494949495" y="14.002050816696912" width="110.5808080808081" height="27.745916515426497" as="geometry" />
        </mxCell>
        <mxCell id="JB9Il4g9EO8bp8syB02q-105" value="&lt;p style=&quot;margin: 0px 0px 0px 13px; text-indent: -13px; font-variant-numeric: normal; font-variant-east-asian: normal; font-variant-alternates: normal; font-kerning: auto; font-optical-sizing: auto; font-feature-settings: normal; font-variation-settings: normal; font-variant-position: normal; font-stretch: normal; font-size: 14px; line-height: normal; color: rgb(14, 14, 14); text-align: start;&quot; class=&quot;p1&quot;&gt;&lt;br&gt;&lt;/p&gt;" style="rounded=1;whiteSpace=wrap;html=1;fillColor=#FF77BF;strokeColor=none;arcSize=50;" parent="JB9Il4g9EO8bp8syB02q-104" vertex="1">
          <mxGeometry y="5.096188747731397" width="110.5808080808081" height="18.686025408348456" as="geometry" />
        </mxCell>
        <mxCell id="JB9Il4g9EO8bp8syB02q-106" value="&lt;font style=&quot;font-size: 18px;&quot;&gt;&lt;i&gt;PostgreSQL&lt;/i&gt;&lt;/font&gt;" style="text;html=1;align=center;verticalAlign=middle;whiteSpace=wrap;rounded=1;shadow=0;fontSize=23;fontStyle=1" parent="JB9Il4g9EO8bp8syB02q-104" vertex="1">
          <mxGeometry x="22.702020202020204" width="65.17676767676768" height="27.745916515426497" as="geometry" />
        </mxCell>
        <mxCell id="cKbgiC5qh_IXnBO1eU4K-45" value="&lt;p style=&quot;margin: 0px 0px 0px 13px; text-indent: -13px; font-variant-numeric: normal; font-variant-east-asian: normal; font-variant-alternates: normal; font-kerning: auto; font-optical-sizing: auto; font-feature-settings: normal; font-variation-settings: normal; font-variant-position: normal; font-stretch: normal; line-height: normal; color: rgb(14, 14, 14); text-align: start;&quot; class=&quot;p1&quot;&gt;&lt;font style=&quot;font-size: 14px;&quot; face=&quot;Times New Roman&quot;&gt;Заявка на регистрацию&lt;/font&gt;&lt;/p&gt;" style="rounded=1;whiteSpace=wrap;html=1;fillColor=#b1ddf0;strokeColor=#10739e;" parent="JB9Il4g9EO8bp8syB02q-102" vertex="1">
          <mxGeometry x="130" y="108" width="150" height="21" as="geometry" />
        </mxCell>
        <mxCell id="jmPRH8THJJi4gKTDYtl7-56" value="&lt;p style=&quot;margin: 0px 0px 0px 13px; text-indent: -13px; font-variant-numeric: normal; font-variant-east-asian: normal; font-variant-alternates: normal; font-kerning: auto; font-optical-sizing: auto; font-feature-settings: normal; font-variation-settings: normal; font-variant-position: normal; font-stretch: normal; font-size: 14px; line-height: normal; color: rgb(14, 14, 14); text-align: start;&quot; class=&quot;p1&quot;&gt;&lt;font face=&quot;Times New Roman&quot;&gt;Заявка на апелляцию&lt;/font&gt;&lt;/p&gt;" style="rounded=1;whiteSpace=wrap;html=1;fillColor=#b1ddf0;strokeColor=#FF0000;" vertex="1" parent="JB9Il4g9EO8bp8syB02q-102">
          <mxGeometry x="20" y="178" width="151" height="21" as="geometry" />
        </mxCell>
        <mxCell id="jmPRH8THJJi4gKTDYtl7-55" value="&lt;h1 style=&quot;margin-top: 0px;&quot;&gt;&lt;span style=&quot;font-size: 23px; font-weight: 400; text-align: center;&quot;&gt;Сервис управления аукционами&lt;/span&gt;&lt;br&gt;&lt;/h1&gt;&lt;p&gt;Сервис отвечает за работу с аукционами, работу с заявками на апелляцию.&lt;/p&gt;" style="text;html=1;whiteSpace=wrap;overflow=hidden;rounded=0;labelBackgroundColor=default;" vertex="1" parent="1">
          <mxGeometry x="150" y="1880" width="690" height="80" as="geometry" />
        </mxCell>
        <mxCell id="jmPRH8THJJi4gKTDYtl7-150" value="" style="group" vertex="1" connectable="0" parent="1">
          <mxGeometry x="2230" y="764" width="1030" height="382" as="geometry" />
        </mxCell>
        <mxCell id="JB9Il4g9EO8bp8syB02q-29" value="" style="rounded=1;whiteSpace=wrap;html=1;arcSize=5;fillColor=#f5f5f5;strokeColor=#FF0000;strokeWidth=3;" parent="jmPRH8THJJi4gKTDYtl7-150" vertex="1">
          <mxGeometry width="1020" height="280" as="geometry" />
        </mxCell>
        <mxCell id="JB9Il4g9EO8bp8syB02q-30" value="&lt;font style=&quot;font-size: 23px;&quot;&gt;Сервис управления заказами&lt;/font&gt;" style="text;html=1;align=center;verticalAlign=middle;whiteSpace=wrap;rounded=1;fontSize=13;" parent="jmPRH8THJJi4gKTDYtl7-150" vertex="1">
          <mxGeometry y="10" width="1020" height="50" as="geometry" />
        </mxCell>
        <mxCell id="BZBJQn5B5M7l6MrAMs_o-14" value="" style="group" parent="jmPRH8THJJi4gKTDYtl7-150" vertex="1" connectable="0">
          <mxGeometry x="340" y="80" width="309" height="39" as="geometry" />
        </mxCell>
        <mxCell id="Tz6aEU4ManMyac2rpAqn-75" value="" style="rounded=1;whiteSpace=wrap;html=1;fillColor=#1C57CD;strokeColor=none;" parent="BZBJQn5B5M7l6MrAMs_o-14" vertex="1">
          <mxGeometry width="309" height="39" as="geometry" />
        </mxCell>
        <mxCell id="Tz6aEU4ManMyac2rpAqn-76" value="" style="sketch=0;outlineConnect=0;fontColor=#232F3E;gradientColor=none;fillColor=default;strokeColor=none;dashed=0;verticalLabelPosition=bottom;verticalAlign=top;align=center;html=1;fontSize=12;fontStyle=0;aspect=fixed;pointerEvents=1;shape=mxgraph.aws4.gear;rounded=1;" parent="BZBJQn5B5M7l6MrAMs_o-14" vertex="1">
          <mxGeometry x="282" y="11" width="17" height="17" as="geometry" />
        </mxCell>
        <mxCell id="Tz6aEU4ManMyac2rpAqn-77" value="Создание заказа" style="text;html=1;align=center;verticalAlign=middle;whiteSpace=wrap;rounded=1;fontSize=13;fontColor=#FFFFFF;strokeColor=none;" parent="BZBJQn5B5M7l6MrAMs_o-14" vertex="1">
          <mxGeometry x="5" y="4.5" width="110" height="30" as="geometry" />
        </mxCell>
        <mxCell id="BZBJQn5B5M7l6MrAMs_o-15" value="" style="group" parent="jmPRH8THJJi4gKTDYtl7-150" vertex="1" connectable="0">
          <mxGeometry x="340" y="128" width="309" height="39" as="geometry" />
        </mxCell>
        <mxCell id="Tz6aEU4ManMyac2rpAqn-78" value="" style="rounded=1;whiteSpace=wrap;html=1;fillColor=#1C57CD;strokeColor=none;" parent="BZBJQn5B5M7l6MrAMs_o-15" vertex="1">
          <mxGeometry width="309" height="39" as="geometry" />
        </mxCell>
        <mxCell id="Tz6aEU4ManMyac2rpAqn-79" value="" style="sketch=0;outlineConnect=0;fontColor=#232F3E;gradientColor=none;fillColor=default;strokeColor=none;dashed=0;verticalLabelPosition=bottom;verticalAlign=top;align=center;html=1;fontSize=12;fontStyle=0;aspect=fixed;pointerEvents=1;shape=mxgraph.aws4.gear;rounded=1;" parent="BZBJQn5B5M7l6MrAMs_o-15" vertex="1">
          <mxGeometry x="282" y="11" width="17" height="17" as="geometry" />
        </mxCell>
        <mxCell id="Tz6aEU4ManMyac2rpAqn-80" value="Редактирование заказа" style="text;html=1;align=center;verticalAlign=middle;whiteSpace=wrap;rounded=1;fontSize=13;fontColor=#FFFFFF;strokeColor=none;" parent="BZBJQn5B5M7l6MrAMs_o-15" vertex="1">
          <mxGeometry x="3" y="4.5" width="154" height="30" as="geometry" />
        </mxCell>
        <mxCell id="BZBJQn5B5M7l6MrAMs_o-16" value="" style="group" parent="jmPRH8THJJi4gKTDYtl7-150" vertex="1" connectable="0">
          <mxGeometry x="340" y="176" width="309" height="39" as="geometry" />
        </mxCell>
        <mxCell id="Tz6aEU4ManMyac2rpAqn-81" value="" style="rounded=1;whiteSpace=wrap;html=1;fillColor=#1C57CD;strokeColor=none;" parent="BZBJQn5B5M7l6MrAMs_o-16" vertex="1">
          <mxGeometry width="309" height="39" as="geometry" />
        </mxCell>
        <mxCell id="Tz6aEU4ManMyac2rpAqn-82" value="" style="sketch=0;outlineConnect=0;fontColor=#232F3E;gradientColor=none;fillColor=default;strokeColor=none;dashed=0;verticalLabelPosition=bottom;verticalAlign=top;align=center;html=1;fontSize=12;fontStyle=0;aspect=fixed;pointerEvents=1;shape=mxgraph.aws4.gear;rounded=1;" parent="BZBJQn5B5M7l6MrAMs_o-16" vertex="1">
          <mxGeometry x="282" y="11" width="17" height="17" as="geometry" />
        </mxCell>
        <mxCell id="Tz6aEU4ManMyac2rpAqn-83" value="Сохранение заказа" style="text;html=1;align=center;verticalAlign=middle;whiteSpace=wrap;rounded=1;fontSize=13;fontColor=#FFFFFF;strokeColor=none;" parent="BZBJQn5B5M7l6MrAMs_o-16" vertex="1">
          <mxGeometry x="4" y="4" width="126" height="30" as="geometry" />
        </mxCell>
        <mxCell id="BZBJQn5B5M7l6MrAMs_o-17" value="" style="group" parent="jmPRH8THJJi4gKTDYtl7-150" vertex="1" connectable="0">
          <mxGeometry x="340" y="224" width="309" height="39" as="geometry" />
        </mxCell>
        <mxCell id="Tz6aEU4ManMyac2rpAqn-84" value="" style="rounded=1;whiteSpace=wrap;html=1;fillColor=#1C57CD;strokeColor=none;" parent="BZBJQn5B5M7l6MrAMs_o-17" vertex="1">
          <mxGeometry width="309" height="39" as="geometry" />
        </mxCell>
        <mxCell id="Tz6aEU4ManMyac2rpAqn-85" value="" style="sketch=0;outlineConnect=0;fontColor=#232F3E;gradientColor=none;fillColor=default;strokeColor=none;dashed=0;verticalLabelPosition=bottom;verticalAlign=top;align=center;html=1;fontSize=12;fontStyle=0;aspect=fixed;pointerEvents=1;shape=mxgraph.aws4.gear;rounded=1;" parent="BZBJQn5B5M7l6MrAMs_o-17" vertex="1">
          <mxGeometry x="281.5" y="11" width="17" height="17" as="geometry" />
        </mxCell>
        <mxCell id="Tz6aEU4ManMyac2rpAqn-86" value="Подтверждение заказа" style="text;html=1;align=center;verticalAlign=middle;whiteSpace=wrap;rounded=1;fontSize=13;fontColor=#FFFFFF;strokeColor=none;" parent="BZBJQn5B5M7l6MrAMs_o-17" vertex="1">
          <mxGeometry x="4" y="4.5" width="152" height="30" as="geometry" />
        </mxCell>
        <mxCell id="BZBJQn5B5M7l6MrAMs_o-18" value="" style="group" parent="jmPRH8THJJi4gKTDYtl7-150" vertex="1" connectable="0">
          <mxGeometry x="20" y="80" width="309" height="39" as="geometry" />
        </mxCell>
        <mxCell id="Tz6aEU4ManMyac2rpAqn-87" value="" style="rounded=1;whiteSpace=wrap;html=1;fillColor=#1C57CD;strokeColor=none;" parent="BZBJQn5B5M7l6MrAMs_o-18" vertex="1">
          <mxGeometry width="309" height="39" as="geometry" />
        </mxCell>
        <mxCell id="Tz6aEU4ManMyac2rpAqn-88" value="" style="sketch=0;outlineConnect=0;fontColor=#232F3E;gradientColor=none;fillColor=default;strokeColor=none;dashed=0;verticalLabelPosition=bottom;verticalAlign=top;align=center;html=1;fontSize=12;fontStyle=0;aspect=fixed;pointerEvents=1;shape=mxgraph.aws4.gear;rounded=1;" parent="BZBJQn5B5M7l6MrAMs_o-18" vertex="1">
          <mxGeometry x="281.5" y="11" width="17" height="17" as="geometry" />
        </mxCell>
        <mxCell id="Tz6aEU4ManMyac2rpAqn-89" value="Размещение заказа" style="text;html=1;align=center;verticalAlign=middle;whiteSpace=wrap;rounded=1;fontSize=13;fontColor=#FFFFFF;strokeColor=none;" parent="BZBJQn5B5M7l6MrAMs_o-18" vertex="1">
          <mxGeometry x="3" y="4.5" width="130.5" height="30" as="geometry" />
        </mxCell>
        <mxCell id="BZBJQn5B5M7l6MrAMs_o-19" value="" style="group" parent="jmPRH8THJJi4gKTDYtl7-150" vertex="1" connectable="0">
          <mxGeometry x="20" y="129" width="309" height="39" as="geometry" />
        </mxCell>
        <mxCell id="Tz6aEU4ManMyac2rpAqn-90" value="" style="rounded=1;whiteSpace=wrap;html=1;fillColor=#1C57CD;strokeColor=none;" parent="BZBJQn5B5M7l6MrAMs_o-19" vertex="1">
          <mxGeometry width="309" height="39" as="geometry" />
        </mxCell>
        <mxCell id="Tz6aEU4ManMyac2rpAqn-91" value="" style="sketch=0;outlineConnect=0;fontColor=#232F3E;gradientColor=none;fillColor=default;strokeColor=none;dashed=0;verticalLabelPosition=bottom;verticalAlign=top;align=center;html=1;fontSize=12;fontStyle=0;aspect=fixed;pointerEvents=1;shape=mxgraph.aws4.gear;rounded=1;" parent="BZBJQn5B5M7l6MrAMs_o-19" vertex="1">
          <mxGeometry x="281.5" y="11" width="17" height="17" as="geometry" />
        </mxCell>
        <mxCell id="Tz6aEU4ManMyac2rpAqn-92" value="Отобразить все заказы" style="text;html=1;align=center;verticalAlign=middle;whiteSpace=wrap;rounded=1;fontSize=13;fontColor=#FFFFFF;strokeColor=none;" parent="BZBJQn5B5M7l6MrAMs_o-19" vertex="1">
          <mxGeometry x="3" y="4.5" width="152" height="30" as="geometry" />
        </mxCell>
        <mxCell id="BZBJQn5B5M7l6MrAMs_o-20" value="" style="group" parent="jmPRH8THJJi4gKTDYtl7-150" vertex="1" connectable="0">
          <mxGeometry x="20" y="179" width="309" height="39" as="geometry" />
        </mxCell>
        <mxCell id="Tz6aEU4ManMyac2rpAqn-93" value="" style="rounded=1;whiteSpace=wrap;html=1;fillColor=#1C57CD;strokeColor=none;" parent="BZBJQn5B5M7l6MrAMs_o-20" vertex="1">
          <mxGeometry width="309" height="39" as="geometry" />
        </mxCell>
        <mxCell id="Tz6aEU4ManMyac2rpAqn-94" value="" style="sketch=0;outlineConnect=0;fontColor=#232F3E;gradientColor=none;fillColor=default;strokeColor=none;dashed=0;verticalLabelPosition=bottom;verticalAlign=top;align=center;html=1;fontSize=12;fontStyle=0;aspect=fixed;pointerEvents=1;shape=mxgraph.aws4.gear;rounded=1;" parent="BZBJQn5B5M7l6MrAMs_o-20" vertex="1">
          <mxGeometry x="282" y="11" width="17" height="17" as="geometry" />
        </mxCell>
        <mxCell id="Tz6aEU4ManMyac2rpAqn-95" value="Отобразить детали заказа" style="text;html=1;align=center;verticalAlign=middle;whiteSpace=wrap;rounded=1;fontSize=13;fontColor=#FFFFFF;strokeColor=none;" parent="BZBJQn5B5M7l6MrAMs_o-20" vertex="1">
          <mxGeometry x="5" y="5" width="169" height="30" as="geometry" />
        </mxCell>
        <mxCell id="BZBJQn5B5M7l6MrAMs_o-21" value="" style="group" parent="jmPRH8THJJi4gKTDYtl7-150" vertex="1" connectable="0">
          <mxGeometry x="20" y="224" width="309" height="39" as="geometry" />
        </mxCell>
        <mxCell id="Tz6aEU4ManMyac2rpAqn-96" value="" style="rounded=1;whiteSpace=wrap;html=1;fillColor=#1C57CD;strokeColor=none;" parent="BZBJQn5B5M7l6MrAMs_o-21" vertex="1">
          <mxGeometry width="309" height="39" as="geometry" />
        </mxCell>
        <mxCell id="Tz6aEU4ManMyac2rpAqn-97" value="" style="sketch=0;outlineConnect=0;fontColor=#232F3E;gradientColor=none;fillColor=default;strokeColor=none;dashed=0;verticalLabelPosition=bottom;verticalAlign=top;align=center;html=1;fontSize=12;fontStyle=0;aspect=fixed;pointerEvents=1;shape=mxgraph.aws4.gear;rounded=1;" parent="BZBJQn5B5M7l6MrAMs_o-21" vertex="1">
          <mxGeometry x="282" y="11" width="17" height="17" as="geometry" />
        </mxCell>
        <mxCell id="Tz6aEU4ManMyac2rpAqn-98" value="Нотификация об изменении состояния заказа" style="text;html=1;align=center;verticalAlign=middle;whiteSpace=wrap;rounded=1;fontSize=13;fontColor=#FFFFFF;strokeColor=none;" parent="BZBJQn5B5M7l6MrAMs_o-21" vertex="1">
          <mxGeometry x="6" y="4.5" width="247" height="30" as="geometry" />
        </mxCell>
        <mxCell id="JB9Il4g9EO8bp8syB02q-92" value="" style="group" parent="jmPRH8THJJi4gKTDYtl7-150" vertex="1" connectable="0">
          <mxGeometry x="740" y="70" width="290" height="312" as="geometry" />
        </mxCell>
        <mxCell id="JB9Il4g9EO8bp8syB02q-93" value="" style="strokeWidth=2;html=1;shape=mxgraph.flowchart.database;whiteSpace=wrap;rounded=1;movable=1;resizable=1;rotatable=1;deletable=1;editable=1;locked=0;connectable=1;" parent="JB9Il4g9EO8bp8syB02q-92" vertex="1">
          <mxGeometry x="-70" width="340" height="190" as="geometry" />
        </mxCell>
        <mxCell id="jmPRH8THJJi4gKTDYtl7-146" value="&lt;p style=&quot;margin: 0px 0px 0px 13px; text-indent: -13px; font-variant-numeric: normal; font-variant-east-asian: normal; font-variant-alternates: normal; font-kerning: auto; font-optical-sizing: auto; font-feature-settings: normal; font-variation-settings: normal; font-variant-position: normal; font-stretch: normal; font-size: 14px; line-height: normal; color: rgb(14, 14, 14); text-align: start;&quot; class=&quot;p1&quot;&gt;&lt;font face=&quot;Times New Roman&quot;&gt;Заказ.Детали&lt;/font&gt;&lt;/p&gt;" style="rounded=1;whiteSpace=wrap;html=1;fillColor=#b1ddf0;strokeColor=#FF0000;" vertex="1" parent="JB9Il4g9EO8bp8syB02q-92">
          <mxGeometry x="110" y="69.5" width="151" height="21" as="geometry" />
        </mxCell>
        <mxCell id="jmPRH8THJJi4gKTDYtl7-148" value="&lt;p style=&quot;margin: 0px 0px 0px 13px; text-indent: -13px; font-variant-numeric: normal; font-variant-east-asian: normal; font-variant-alternates: normal; font-kerning: auto; font-optical-sizing: auto; font-feature-settings: normal; font-variation-settings: normal; font-variant-position: normal; font-stretch: normal; font-size: 14px; line-height: normal; color: rgb(14, 14, 14); text-align: start;&quot; class=&quot;p1&quot;&gt;&lt;font face=&quot;Times New Roman&quot;&gt;Заказ.ID пользователя&lt;/font&gt;&lt;/p&gt;" style="rounded=1;whiteSpace=wrap;html=1;fillColor=#b1ddf0;strokeColor=#FF0000;" vertex="1" parent="JB9Il4g9EO8bp8syB02q-92">
          <mxGeometry x="110" y="100" width="151" height="21" as="geometry" />
        </mxCell>
        <mxCell id="JB9Il4g9EO8bp8syB02q-95" value="&lt;p style=&quot;margin: 0px 0px 0px 13px; text-indent: -13px; font-variant-numeric: normal; font-variant-east-asian: normal; font-variant-alternates: normal; font-kerning: auto; font-optical-sizing: auto; font-feature-settings: normal; font-variation-settings: normal; font-variant-position: normal; font-stretch: normal; font-size: 14px; line-height: normal; color: rgb(14, 14, 14); text-align: start;&quot; class=&quot;p1&quot;&gt;&lt;br&gt;&lt;/p&gt;" style="rounded=1;whiteSpace=wrap;html=1;fillColor=#FF77BF;strokeColor=none;arcSize=50;" parent="JB9Il4g9EO8bp8syB02q-92" vertex="1">
          <mxGeometry x="44.7094949494947" y="13.998239564428253" width="110.5808080808081" height="18.686025408348456" as="geometry" />
        </mxCell>
        <mxCell id="JB9Il4g9EO8bp8syB02q-96" value="&lt;font style=&quot;font-size: 18px;&quot;&gt;&lt;i&gt;PostgreSQL&lt;/i&gt;&lt;/font&gt;" style="text;html=1;align=center;verticalAlign=middle;whiteSpace=wrap;rounded=1;shadow=0;fontSize=23;fontStyle=1" parent="JB9Il4g9EO8bp8syB02q-92" vertex="1">
          <mxGeometry x="67.41151515151489" y="7.002050816696855" width="65.17676767676768" height="27.745916515426497" as="geometry" />
        </mxCell>
        <mxCell id="jmPRH8THJJi4gKTDYtl7-104" value="&lt;p style=&quot;margin: 0px 0px 0px 13px; text-indent: -13px; font-variant-numeric: normal; font-variant-east-asian: normal; font-variant-alternates: normal; font-kerning: auto; font-optical-sizing: auto; font-feature-settings: normal; font-variation-settings: normal; font-variant-position: normal; font-stretch: normal; font-size: 14px; line-height: normal; color: rgb(14, 14, 14); text-align: start;&quot; class=&quot;p1&quot;&gt;&lt;font face=&quot;Times New Roman&quot;&gt;Заказ.ID&lt;/font&gt;&lt;/p&gt;" style="rounded=1;whiteSpace=wrap;html=1;fillColor=#b1ddf0;strokeColor=#FF0000;" vertex="1" parent="JB9Il4g9EO8bp8syB02q-92">
          <mxGeometry x="-60" y="69.5" width="151" height="21" as="geometry" />
        </mxCell>
        <mxCell id="jmPRH8THJJi4gKTDYtl7-147" value="&lt;p style=&quot;margin: 0px 0px 0px 13px; text-indent: -13px; font-variant-numeric: normal; font-variant-east-asian: normal; font-variant-alternates: normal; font-kerning: auto; font-optical-sizing: auto; font-feature-settings: normal; font-variation-settings: normal; font-variant-position: normal; font-stretch: normal; font-size: 14px; line-height: normal; color: rgb(14, 14, 14); text-align: start;&quot; class=&quot;p1&quot;&gt;&lt;font face=&quot;Times New Roman&quot;&gt;Заказ.Статус&lt;/font&gt;&lt;/p&gt;" style="rounded=1;whiteSpace=wrap;html=1;fillColor=#b1ddf0;strokeColor=#FF0000;" vertex="1" parent="JB9Il4g9EO8bp8syB02q-92">
          <mxGeometry x="-60" y="100" width="151" height="21" as="geometry" />
        </mxCell>
        <mxCell id="jmPRH8THJJi4gKTDYtl7-284" value="&lt;p style=&quot;margin: 0px 0px 0px 13px; text-indent: -13px; font-variant-numeric: normal; font-variant-east-asian: normal; font-variant-alternates: normal; font-kerning: auto; font-optical-sizing: auto; font-feature-settings: normal; font-variation-settings: normal; font-variant-position: normal; font-stretch: normal; font-size: 14px; line-height: normal; color: rgb(14, 14, 14); text-align: start;&quot; class=&quot;p1&quot;&gt;&lt;font face=&quot;Times New Roman&quot;&gt;Заказ.ID товара&lt;/font&gt;&lt;/p&gt;" style="rounded=1;whiteSpace=wrap;html=1;fillColor=#b1ddf0;strokeColor=#FF0000;" vertex="1" parent="JB9Il4g9EO8bp8syB02q-92">
          <mxGeometry x="-60" y="136" width="151" height="21" as="geometry" />
        </mxCell>
        <mxCell id="jmPRH8THJJi4gKTDYtl7-285" value="&lt;p style=&quot;margin: 0px 0px 0px 13px; text-indent: -13px; font-variant-numeric: normal; font-variant-east-asian: normal; font-variant-alternates: normal; font-kerning: auto; font-optical-sizing: auto; font-feature-settings: normal; font-variation-settings: normal; font-variant-position: normal; font-stretch: normal; font-size: 14px; line-height: normal; color: rgb(14, 14, 14); text-align: start;&quot; class=&quot;p1&quot;&gt;&lt;font face=&quot;Times New Roman&quot;&gt;Заказ.ID услуги&lt;/font&gt;&lt;/p&gt;" style="rounded=1;whiteSpace=wrap;html=1;fillColor=#b1ddf0;strokeColor=#FF0000;" vertex="1" parent="JB9Il4g9EO8bp8syB02q-92">
          <mxGeometry x="110" y="136" width="151" height="21" as="geometry" />
        </mxCell>
        <mxCell id="cKbgiC5qh_IXnBO1eU4K-13" value="" style="rounded=1;whiteSpace=wrap;html=1;fillColor=#1C57CD;strokeColor=none;container=0;" parent="jmPRH8THJJi4gKTDYtl7-150" vertex="1">
          <mxGeometry x="20" y="31" width="309" height="39" as="geometry" />
        </mxCell>
        <mxCell id="cKbgiC5qh_IXnBO1eU4K-15" value="Отобразить статистику заказов" style="text;html=1;align=center;verticalAlign=middle;whiteSpace=wrap;rounded=1;fontSize=13;fontColor=#FFFFFF;strokeColor=none;container=0;" parent="jmPRH8THJJi4gKTDYtl7-150" vertex="1">
          <mxGeometry x="26.5" y="35.5" width="202" height="30" as="geometry" />
        </mxCell>
        <mxCell id="cKbgiC5qh_IXnBO1eU4K-14" value="" style="sketch=0;outlineConnect=0;fontColor=#232F3E;gradientColor=none;fillColor=#FFFFFF;strokeColor=none;dashed=0;verticalLabelPosition=bottom;verticalAlign=top;align=center;html=1;fontSize=12;fontStyle=0;aspect=fixed;pointerEvents=1;shape=mxgraph.aws4.gear;rounded=1;container=0;" parent="jmPRH8THJJi4gKTDYtl7-150" vertex="1">
          <mxGeometry x="297" y="42" width="17" height="17" as="geometry" />
        </mxCell>
        <mxCell id="jmPRH8THJJi4gKTDYtl7-271" value="8.1" style="ellipse;whiteSpace=wrap;html=1;aspect=fixed;rounded=1;fillColor=#FF77BF;" vertex="1" parent="jmPRH8THJJi4gKTDYtl7-150">
          <mxGeometry x="70" y="-13" width="23" height="23" as="geometry" />
        </mxCell>
        <mxCell id="jmPRH8THJJi4gKTDYtl7-151" value="&lt;h1 style=&quot;margin-top: 0px;&quot;&gt;&lt;span style=&quot;font-size: 23px; font-weight: 400; text-align: center;&quot;&gt;Платежный сервис&lt;/span&gt;&lt;br&gt;&lt;/h1&gt;&lt;p&gt;Сервис обработки платежей и интеграции с внешними платежными системами.&lt;/p&gt;" style="text;html=1;whiteSpace=wrap;overflow=hidden;rounded=0;labelBackgroundColor=default;" vertex="1" parent="1">
          <mxGeometry x="2470" y="410" width="690" height="80" as="geometry" />
        </mxCell>
        <mxCell id="jmPRH8THJJi4gKTDYtl7-152" value="&lt;h1 style=&quot;margin-top: 0px;&quot;&gt;&lt;span style=&quot;font-size: 23px; font-weight: 400; text-align: center;&quot;&gt;Сервис управления заказами&lt;/span&gt;&lt;br&gt;&lt;/h1&gt;&lt;p&gt;Сервис отвечает за работу с заказами, отображение заказов и их деталей, создание, редактирование, подтверждение заказа. Так же сервис позволяет получить статистическую информацию о заказах.&lt;/p&gt;" style="text;html=1;whiteSpace=wrap;overflow=hidden;rounded=0;labelBackgroundColor=default;" vertex="1" parent="1">
          <mxGeometry x="2230" y="1063" width="800" height="80" as="geometry" />
        </mxCell>
        <mxCell id="jmPRH8THJJi4gKTDYtl7-153" value="" style="group" vertex="1" connectable="0" parent="1">
          <mxGeometry x="2260" y="1410" width="990" height="391.99999999999983" as="geometry" />
        </mxCell>
        <mxCell id="JB9Il4g9EO8bp8syB02q-40" value="" style="rounded=1;whiteSpace=wrap;html=1;arcSize=5;fillColor=#f5f5f5;strokeColor=#FF0000;strokeWidth=3;" parent="jmPRH8THJJi4gKTDYtl7-153" vertex="1">
          <mxGeometry width="990" height="360" as="geometry" />
        </mxCell>
        <mxCell id="BZBJQn5B5M7l6MrAMs_o-12" value="" style="group" parent="jmPRH8THJJi4gKTDYtl7-153" vertex="1" connectable="0">
          <mxGeometry x="340" y="197.47572815533977" width="309" height="46.57281553398058" as="geometry" />
        </mxCell>
        <mxCell id="Tz6aEU4ManMyac2rpAqn-66" value="" style="rounded=1;whiteSpace=wrap;html=1;fillColor=#1C57CD;strokeColor=none;" parent="BZBJQn5B5M7l6MrAMs_o-12" vertex="1">
          <mxGeometry width="309" height="46.57281553398058" as="geometry" />
        </mxCell>
        <mxCell id="Tz6aEU4ManMyac2rpAqn-67" value="" style="sketch=0;outlineConnect=0;fontColor=#232F3E;gradientColor=none;fillColor=default;strokeColor=none;dashed=0;verticalLabelPosition=bottom;verticalAlign=top;align=center;html=1;fontSize=12;fontStyle=0;aspect=fixed;pointerEvents=1;shape=mxgraph.aws4.gear;rounded=1;" parent="BZBJQn5B5M7l6MrAMs_o-12" vertex="1">
          <mxGeometry x="282" y="13.135922330097086" width="17" height="17" as="geometry" />
        </mxCell>
        <mxCell id="Tz6aEU4ManMyac2rpAqn-68" value="Удалить услугу пользователя" style="text;html=1;align=center;verticalAlign=middle;whiteSpace=wrap;rounded=1;fontSize=13;fontColor=#FFFFFF;strokeColor=none;" parent="BZBJQn5B5M7l6MrAMs_o-12" vertex="1">
          <mxGeometry x="3" y="5.37378640776699" width="189" height="35.8252427184466" as="geometry" />
        </mxCell>
        <mxCell id="BZBJQn5B5M7l6MrAMs_o-13" value="" style="group" parent="jmPRH8THJJi4gKTDYtl7-153" vertex="1" connectable="0">
          <mxGeometry x="340" y="257.1844660194174" width="309" height="46.57281553398058" as="geometry" />
        </mxCell>
        <mxCell id="Tz6aEU4ManMyac2rpAqn-69" value="" style="rounded=1;whiteSpace=wrap;html=1;fillColor=#1C57CD;strokeColor=none;" parent="BZBJQn5B5M7l6MrAMs_o-13" vertex="1">
          <mxGeometry width="309" height="46.57281553398058" as="geometry" />
        </mxCell>
        <mxCell id="Tz6aEU4ManMyac2rpAqn-70" value="" style="sketch=0;outlineConnect=0;fontColor=#232F3E;gradientColor=none;fillColor=default;strokeColor=none;dashed=0;verticalLabelPosition=bottom;verticalAlign=top;align=center;html=1;fontSize=12;fontStyle=0;aspect=fixed;pointerEvents=1;shape=mxgraph.aws4.gear;rounded=1;" parent="BZBJQn5B5M7l6MrAMs_o-13" vertex="1">
          <mxGeometry x="282" y="13.135922330097086" width="17" height="17" as="geometry" />
        </mxCell>
        <mxCell id="Tz6aEU4ManMyac2rpAqn-71" value="Удалить товар пользователя" style="text;html=1;align=center;verticalAlign=middle;whiteSpace=wrap;rounded=1;fontSize=13;fontColor=#FFFFFF;strokeColor=none;" parent="BZBJQn5B5M7l6MrAMs_o-13" vertex="1">
          <mxGeometry x="2" y="5.37378640776699" width="188" height="35.8252427184466" as="geometry" />
        </mxCell>
        <mxCell id="BZBJQn5B5M7l6MrAMs_o-32" value="" style="group" parent="jmPRH8THJJi4gKTDYtl7-153" vertex="1" connectable="0">
          <mxGeometry x="20" y="134.33854368932046" width="309" height="46.57281553398058" as="geometry" />
        </mxCell>
        <mxCell id="cKbgiC5qh_IXnBO1eU4K-1" value="" style="rounded=1;whiteSpace=wrap;html=1;fillColor=#1C57CD;strokeColor=none;" parent="BZBJQn5B5M7l6MrAMs_o-32" vertex="1">
          <mxGeometry width="309" height="46.57281553398058" as="geometry" />
        </mxCell>
        <mxCell id="cKbgiC5qh_IXnBO1eU4K-2" value="" style="sketch=0;outlineConnect=0;fontColor=#232F3E;gradientColor=none;fillColor=#FFFFFF;strokeColor=none;dashed=0;verticalLabelPosition=bottom;verticalAlign=top;align=center;html=1;fontSize=12;fontStyle=0;aspect=fixed;pointerEvents=1;shape=mxgraph.aws4.gear;rounded=1;" parent="BZBJQn5B5M7l6MrAMs_o-32" vertex="1">
          <mxGeometry x="286" y="13.135922330097086" width="17" height="17" as="geometry" />
        </mxCell>
        <mxCell id="cKbgiC5qh_IXnBO1eU4K-3" value="Поиск товаров" style="text;html=1;align=center;verticalAlign=middle;whiteSpace=wrap;rounded=1;fontSize=13;fontColor=#FFFFFF;strokeColor=none;" parent="BZBJQn5B5M7l6MrAMs_o-32" vertex="1">
          <mxGeometry x="3" y="5.37378640776699" width="99" height="35.8252427184466" as="geometry" />
        </mxCell>
        <mxCell id="BZBJQn5B5M7l6MrAMs_o-33" value="" style="group" parent="jmPRH8THJJi4gKTDYtl7-153" vertex="1" connectable="0">
          <mxGeometry x="20" y="80.00359223300964" width="309" height="46.57281553398058" as="geometry" />
        </mxCell>
        <mxCell id="cKbgiC5qh_IXnBO1eU4K-4" value="" style="rounded=1;whiteSpace=wrap;html=1;fillColor=#1C57CD;strokeColor=none;" parent="BZBJQn5B5M7l6MrAMs_o-33" vertex="1">
          <mxGeometry width="309" height="46.57281553398058" as="geometry" />
        </mxCell>
        <mxCell id="cKbgiC5qh_IXnBO1eU4K-5" value="" style="sketch=0;outlineConnect=0;fontColor=#232F3E;gradientColor=none;fillColor=#FFFFFF;strokeColor=none;dashed=0;verticalLabelPosition=bottom;verticalAlign=top;align=center;html=1;fontSize=12;fontStyle=0;aspect=fixed;pointerEvents=1;shape=mxgraph.aws4.gear;rounded=1;" parent="BZBJQn5B5M7l6MrAMs_o-33" vertex="1">
          <mxGeometry x="286" y="13.135922330097086" width="17" height="17" as="geometry" />
        </mxCell>
        <mxCell id="cKbgiC5qh_IXnBO1eU4K-6" value="Поиск услуг" style="text;html=1;align=center;verticalAlign=middle;whiteSpace=wrap;rounded=1;fontSize=13;fontColor=#FFFFFF;strokeColor=none;" parent="BZBJQn5B5M7l6MrAMs_o-33" vertex="1">
          <mxGeometry x="4" y="4.776699029126213" width="81" height="35.8252427184466" as="geometry" />
        </mxCell>
        <mxCell id="BZBJQn5B5M7l6MrAMs_o-26" value="" style="group" parent="jmPRH8THJJi4gKTDYtl7-153" vertex="1" connectable="0">
          <mxGeometry x="20" y="248.9793203883494" width="309" height="46.57281553398058" as="geometry" />
        </mxCell>
        <mxCell id="Tz6aEU4ManMyac2rpAqn-63" value="" style="rounded=1;whiteSpace=wrap;html=1;fillColor=#1C57CD;strokeColor=none;" parent="BZBJQn5B5M7l6MrAMs_o-26" vertex="1">
          <mxGeometry width="309" height="46.57281553398058" as="geometry" />
        </mxCell>
        <mxCell id="Tz6aEU4ManMyac2rpAqn-64" value="" style="sketch=0;outlineConnect=0;fontColor=#232F3E;gradientColor=none;fillColor=#FFFFFF;strokeColor=none;dashed=0;verticalLabelPosition=bottom;verticalAlign=top;align=center;html=1;fontSize=12;fontStyle=0;aspect=fixed;pointerEvents=1;shape=mxgraph.aws4.gear;rounded=1;" parent="BZBJQn5B5M7l6MrAMs_o-26" vertex="1">
          <mxGeometry x="286" y="13.135922330097086" width="17" height="17" as="geometry" />
        </mxCell>
        <mxCell id="Tz6aEU4ManMyac2rpAqn-65" value="Изменить услугу пользователя" style="text;html=1;align=center;verticalAlign=middle;whiteSpace=wrap;rounded=1;fontSize=13;fontColor=#FFFFFF;strokeColor=none;" parent="BZBJQn5B5M7l6MrAMs_o-26" vertex="1">
          <mxGeometry x="4" y="5.37378640776699" width="195" height="35.8252427184466" as="geometry" />
        </mxCell>
        <mxCell id="BZBJQn5B5M7l6MrAMs_o-25" value="" style="group" parent="jmPRH8THJJi4gKTDYtl7-153" vertex="1" connectable="0">
          <mxGeometry x="20" y="191.65893203883482" width="309" height="46.57281553398058" as="geometry" />
        </mxCell>
        <mxCell id="Tz6aEU4ManMyac2rpAqn-60" value="" style="rounded=1;whiteSpace=wrap;html=1;fillColor=#1C57CD;strokeColor=none;" parent="BZBJQn5B5M7l6MrAMs_o-25" vertex="1">
          <mxGeometry width="309" height="46.57281553398058" as="geometry" />
        </mxCell>
        <mxCell id="Tz6aEU4ManMyac2rpAqn-61" value="" style="sketch=0;outlineConnect=0;fontColor=#232F3E;gradientColor=none;fillColor=#FFFFFF;strokeColor=none;dashed=0;verticalLabelPosition=bottom;verticalAlign=top;align=center;html=1;fontSize=12;fontStyle=0;aspect=fixed;pointerEvents=1;shape=mxgraph.aws4.gear;rounded=1;" parent="BZBJQn5B5M7l6MrAMs_o-25" vertex="1">
          <mxGeometry x="286" y="13.135922330097086" width="17" height="17" as="geometry" />
        </mxCell>
        <mxCell id="Tz6aEU4ManMyac2rpAqn-62" value="Изменить товар пользователя" style="text;html=1;align=center;verticalAlign=middle;whiteSpace=wrap;rounded=1;fontSize=13;fontColor=#FFFFFF;strokeColor=none;" parent="BZBJQn5B5M7l6MrAMs_o-25" vertex="1">
          <mxGeometry x="7" y="3.58252427184466" width="195" height="35.8252427184466" as="geometry" />
        </mxCell>
        <mxCell id="BZBJQn5B5M7l6MrAMs_o-24" value="" style="group" parent="jmPRH8THJJi4gKTDYtl7-153" vertex="1" connectable="0">
          <mxGeometry x="340" y="79.99592233009707" width="309" height="46.57281553398058" as="geometry" />
        </mxCell>
        <mxCell id="Tz6aEU4ManMyac2rpAqn-57" value="" style="rounded=1;whiteSpace=wrap;html=1;fillColor=#1C57CD;strokeColor=none;" parent="BZBJQn5B5M7l6MrAMs_o-24" vertex="1">
          <mxGeometry width="309" height="46.57281553398058" as="geometry" />
        </mxCell>
        <mxCell id="Tz6aEU4ManMyac2rpAqn-58" value="" style="sketch=0;outlineConnect=0;fontColor=#232F3E;gradientColor=none;fillColor=#FFFFFF;strokeColor=none;dashed=0;verticalLabelPosition=bottom;verticalAlign=top;align=center;html=1;fontSize=12;fontStyle=0;aspect=fixed;pointerEvents=1;shape=mxgraph.aws4.gear;rounded=1;" parent="BZBJQn5B5M7l6MrAMs_o-24" vertex="1">
          <mxGeometry x="286" y="11.941747572815533" width="17" height="17" as="geometry" />
        </mxCell>
        <mxCell id="Tz6aEU4ManMyac2rpAqn-59" value="Добавить услугу в профиль пользователя" style="text;html=1;align=center;verticalAlign=middle;whiteSpace=wrap;rounded=1;fontSize=13;fontColor=#FFFFFF;strokeColor=none;" parent="BZBJQn5B5M7l6MrAMs_o-24" vertex="1">
          <mxGeometry x="2" y="5.970873786407767" width="273" height="35.8252427184466" as="geometry" />
        </mxCell>
        <mxCell id="BZBJQn5B5M7l6MrAMs_o-23" value="" style="group" parent="jmPRH8THJJi4gKTDYtl7-153" vertex="1" connectable="0">
          <mxGeometry x="340" y="137.76699029126212" width="309" height="46.57281553398058" as="geometry" />
        </mxCell>
        <mxCell id="Tz6aEU4ManMyac2rpAqn-54" value="" style="rounded=1;whiteSpace=wrap;html=1;fillColor=#1C57CD;strokeColor=none;" parent="BZBJQn5B5M7l6MrAMs_o-23" vertex="1">
          <mxGeometry width="309" height="46.57281553398058" as="geometry" />
        </mxCell>
        <mxCell id="Tz6aEU4ManMyac2rpAqn-55" value="" style="sketch=0;outlineConnect=0;fontColor=#232F3E;gradientColor=none;fillColor=#FFFFFF;strokeColor=none;dashed=0;verticalLabelPosition=bottom;verticalAlign=top;align=center;html=1;fontSize=12;fontStyle=0;aspect=fixed;pointerEvents=1;shape=mxgraph.aws4.gear;rounded=1;" parent="BZBJQn5B5M7l6MrAMs_o-23" vertex="1">
          <mxGeometry x="286" y="13.135922330097086" width="17" height="17" as="geometry" />
        </mxCell>
        <mxCell id="Tz6aEU4ManMyac2rpAqn-56" value="Добавить товар в профиль пользователя" style="text;html=1;align=center;verticalAlign=middle;whiteSpace=wrap;rounded=1;fontSize=13;fontColor=#FFFFFF;strokeColor=none;" parent="BZBJQn5B5M7l6MrAMs_o-23" vertex="1">
          <mxGeometry x="8" y="4.776699029126213" width="262" height="35.8252427184466" as="geometry" />
        </mxCell>
        <mxCell id="BZBJQn5B5M7l6MrAMs_o-34" value="" style="group" parent="jmPRH8THJJi4gKTDYtl7-153" vertex="1" connectable="0">
          <mxGeometry x="20" y="307.28999999999996" width="309" height="39" as="geometry" />
        </mxCell>
        <mxCell id="cKbgiC5qh_IXnBO1eU4K-7" value="" style="rounded=1;whiteSpace=wrap;html=1;fillColor=#1C57CD;strokeColor=none;" parent="BZBJQn5B5M7l6MrAMs_o-34" vertex="1">
          <mxGeometry width="309" height="39" as="geometry" />
        </mxCell>
        <mxCell id="cKbgiC5qh_IXnBO1eU4K-8" value="" style="sketch=0;outlineConnect=0;fontColor=#232F3E;gradientColor=none;fillColor=#FFFFFF;strokeColor=none;dashed=0;verticalLabelPosition=bottom;verticalAlign=top;align=center;html=1;fontSize=12;fontStyle=0;aspect=fixed;pointerEvents=1;shape=mxgraph.aws4.gear;rounded=1;" parent="BZBJQn5B5M7l6MrAMs_o-34" vertex="1">
          <mxGeometry x="286" y="11" width="17" height="17" as="geometry" />
        </mxCell>
        <mxCell id="cKbgiC5qh_IXnBO1eU4K-9" value="Фильтрация и сортировка результатов" style="text;html=1;align=center;verticalAlign=middle;whiteSpace=wrap;rounded=1;fontSize=13;fontColor=#FFFFFF;strokeColor=none;" parent="BZBJQn5B5M7l6MrAMs_o-34" vertex="1">
          <mxGeometry x="5" y="4.5" width="248" height="30" as="geometry" />
        </mxCell>
        <mxCell id="JB9Il4g9EO8bp8syB02q-41" value="&lt;font style=&quot;font-size: 23px;&quot;&gt;Сервис работы с товарами и услугами&lt;/font&gt;" style="text;html=1;align=center;verticalAlign=middle;whiteSpace=wrap;rounded=1;fontSize=13;" parent="jmPRH8THJJi4gKTDYtl7-153" vertex="1">
          <mxGeometry y="10" width="990" height="50" as="geometry" />
        </mxCell>
        <mxCell id="JB9Il4g9EO8bp8syB02q-97" value="" style="group" parent="jmPRH8THJJi4gKTDYtl7-153" vertex="1" connectable="0">
          <mxGeometry x="680" y="79.99999999999983" width="290" height="312" as="geometry" />
        </mxCell>
        <mxCell id="JB9Il4g9EO8bp8syB02q-98" value="" style="strokeWidth=2;html=1;shape=mxgraph.flowchart.database;whiteSpace=wrap;rounded=1;movable=1;resizable=1;rotatable=1;deletable=1;editable=1;locked=0;connectable=1;" parent="JB9Il4g9EO8bp8syB02q-97" vertex="1">
          <mxGeometry width="290" height="210" as="geometry" />
        </mxCell>
        <mxCell id="JB9Il4g9EO8bp8syB02q-99" value="" style="group" parent="JB9Il4g9EO8bp8syB02q-97" vertex="1" connectable="0">
          <mxGeometry x="77.29949494949494" y="10.022050816696911" width="110.5808080808081" height="27.745916515426497" as="geometry" />
        </mxCell>
        <mxCell id="JB9Il4g9EO8bp8syB02q-100" value="&lt;p style=&quot;margin: 0px 0px 0px 13px; text-indent: -13px; font-variant-numeric: normal; font-variant-east-asian: normal; font-variant-alternates: normal; font-kerning: auto; font-optical-sizing: auto; font-feature-settings: normal; font-variation-settings: normal; font-variant-position: normal; font-stretch: normal; font-size: 14px; line-height: normal; color: rgb(14, 14, 14); text-align: start;&quot; class=&quot;p1&quot;&gt;&lt;br&gt;&lt;/p&gt;" style="rounded=1;whiteSpace=wrap;html=1;fillColor=#FF77BF;strokeColor=none;arcSize=50;" parent="JB9Il4g9EO8bp8syB02q-99" vertex="1">
          <mxGeometry y="19.096188747731397" width="110.5808080808081" height="18.686025408348456" as="geometry" />
        </mxCell>
        <mxCell id="cKbgiC5qh_IXnBO1eU4K-86" value="&lt;p style=&quot;margin: 0px 0px 0px 13px; text-indent: -13px; font-variant-numeric: normal; font-variant-east-asian: normal; font-variant-alternates: normal; font-kerning: auto; font-optical-sizing: auto; font-feature-settings: normal; font-variation-settings: normal; font-variant-position: normal; font-stretch: normal; font-size: 14px; line-height: normal; color: rgb(14, 14, 14); text-align: start;&quot; class=&quot;p1&quot;&gt;&lt;font face=&quot;Times New Roman&quot;&gt;Услуга. Описание&lt;/font&gt;&lt;/p&gt;" style="rounded=1;whiteSpace=wrap;html=1;fillColor=#b1ddf0;strokeColor=#10739e;" parent="JB9Il4g9EO8bp8syB02q-97" vertex="1">
          <mxGeometry x="145" y="152.57000000000016" width="112" height="21" as="geometry" />
        </mxCell>
        <mxCell id="cKbgiC5qh_IXnBO1eU4K-87" value="&lt;p style=&quot;margin: 0px 0px 0px 13px; text-indent: -13px; font-variant-numeric: normal; font-variant-east-asian: normal; font-variant-alternates: normal; font-kerning: auto; font-optical-sizing: auto; font-feature-settings: normal; font-variation-settings: normal; font-variant-position: normal; font-stretch: normal; font-size: 14px; line-height: normal; color: rgb(14, 14, 14); text-align: start;&quot; class=&quot;p1&quot;&gt;&lt;font face=&quot;Times New Roman&quot;&gt;Товар.ID&lt;/font&gt;&lt;/p&gt;" style="rounded=1;whiteSpace=wrap;html=1;fillColor=#b1ddf0;strokeColor=#10739e;" parent="JB9Il4g9EO8bp8syB02q-97" vertex="1">
          <mxGeometry x="10" y="91.57000000000016" width="78" height="21" as="geometry" />
        </mxCell>
        <mxCell id="cKbgiC5qh_IXnBO1eU4K-88" value="&lt;p style=&quot;margin: 0px 0px 0px 13px; text-indent: -13px; font-variant-numeric: normal; font-variant-east-asian: normal; font-variant-alternates: normal; font-kerning: auto; font-optical-sizing: auto; font-feature-settings: normal; font-variation-settings: normal; font-variant-position: normal; font-stretch: normal; font-size: 14px; line-height: normal; color: rgb(14, 14, 14); text-align: start;&quot; class=&quot;p1&quot;&gt;&lt;font face=&quot;Times New Roman&quot;&gt;Товар.Название&lt;/font&gt;&lt;/p&gt;" style="rounded=1;whiteSpace=wrap;html=1;fillColor=#b1ddf0;strokeColor=#10739e;" parent="JB9Il4g9EO8bp8syB02q-97" vertex="1">
          <mxGeometry x="10" y="152.57000000000016" width="111" height="21" as="geometry" />
        </mxCell>
        <mxCell id="cKbgiC5qh_IXnBO1eU4K-89" value="&lt;p style=&quot;margin: 0px 0px 0px 13px; text-indent: -13px; font-variant-numeric: normal; font-variant-east-asian: normal; font-variant-alternates: normal; font-kerning: auto; font-optical-sizing: auto; font-feature-settings: normal; font-variation-settings: normal; font-variant-position: normal; font-stretch: normal; font-size: 14px; line-height: normal; color: rgb(14, 14, 14); text-align: start;&quot; class=&quot;p1&quot;&gt;&lt;font face=&quot;Times New Roman&quot;&gt;Товар.Описание&lt;/font&gt;&lt;/p&gt;" style="rounded=1;whiteSpace=wrap;html=1;fillColor=#b1ddf0;strokeColor=#10739e;" parent="JB9Il4g9EO8bp8syB02q-97" vertex="1">
          <mxGeometry x="10" y="121.57000000000016" width="107" height="21" as="geometry" />
        </mxCell>
        <mxCell id="cKbgiC5qh_IXnBO1eU4K-84" value="&lt;p style=&quot;margin: 0px 0px 0px 13px; text-indent: -13px; font-variant-numeric: normal; font-variant-east-asian: normal; font-variant-alternates: normal; font-kerning: auto; font-optical-sizing: auto; font-feature-settings: normal; font-variation-settings: normal; font-variant-position: normal; font-stretch: normal; font-size: 14px; line-height: normal; color: rgb(14, 14, 14); text-align: start;&quot; class=&quot;p1&quot;&gt;&lt;font face=&quot;Times New Roman&quot;&gt;Услуга.ID&lt;/font&gt;&lt;/p&gt;" style="rounded=1;whiteSpace=wrap;html=1;fillColor=#b1ddf0;strokeColor=#10739e;" parent="JB9Il4g9EO8bp8syB02q-97" vertex="1">
          <mxGeometry x="170" y="91.57000000000016" width="87" height="21" as="geometry" />
        </mxCell>
        <mxCell id="cKbgiC5qh_IXnBO1eU4K-85" value="&lt;p style=&quot;margin: 0px 0px 0px 13px; text-indent: -13px; font-variant-numeric: normal; font-variant-east-asian: normal; font-variant-alternates: normal; font-kerning: auto; font-optical-sizing: auto; font-feature-settings: normal; font-variation-settings: normal; font-variant-position: normal; font-stretch: normal; font-size: 14px; line-height: normal; color: rgb(14, 14, 14); text-align: start;&quot; class=&quot;p1&quot;&gt;&lt;font face=&quot;Times New Roman&quot;&gt;Услуга.Название&lt;/font&gt;&lt;/p&gt;" style="rounded=1;whiteSpace=wrap;html=1;fillColor=#b1ddf0;strokeColor=#10739e;" parent="JB9Il4g9EO8bp8syB02q-97" vertex="1">
          <mxGeometry x="147" y="121.57000000000016" width="110" height="21" as="geometry" />
        </mxCell>
        <mxCell id="JB9Il4g9EO8bp8syB02q-101" value="&lt;font style=&quot;font-size: 18px;&quot;&gt;&lt;i&gt;PostgreSQL&lt;/i&gt;&lt;/font&gt;" style="text;html=1;align=center;verticalAlign=middle;whiteSpace=wrap;rounded=1;shadow=0;fontSize=23;fontStyle=1" parent="JB9Il4g9EO8bp8syB02q-97" vertex="1">
          <mxGeometry x="100.0015151515149" y="24.622050816696856" width="65.17676767676768" height="27.745916515426497" as="geometry" />
        </mxCell>
        <mxCell id="jmPRH8THJJi4gKTDYtl7-154" value="&lt;h1 style=&quot;margin-top: 0px;&quot;&gt;&lt;span style=&quot;font-size: 23px; font-weight: 400; text-align: center;&quot;&gt;Сервис работы с товарами и услугами&lt;/span&gt;&lt;br&gt;&lt;/h1&gt;&lt;p&gt;Сервис отвечает за работу с товарами и услугами, их поиском, изменением, добавлением в профиль пользователя, удалением, фильтрацией и сортировкой.&lt;/p&gt;" style="text;html=1;whiteSpace=wrap;overflow=hidden;rounded=0;labelBackgroundColor=default;" vertex="1" parent="1">
          <mxGeometry x="2260" y="1790" width="940" height="80" as="geometry" />
        </mxCell>
        <mxCell id="jmPRH8THJJi4gKTDYtl7-155" value="&lt;h1 style=&quot;margin-top: 0px;&quot;&gt;&lt;span style=&quot;font-size: 23px; font-weight: 400; text-align: center;&quot;&gt;Сервис техподдержки&lt;/span&gt;&lt;br&gt;&lt;/h1&gt;&lt;p&gt;Сервис работы с заявками на техподдержку.&lt;/p&gt;" style="text;html=1;whiteSpace=wrap;overflow=hidden;rounded=0;labelBackgroundColor=default;" vertex="1" parent="1">
          <mxGeometry x="1070" y="650" width="690" height="80" as="geometry" />
        </mxCell>
        <mxCell id="jmPRH8THJJi4gKTDYtl7-159" value="" style="endArrow=classic;html=1;rounded=1;exitX=0.946;exitY=0.025;exitDx=0;exitDy=0;exitPerimeter=0;curved=0;entryX=0.969;entryY=0.996;entryDx=0;entryDy=0;entryPerimeter=0;" edge="1" parent="1" source="JB9Il4g9EO8bp8syB02q-44" target="Tz6aEU4ManMyac2rpAqn-104">
          <mxGeometry width="50" height="50" relative="1" as="geometry">
            <mxPoint x="3740" y="92.28999999999996" as="sourcePoint" />
            <mxPoint x="3964.995999999999" y="-321.00199999999995" as="targetPoint" />
            <Array as="points" />
          </mxGeometry>
        </mxCell>
        <mxCell id="jmPRH8THJJi4gKTDYtl7-160" value="&lt;span style=&quot;text-wrap: wrap;&quot;&gt;&lt;font style=&quot;font-size: 12px;&quot;&gt;Инициировать платёж&lt;/font&gt;&lt;/span&gt;" style="edgeLabel;html=1;align=center;verticalAlign=middle;resizable=0;points=[];rounded=1;" vertex="1" connectable="0" parent="jmPRH8THJJi4gKTDYtl7-159">
          <mxGeometry x="0.1936" y="1" relative="1" as="geometry">
            <mxPoint x="2" y="-11" as="offset" />
          </mxGeometry>
        </mxCell>
        <mxCell id="aNh6FEuhw9lsT8rE3H5J-66" value="1" style="ellipse;whiteSpace=wrap;html=1;aspect=fixed;rounded=1;fillColor=#FF77BF;" parent="1" vertex="1">
          <mxGeometry x="3338" y="100" width="23" height="23" as="geometry" />
        </mxCell>
        <mxCell id="jmPRH8THJJi4gKTDYtl7-161" value="" style="endArrow=classic;html=1;rounded=1;exitX=0.5;exitY=1;exitDx=0;exitDy=0;curved=0;" edge="1" parent="1" source="cKbgiC5qh_IXnBO1eU4K-138">
          <mxGeometry width="50" height="50" relative="1" as="geometry">
            <mxPoint x="3360" y="124" as="sourcePoint" />
            <mxPoint x="3230" y="110" as="targetPoint" />
            <Array as="points" />
          </mxGeometry>
        </mxCell>
        <mxCell id="jmPRH8THJJi4gKTDYtl7-167" value="" style="endArrow=classic;html=1;rounded=1;exitX=0.75;exitY=1;exitDx=0;exitDy=0;curved=0;" edge="1" parent="1" source="Tz6aEU4ManMyac2rpAqn-104" target="cKbgiC5qh_IXnBO1eU4K-138">
          <mxGeometry width="50" height="50" relative="1" as="geometry">
            <mxPoint x="3236" y="-216" as="sourcePoint" />
            <mxPoint x="3230" y="110" as="targetPoint" />
            <Array as="points" />
          </mxGeometry>
        </mxCell>
        <mxCell id="cKbgiC5qh_IXnBO1eU4K-138" value="2" style="ellipse;whiteSpace=wrap;html=1;aspect=fixed;rounded=1;fillColor=#FF77BF;" parent="1" vertex="1">
          <mxGeometry x="3222" y="-221" width="23" height="23" as="geometry" />
        </mxCell>
        <mxCell id="jmPRH8THJJi4gKTDYtl7-168" value="&lt;font style=&quot;font-size: 12px;&quot;&gt;Предоставить&amp;nbsp;&lt;/font&gt;&lt;div&gt;&lt;font style=&quot;font-size: 12px;&quot;&gt;статус платежа&lt;/font&gt;&lt;/div&gt;" style="edgeLabel;html=1;align=center;verticalAlign=middle;resizable=0;points=[];rounded=1;" vertex="1" connectable="0" parent="1">
          <mxGeometry x="3229.99956946988" y="13.000082883761252" as="geometry" />
        </mxCell>
        <mxCell id="jmPRH8THJJi4gKTDYtl7-169" value="&lt;font style=&quot;font-size: 12px;&quot;&gt;[Транзакция.ID]&lt;/font&gt;" style="text;html=1;align=center;verticalAlign=middle;whiteSpace=wrap;rounded=1;fontSize=13;labelBackgroundColor=default;fontColor=#B8B8B8;" vertex="1" parent="1">
          <mxGeometry x="3180" y="28.5" width="100" height="30" as="geometry" />
        </mxCell>
        <mxCell id="jmPRH8THJJi4gKTDYtl7-172" value="" style="endArrow=classic;html=1;rounded=1;curved=0;entryX=0.969;entryY=0.996;entryDx=0;entryDy=0;entryPerimeter=0;" edge="1" parent="1" source="jmPRH8THJJi4gKTDYtl7-174">
          <mxGeometry width="50" height="50" relative="1" as="geometry">
            <mxPoint x="3072" y="115" as="sourcePoint" />
            <mxPoint x="3070" y="-216" as="targetPoint" />
            <Array as="points" />
          </mxGeometry>
        </mxCell>
        <mxCell id="jmPRH8THJJi4gKTDYtl7-170" value="&lt;font style=&quot;font-size: 12px;&quot;&gt;[Транзакция.Статус]&lt;/font&gt;" style="text;html=1;align=center;verticalAlign=middle;whiteSpace=wrap;rounded=1;fontSize=13;labelBackgroundColor=default;fontColor=#B8B8B8;" vertex="1" parent="1">
          <mxGeometry x="3153.5" y="46" width="160" height="30" as="geometry" />
        </mxCell>
        <mxCell id="jmPRH8THJJi4gKTDYtl7-174" value="3" style="ellipse;whiteSpace=wrap;html=1;aspect=fixed;rounded=1;fillColor=#FF77BF;" vertex="1" parent="1">
          <mxGeometry x="3060" y="100" width="23" height="23" as="geometry" />
        </mxCell>
        <mxCell id="cKbgiC5qh_IXnBO1eU4K-124" value="&lt;font style=&quot;font-size: 12px;&quot;&gt;[Транзакция.ID]&lt;/font&gt;" style="text;html=1;align=center;verticalAlign=middle;whiteSpace=wrap;rounded=1;fontSize=13;labelBackgroundColor=default;fontColor=#B8B8B8;" parent="1" vertex="1">
          <mxGeometry x="3021.5" y="-64.99999999999994" width="100" height="30" as="geometry" />
        </mxCell>
        <mxCell id="jmPRH8THJJi4gKTDYtl7-178" value="&lt;span style=&quot;color: rgb(14, 14, 14); font-size: 12px; text-align: start; text-indent: -21px; text-wrap: wrap;&quot;&gt;Подтверждение&amp;nbsp;&lt;/span&gt;&lt;div&gt;&lt;span style=&quot;color: rgb(14, 14, 14); font-size: 12px; text-align: start; text-indent: -21px; text-wrap: wrap;&quot;&gt;платежа&lt;/span&gt;&lt;br&gt;&lt;/div&gt;" style="edgeLabel;html=1;align=center;verticalAlign=middle;resizable=0;points=[];rounded=1;" vertex="1" connectable="0" parent="1">
          <mxGeometry x="3069.99956946988" y="-73.99991711623875" as="geometry">
            <mxPoint x="4" y="-4" as="offset" />
          </mxGeometry>
        </mxCell>
        <mxCell id="jmPRH8THJJi4gKTDYtl7-179" value="" style="endArrow=classic;html=1;rounded=1;curved=0;entryX=0.969;entryY=0.996;entryDx=0;entryDy=0;entryPerimeter=0;" edge="1" parent="1" source="jmPRH8THJJi4gKTDYtl7-180">
          <mxGeometry width="50" height="50" relative="1" as="geometry">
            <mxPoint x="2942" y="115" as="sourcePoint" />
            <mxPoint x="2940" y="-216" as="targetPoint" />
            <Array as="points" />
          </mxGeometry>
        </mxCell>
        <mxCell id="jmPRH8THJJi4gKTDYtl7-180" value="4" style="ellipse;whiteSpace=wrap;html=1;aspect=fixed;rounded=1;fillColor=#FF77BF;" vertex="1" parent="1">
          <mxGeometry x="2930" y="100" width="23" height="23" as="geometry" />
        </mxCell>
        <mxCell id="jmPRH8THJJi4gKTDYtl7-181" value="&lt;div&gt;&lt;span style=&quot;font-size: 12px;&quot;&gt;Запросить&amp;nbsp;&lt;/span&gt;&lt;/div&gt;&lt;div&gt;&lt;span style=&quot;font-size: 12px;&quot;&gt;статус платежа&lt;/span&gt;&lt;br&gt;&lt;/div&gt;" style="edgeLabel;html=1;align=center;verticalAlign=middle;resizable=0;points=[];rounded=1;" vertex="1" connectable="0" parent="1">
          <mxGeometry x="2939.99956946988" y="-7.999917116238748" as="geometry">
            <mxPoint x="4" y="-4" as="offset" />
          </mxGeometry>
        </mxCell>
        <mxCell id="jmPRH8THJJi4gKTDYtl7-182" value="" style="endArrow=classic;html=1;rounded=1;exitX=0.5;exitY=1;exitDx=0;exitDy=0;curved=0;entryX=0.422;entryY=0.039;entryDx=0;entryDy=0;entryPerimeter=0;" edge="1" parent="1" target="JB9Il4g9EO8bp8syB02q-44">
          <mxGeometry width="50" height="50" relative="1" as="geometry">
            <mxPoint x="2864.27" y="-202.0000000000001" as="sourcePoint" />
            <mxPoint x="2864" y="110" as="targetPoint" />
            <Array as="points" />
          </mxGeometry>
        </mxCell>
        <mxCell id="jmPRH8THJJi4gKTDYtl7-183" value="5" style="ellipse;whiteSpace=wrap;html=1;aspect=fixed;rounded=1;fillColor=#FF77BF;" vertex="1" parent="1">
          <mxGeometry x="2853" y="-221" width="23" height="23" as="geometry" />
        </mxCell>
        <mxCell id="jmPRH8THJJi4gKTDYtl7-184" value="&lt;div&gt;&lt;font style=&quot;font-size: 12px;&quot;&gt;Подтверждение&amp;nbsp;&lt;/font&gt;&lt;/div&gt;&lt;div&gt;&lt;font style=&quot;font-size: 12px;&quot;&gt;отмены&amp;nbsp;&lt;/font&gt;&lt;span style=&quot;font-size: 12px;&quot;&gt;платежа&lt;/span&gt;&lt;/div&gt;" style="edgeLabel;html=1;align=center;verticalAlign=middle;resizable=0;points=[];rounded=1;" vertex="1" connectable="0" parent="1">
          <mxGeometry x="2864.49956946988" y="-119.99991711623875" as="geometry">
            <mxPoint x="3" y="-1" as="offset" />
          </mxGeometry>
        </mxCell>
        <mxCell id="jmPRH8THJJi4gKTDYtl7-185" value="&lt;font style=&quot;font-size: 12px;&quot;&gt;[Транзакция.ID]&lt;/font&gt;" style="text;html=1;align=center;verticalAlign=middle;whiteSpace=wrap;rounded=1;fontSize=13;labelBackgroundColor=default;fontColor=#B8B8B8;" vertex="1" parent="1">
          <mxGeometry x="2891.5" y="-1.4999999999999432" width="100" height="30" as="geometry" />
        </mxCell>
        <mxCell id="jmPRH8THJJi4gKTDYtl7-186" value="&lt;font style=&quot;font-size: 12px;&quot;&gt;[Транзакция.Статус]&lt;/font&gt;" style="text;html=1;align=center;verticalAlign=middle;whiteSpace=wrap;rounded=1;fontSize=13;labelBackgroundColor=default;fontColor=#B8B8B8;" vertex="1" parent="1">
          <mxGeometry x="2820" y="-108.99999999999994" width="100" height="30" as="geometry" />
        </mxCell>
        <mxCell id="jmPRH8THJJi4gKTDYtl7-188" value="&lt;h1 style=&quot;margin-top: 0px; font-size: 15px;&quot;&gt;&lt;p class=&quot;p1&quot; style=&quot;margin: 0px 0px 0px 21px; text-indent: -21px; font-variant-numeric: normal; font-variant-east-asian: normal; font-variant-alternates: normal; font-kerning: auto; font-optical-sizing: auto; font-feature-settings: normal; font-variation-settings: normal; font-variant-position: normal; font-stretch: normal; font-size: 15px; line-height: normal; color: rgb(14, 14, 14);&quot;&gt;&lt;font face=&quot;Times New Roman&quot;&gt;&lt;span style=&quot;font-weight: 400;&quot;&gt;6. &lt;/span&gt;Регистрация на площадке&lt;span style=&quot;font-weight: 400;&quot;&gt; - Сервис управления пользователями отправляет запрос с Сервис аутентификации, передавая ID Пользователя,&amp;nbsp;&lt;/span&gt;&lt;/font&gt;&lt;span style=&quot;background-color: initial; font-family: &amp;quot;Times New Roman&amp;quot;; font-weight: 400;&quot;&gt;для аутентификации нового пользователя.&amp;nbsp;&lt;/span&gt;&lt;/p&gt;&lt;p class=&quot;p1&quot; style=&quot;margin: 0px 0px 0px 21px; text-indent: -21px; font-variant-numeric: normal; font-variant-east-asian: normal; font-variant-alternates: normal; font-kerning: auto; font-optical-sizing: auto; font-feature-settings: normal; font-variation-settings: normal; font-variant-position: normal; font-stretch: normal; font-size: 15px; line-height: normal; color: rgb(14, 14, 14);&quot;&gt;&lt;font face=&quot;Times New Roman&quot;&gt;&lt;span style=&quot;font-weight: 400;&quot;&gt;&lt;br&gt;&lt;/span&gt;&lt;/font&gt;&lt;/p&gt;&lt;p class=&quot;p1&quot; style=&quot;margin: 0px 0px 0px 21px; text-indent: -21px; font-variant-numeric: normal; font-variant-east-asian: normal; font-variant-alternates: normal; font-kerning: auto; font-optical-sizing: auto; font-feature-settings: normal; font-variation-settings: normal; font-variant-position: normal; font-stretch: normal; font-size: 15px; line-height: normal; color: rgb(14, 14, 14);&quot;&gt;&lt;font face=&quot;Times New Roman&quot;&gt;&lt;span style=&quot;font-weight: 400;&quot;&gt;7. &lt;/span&gt;Валидировать заявку на техподдержку&lt;span style=&quot;font-weight: 400;&quot;&gt; - Сервис техподдержки отправляет запрос (7.1) в Сервис управления пользователями, передавая ID Пользователя из заявки.&amp;nbsp;&lt;/span&gt;&lt;/font&gt;&lt;span style=&quot;font-family: &amp;quot;Times New Roman&amp;quot;; font-weight: 400; background-color: initial;&quot;&gt;Сервис управления пользователям возвращает информацию по конкретному пользователю (7.2).&lt;/span&gt;&lt;/p&gt;&lt;p class=&quot;p1&quot; style=&quot;margin: 0px 0px 0px 21px; text-indent: -21px; font-variant-numeric: normal; font-variant-east-asian: normal; font-variant-alternates: normal; font-kerning: auto; font-optical-sizing: auto; font-feature-settings: normal; font-variation-settings: normal; font-variant-position: normal; font-stretch: normal; font-size: 15px; line-height: normal; color: rgb(14, 14, 14);&quot;&gt;&lt;font face=&quot;Times New Roman&quot;&gt;&lt;span style=&quot;font-weight: 400;&quot;&gt;&lt;br&gt;&lt;/span&gt;&lt;/font&gt;&lt;/p&gt;&lt;p class=&quot;p1&quot; style=&quot;margin: 0px 0px 0px 21px; text-indent: -21px; font-variant-numeric: normal; font-variant-east-asian: normal; font-variant-alternates: normal; font-kerning: auto; font-optical-sizing: auto; font-feature-settings: normal; font-variation-settings: normal; font-variant-position: normal; font-stretch: normal; font-size: 15px; line-height: normal; color: rgb(14, 14, 14);&quot;&gt;&lt;font face=&quot;Times New Roman&quot;&gt;&lt;span style=&quot;font-weight: 400;&quot;&gt;8. &lt;/span&gt;Редактирование заказа&lt;span style=&quot;font-weight: 400;&quot;&gt; -&amp;nbsp;&lt;/span&gt;&lt;/font&gt;&lt;span style=&quot;background-color: initial; font-family: &amp;quot;Times New Roman&amp;quot;; font-weight: normal;&quot;&gt;Сервис управления заказами отправляет запрос на валидацию&amp;nbsp;&lt;/span&gt;&lt;span style=&quot;background-color: initial; font-family: &amp;quot;Times New Roman&amp;quot;; font-weight: 400;&quot;&gt;токена безопасности в сервис аутентификации (8.1).&amp;nbsp;&lt;/span&gt;&lt;span style=&quot;font-family: &amp;quot;Times New Roman&amp;quot;; font-weight: 400; background-color: initial;&quot;&gt;Сервис управления заказами отправляет запрос на изменение услуги пользователя в&amp;nbsp;&lt;/span&gt;&lt;span style=&quot;background-color: initial; font-family: &amp;quot;Times New Roman&amp;quot;; font-weight: 400;&quot;&gt;Сервис работы с товарами и услугами (8.2).&lt;/span&gt;&lt;/p&gt;&lt;p class=&quot;p1&quot; style=&quot;margin: 0px 0px 0px 21px; text-indent: -21px; font-variant-numeric: normal; font-variant-east-asian: normal; font-variant-alternates: normal; font-kerning: auto; font-optical-sizing: auto; font-feature-settings: normal; font-variation-settings: normal; font-variant-position: normal; font-stretch: normal; font-size: 15px; line-height: normal; color: rgb(14, 14, 14);&quot;&gt;&lt;br&gt;&lt;/p&gt;&lt;/h1&gt;" style="text;html=1;whiteSpace=wrap;overflow=hidden;rounded=0;fontSize=15;" vertex="1" parent="1">
          <mxGeometry x="-921" y="191" width="904" height="189" as="geometry" />
        </mxCell>
        <mxCell id="JB9Il4g9EO8bp8syB02q-8" value="" style="group" parent="1" vertex="1" connectable="0">
          <mxGeometry x="152" y="852" width="912" height="536" as="geometry" />
        </mxCell>
        <mxCell id="jmPRH8THJJi4gKTDYtl7-16" value="&lt;h1 style=&quot;margin-top: 0px;&quot;&gt;&lt;span style=&quot;font-size: 23px; font-weight: 400; text-align: center;&quot;&gt;Сервис управления пользователями&lt;/span&gt;&lt;br&gt;&lt;/h1&gt;&lt;p&gt;Сервис отвечает за работу с пользователями, их регистрацию и последующие изменения пользовательских данных и прав. Так же позволяет получить сводную информацию об активности пользователей.&lt;/p&gt;" style="text;html=1;whiteSpace=wrap;overflow=hidden;rounded=0;labelBackgroundColor=default;" vertex="1" parent="JB9Il4g9EO8bp8syB02q-8">
          <mxGeometry y="404.5" width="690" height="80" as="geometry" />
        </mxCell>
        <mxCell id="jmPRH8THJJi4gKTDYtl7-13" value="" style="group" vertex="1" connectable="0" parent="JB9Il4g9EO8bp8syB02q-8">
          <mxGeometry width="912" height="370" as="geometry" />
        </mxCell>
        <mxCell id="JB9Il4g9EO8bp8syB02q-9" value="" style="rounded=1;whiteSpace=wrap;html=1;arcSize=5;fillColor=#f5f5f5;strokeColor=#FF0000;strokeWidth=3;" parent="jmPRH8THJJi4gKTDYtl7-13" vertex="1">
          <mxGeometry width="912" height="370" as="geometry" />
        </mxCell>
        <mxCell id="JB9Il4g9EO8bp8syB02q-11" value="" style="group" parent="jmPRH8THJJi4gKTDYtl7-13" vertex="1" connectable="0">
          <mxGeometry x="24" y="84.5" width="309" height="39" as="geometry" />
        </mxCell>
        <mxCell id="JB9Il4g9EO8bp8syB02q-12" value="" style="group" parent="JB9Il4g9EO8bp8syB02q-11" vertex="1" connectable="0">
          <mxGeometry width="309" height="39" as="geometry" />
        </mxCell>
        <mxCell id="JB9Il4g9EO8bp8syB02q-13" value="" style="rounded=1;whiteSpace=wrap;html=1;gradientColor=none;fillColor=#1C57CD;strokeColor=none;movable=1;resizable=1;rotatable=1;deletable=1;editable=1;locked=0;connectable=1;" parent="JB9Il4g9EO8bp8syB02q-12" vertex="1">
          <mxGeometry width="309" height="39" as="geometry" />
        </mxCell>
        <mxCell id="JB9Il4g9EO8bp8syB02q-14" value="" style="sketch=0;outlineConnect=0;dashed=0;verticalLabelPosition=bottom;verticalAlign=top;align=center;html=1;fontSize=12;fontStyle=0;aspect=fixed;pointerEvents=1;shape=mxgraph.aws4.gear;rounded=1;strokeColor=none;fillColor=default;" parent="JB9Il4g9EO8bp8syB02q-12" vertex="1">
          <mxGeometry x="280" y="11" width="17" height="17" as="geometry" />
        </mxCell>
        <mxCell id="JB9Il4g9EO8bp8syB02q-15" value="Регистрация пользователя" style="text;html=1;align=center;verticalAlign=middle;whiteSpace=wrap;rounded=1;fontSize=13;fontColor=#FFFFFF;strokeColor=none;movable=1;resizable=1;rotatable=1;deletable=1;editable=1;locked=0;connectable=1;" parent="JB9Il4g9EO8bp8syB02q-12" vertex="1">
          <mxGeometry x="3" y="4.5" width="172" height="30" as="geometry" />
        </mxCell>
        <mxCell id="JB9Il4g9EO8bp8syB02q-18" value="&lt;span style=&quot;font-size: 23px;&quot;&gt;Сервис управления пользователями&lt;/span&gt;" style="text;whiteSpace=wrap;html=1;align=center;" parent="jmPRH8THJJi4gKTDYtl7-13" vertex="1">
          <mxGeometry x="12" y="18.5" width="888" height="50" as="geometry" />
        </mxCell>
        <mxCell id="JB9Il4g9EO8bp8syB02q-27" value="" style="group" parent="jmPRH8THJJi4gKTDYtl7-13" vertex="1" connectable="0">
          <mxGeometry x="24" y="134.5" width="310" height="40" as="geometry" />
        </mxCell>
        <mxCell id="Tz6aEU4ManMyac2rpAqn-45" value="" style="rounded=1;whiteSpace=wrap;html=1;fillColor=#1C57CD;strokeColor=none;" parent="JB9Il4g9EO8bp8syB02q-27" vertex="1">
          <mxGeometry width="310" height="40" as="geometry" />
        </mxCell>
        <mxCell id="Tz6aEU4ManMyac2rpAqn-47" value="Присвоение ролей" style="text;html=1;align=center;verticalAlign=middle;whiteSpace=wrap;rounded=1;fontSize=13;fontColor=#FFFFFF;strokeColor=none;" parent="JB9Il4g9EO8bp8syB02q-27" vertex="1">
          <mxGeometry x="10" y="5" width="120" height="30" as="geometry" />
        </mxCell>
        <mxCell id="JB9Il4g9EO8bp8syB02q-26" value="" style="sketch=0;outlineConnect=0;dashed=0;verticalLabelPosition=bottom;verticalAlign=top;align=center;html=1;fontSize=12;fontStyle=0;aspect=fixed;pointerEvents=1;shape=mxgraph.aws4.gear;rounded=1;strokeColor=none;fillColor=default;" parent="JB9Il4g9EO8bp8syB02q-27" vertex="1">
          <mxGeometry x="283" y="11.5" width="17" height="17" as="geometry" />
        </mxCell>
        <mxCell id="BZBJQn5B5M7l6MrAMs_o-10" value="" style="group" parent="jmPRH8THJJi4gKTDYtl7-13" vertex="1" connectable="0">
          <mxGeometry x="24" y="184.5" width="309" height="39" as="geometry" />
        </mxCell>
        <mxCell id="Tz6aEU4ManMyac2rpAqn-72" value="" style="rounded=1;whiteSpace=wrap;html=1;fillColor=#1C57CD;strokeColor=none;" parent="BZBJQn5B5M7l6MrAMs_o-10" vertex="1">
          <mxGeometry width="309" height="39" as="geometry" />
        </mxCell>
        <mxCell id="Tz6aEU4ManMyac2rpAqn-73" value="" style="sketch=0;outlineConnect=0;fontColor=#232F3E;gradientColor=none;fillColor=default;strokeColor=none;dashed=0;verticalLabelPosition=bottom;verticalAlign=top;align=center;html=1;fontSize=12;fontStyle=0;aspect=fixed;pointerEvents=1;shape=mxgraph.aws4.gear;rounded=1;" parent="BZBJQn5B5M7l6MrAMs_o-10" vertex="1">
          <mxGeometry x="280" y="11" width="17" height="17" as="geometry" />
        </mxCell>
        <mxCell id="Tz6aEU4ManMyac2rpAqn-74" value="Нотификация нового пользователя" style="text;html=1;align=center;verticalAlign=middle;whiteSpace=wrap;rounded=1;fontSize=13;fontColor=#FFFFFF;strokeColor=none;" parent="BZBJQn5B5M7l6MrAMs_o-10" vertex="1">
          <mxGeometry x="3" y="4.5" width="227" height="30" as="geometry" />
        </mxCell>
        <mxCell id="JB9Il4g9EO8bp8syB02q-88" value="" style="strokeWidth=2;html=1;shape=mxgraph.flowchart.database;whiteSpace=wrap;rounded=1;movable=1;resizable=1;rotatable=1;deletable=1;editable=1;locked=0;connectable=1;" parent="jmPRH8THJJi4gKTDYtl7-13" vertex="1">
          <mxGeometry x="400" y="86" width="464" height="264" as="geometry" />
        </mxCell>
        <mxCell id="cKbgiC5qh_IXnBO1eU4K-56" value="&lt;p style=&quot;margin: 0px 0px 0px 13px; text-indent: -13px; font-variant-numeric: normal; font-variant-east-asian: normal; font-variant-alternates: normal; font-kerning: auto; font-optical-sizing: auto; font-feature-settings: normal; font-variation-settings: normal; font-variant-position: normal; font-stretch: normal; font-size: 14px; line-height: normal; color: rgb(14, 14, 14); text-align: start;&quot; class=&quot;p1&quot;&gt;&lt;font face=&quot;Times New Roman&quot;&gt;Пользователь.Имя&lt;/font&gt;&lt;/p&gt;" style="rounded=1;whiteSpace=wrap;html=1;fillColor=#b1ddf0;strokeColor=#10739e;" parent="jmPRH8THJJi4gKTDYtl7-13" vertex="1">
          <mxGeometry x="684" y="204.5" width="119" height="21" as="geometry" />
        </mxCell>
        <mxCell id="cKbgiC5qh_IXnBO1eU4K-68" value="&lt;p style=&quot;margin: 0px 0px 0px 13px; text-indent: -13px; font-variant-numeric: normal; font-variant-east-asian: normal; font-variant-alternates: normal; font-kerning: auto; font-optical-sizing: auto; font-feature-settings: normal; font-variation-settings: normal; font-variant-position: normal; font-stretch: normal; font-size: 14px; line-height: normal; color: rgb(14, 14, 14); text-align: start;&quot; class=&quot;p1&quot;&gt;&lt;font face=&quot;Times New Roman&quot;&gt;Пользователь.Дата регистрации&lt;/font&gt;&lt;/p&gt;" style="rounded=1;whiteSpace=wrap;html=1;fillColor=#b1ddf0;strokeColor=#10739e;" parent="jmPRH8THJJi4gKTDYtl7-13" vertex="1">
          <mxGeometry x="434" y="204.5" width="199" height="21" as="geometry" />
        </mxCell>
        <mxCell id="cKbgiC5qh_IXnBO1eU4K-69" value="&lt;p style=&quot;margin: 0px 0px 0px 13px; text-indent: -13px; font-variant-numeric: normal; font-variant-east-asian: normal; font-variant-alternates: normal; font-kerning: auto; font-optical-sizing: auto; font-feature-settings: normal; font-variation-settings: normal; font-variant-position: normal; font-stretch: normal; font-size: 14px; line-height: normal; color: rgb(14, 14, 14); text-align: start;&quot; class=&quot;p1&quot;&gt;&lt;font face=&quot;Times New Roman&quot;&gt;Пользователь.Статус&lt;/font&gt;&lt;/p&gt;" style="rounded=1;whiteSpace=wrap;html=1;fillColor=#b1ddf0;strokeColor=#10739e;" parent="jmPRH8THJJi4gKTDYtl7-13" vertex="1">
          <mxGeometry x="434" y="234.5" width="136" height="21" as="geometry" />
        </mxCell>
        <mxCell id="cKbgiC5qh_IXnBO1eU4K-71" value="&lt;p style=&quot;margin: 0px 0px 0px 13px; text-indent: -13px; font-variant-numeric: normal; font-variant-east-asian: normal; font-variant-alternates: normal; font-kerning: auto; font-optical-sizing: auto; font-feature-settings: normal; font-variation-settings: normal; font-variant-position: normal; font-stretch: normal; font-size: 14px; line-height: normal; color: rgb(14, 14, 14); text-align: start;&quot; class=&quot;p1&quot;&gt;&lt;font face=&quot;Times New Roman&quot;&gt;Пользователь.Номер телефона&lt;/font&gt;&lt;/p&gt;" style="rounded=1;whiteSpace=wrap;html=1;fillColor=#b1ddf0;strokeColor=#10739e;" parent="jmPRH8THJJi4gKTDYtl7-13" vertex="1">
          <mxGeometry x="594" y="234.5" width="190" height="21" as="geometry" />
        </mxCell>
        <mxCell id="cKbgiC5qh_IXnBO1eU4K-57" value="&lt;p style=&quot;margin: 0px 0px 0px 13px; text-indent: -13px; font-variant-numeric: normal; font-variant-east-asian: normal; font-variant-alternates: normal; font-kerning: auto; font-optical-sizing: auto; font-feature-settings: normal; font-variation-settings: normal; font-variant-position: normal; font-stretch: normal; font-size: 14px; line-height: normal; color: rgb(14, 14, 14); text-align: start;&quot; class=&quot;p1&quot;&gt;&lt;font face=&quot;Times New Roman&quot;&gt;Пользователь.Фамилия&lt;/font&gt;&lt;/p&gt;" style="rounded=1;whiteSpace=wrap;html=1;fillColor=#b1ddf0;strokeColor=#10739e;" parent="jmPRH8THJJi4gKTDYtl7-13" vertex="1">
          <mxGeometry x="434" y="264.5" width="151" height="21" as="geometry" />
        </mxCell>
        <mxCell id="cKbgiC5qh_IXnBO1eU4K-60" value="&lt;p style=&quot;margin: 0px 0px 0px 13px; text-indent: -13px; font-variant-numeric: normal; font-variant-east-asian: normal; font-variant-alternates: normal; font-kerning: auto; font-optical-sizing: auto; font-feature-settings: normal; font-variation-settings: normal; font-variant-position: normal; font-stretch: normal; font-size: 14px; line-height: normal; color: rgb(14, 14, 14); text-align: start;&quot; class=&quot;p1&quot;&gt;&lt;font face=&quot;Times New Roman&quot;&gt;Пользователь.Адрес&lt;/font&gt;&lt;/p&gt;" style="rounded=1;whiteSpace=wrap;html=1;fillColor=#b1ddf0;strokeColor=#10739e;" parent="jmPRH8THJJi4gKTDYtl7-13" vertex="1">
          <mxGeometry x="434" y="294.5" width="130" height="21" as="geometry" />
        </mxCell>
        <mxCell id="cKbgiC5qh_IXnBO1eU4K-70" value="&lt;p style=&quot;margin: 0px 0px 0px 13px; text-indent: -13px; font-variant-numeric: normal; font-variant-east-asian: normal; font-variant-alternates: normal; font-kerning: auto; font-optical-sizing: auto; font-feature-settings: normal; font-variation-settings: normal; font-variant-position: normal; font-stretch: normal; font-size: 14px; line-height: normal; color: rgb(14, 14, 14); text-align: start;&quot; class=&quot;p1&quot;&gt;&lt;font face=&quot;Times New Roman&quot;&gt;Пользователь.Электронная почта&lt;/font&gt;&lt;/p&gt;" style="rounded=1;whiteSpace=wrap;html=1;fillColor=#b1ddf0;strokeColor=#10739e;" parent="jmPRH8THJJi4gKTDYtl7-13" vertex="1">
          <mxGeometry x="594" y="264.5" width="209" height="21" as="geometry" />
        </mxCell>
        <mxCell id="cKbgiC5qh_IXnBO1eU4K-49" value="&lt;p style=&quot;margin: 0px 0px 0px 13px; text-indent: -13px; font-variant-numeric: normal; font-variant-east-asian: normal; font-variant-alternates: normal; font-kerning: auto; font-optical-sizing: auto; font-feature-settings: normal; font-variation-settings: normal; font-variant-position: normal; font-stretch: normal; font-size: 14px; line-height: normal; color: rgb(14, 14, 14); text-align: start;&quot; class=&quot;p1&quot;&gt;&lt;font face=&quot;Times New Roman&quot;&gt;Пользователь.Роль&lt;/font&gt;&lt;/p&gt;" style="rounded=1;whiteSpace=wrap;html=1;fillColor=#b1ddf0;strokeColor=#10739e;" parent="jmPRH8THJJi4gKTDYtl7-13" vertex="1">
          <mxGeometry x="594" y="294.5" width="151" height="21" as="geometry" />
        </mxCell>
        <mxCell id="jmPRH8THJJi4gKTDYtl7-12" value="" style="group" vertex="1" connectable="0" parent="jmPRH8THJJi4gKTDYtl7-13">
          <mxGeometry x="563.9994949494946" y="114.50205081669685" width="110.5808080808081" height="27.745916515426497" as="geometry" />
        </mxCell>
        <mxCell id="JB9Il4g9EO8bp8syB02q-90" value="&lt;p style=&quot;margin: 0px 0px 0px 13px; text-indent: -13px; font-variant-numeric: normal; font-variant-east-asian: normal; font-variant-alternates: normal; font-kerning: auto; font-optical-sizing: auto; font-feature-settings: normal; font-variation-settings: normal; font-variant-position: normal; font-stretch: normal; font-size: 14px; line-height: normal; color: rgb(14, 14, 14); text-align: start;&quot; class=&quot;p1&quot;&gt;&lt;br&gt;&lt;/p&gt;" style="rounded=1;whiteSpace=wrap;html=1;fillColor=#FF77BF;strokeColor=none;arcSize=50;" parent="jmPRH8THJJi4gKTDYtl7-12" vertex="1">
          <mxGeometry y="5.096188747731397" width="110.5808080808081" height="18.686025408348456" as="geometry" />
        </mxCell>
        <mxCell id="JB9Il4g9EO8bp8syB02q-91" value="&lt;font style=&quot;font-size: 18px;&quot;&gt;&lt;i&gt;PostgreSQL&lt;/i&gt;&lt;/font&gt;" style="text;html=1;align=center;verticalAlign=middle;whiteSpace=wrap;rounded=1;shadow=0;fontSize=23;fontStyle=1" parent="jmPRH8THJJi4gKTDYtl7-12" vertex="1">
          <mxGeometry x="22.702020202020204" width="65.17676767676768" height="27.745916515426497" as="geometry" />
        </mxCell>
        <mxCell id="cKbgiC5qh_IXnBO1eU4K-16" value="" style="rounded=1;whiteSpace=wrap;html=1;fillColor=#1C57CD;strokeColor=none;container=0;" parent="jmPRH8THJJi4gKTDYtl7-13" vertex="1">
          <mxGeometry x="25" y="234.5" width="309" height="39" as="geometry" />
        </mxCell>
        <mxCell id="cKbgiC5qh_IXnBO1eU4K-18" value="Сгенерировать отчёт активности пользователей" style="text;html=1;align=left;verticalAlign=middle;whiteSpace=wrap;rounded=1;fontSize=13;fontColor=#FFFFFF;strokeColor=none;container=0;" parent="jmPRH8THJJi4gKTDYtl7-13" vertex="1">
          <mxGeometry x="25" y="239" width="215" height="30" as="geometry" />
        </mxCell>
        <mxCell id="JB9Il4g9EO8bp8syB02q-206" value="" style="sketch=0;outlineConnect=0;fontColor=#232F3E;gradientColor=none;fillColor=#FFFFFF;strokeColor=none;dashed=0;verticalLabelPosition=bottom;verticalAlign=top;align=center;html=1;fontSize=12;fontStyle=0;aspect=fixed;pointerEvents=1;shape=mxgraph.aws4.gear;rounded=1;container=0;" parent="jmPRH8THJJi4gKTDYtl7-13" vertex="1">
          <mxGeometry x="308" y="245.5" width="17" height="17" as="geometry" />
        </mxCell>
        <mxCell id="jmPRH8THJJi4gKTDYtl7-22" value="" style="edgeStyle=orthogonalEdgeStyle;rounded=0;orthogonalLoop=1;jettySize=auto;html=1;strokeColor=#FF0000;entryX=0.855;entryY=1.008;entryDx=0;entryDy=0;entryPerimeter=0;" edge="1" parent="jmPRH8THJJi4gKTDYtl7-13" source="JB9Il4g9EO8bp8syB02q-9" target="JB9Il4g9EO8bp8syB02q-3">
          <mxGeometry relative="1" as="geometry">
            <mxPoint x="481" y="60" as="sourcePoint" />
            <mxPoint x="558" y="-232" as="targetPoint" />
            <Array as="points">
              <mxPoint x="558" y="-42" />
              <mxPoint x="558" y="-42" />
            </Array>
          </mxGeometry>
        </mxCell>
        <mxCell id="jmPRH8THJJi4gKTDYtl7-11" value="" style="group;verticalAlign=middle;spacingTop=5;spacing=4;" vertex="1" connectable="0" parent="jmPRH8THJJi4gKTDYtl7-13">
          <mxGeometry x="-32" y="-462" width="914" height="474" as="geometry" />
        </mxCell>
        <mxCell id="JB9Il4g9EO8bp8syB02q-5" value="с" style="group" parent="jmPRH8THJJi4gKTDYtl7-11" vertex="1" connectable="0">
          <mxGeometry width="914" height="474" as="geometry" />
        </mxCell>
        <mxCell id="jmPRH8THJJi4gKTDYtl7-9" value="" style="group" vertex="1" connectable="0" parent="JB9Il4g9EO8bp8syB02q-5">
          <mxGeometry width="690" height="394" as="geometry" />
        </mxCell>
        <mxCell id="JB9Il4g9EO8bp8syB02q-3" value="" style="rounded=1;whiteSpace=wrap;html=1;arcSize=5;fillColor=#f5f5f5;strokeColor=#FF0000;strokeWidth=3;" parent="jmPRH8THJJi4gKTDYtl7-9" vertex="1">
          <mxGeometry width="690" height="250" as="geometry" />
        </mxCell>
        <mxCell id="JB9Il4g9EO8bp8syB02q-4" value="&lt;font style=&quot;font-size: 23px;&quot;&gt;Сервис аутентификации&lt;/font&gt;" style="text;html=1;align=center;verticalAlign=middle;whiteSpace=wrap;rounded=1;fontSize=13;" parent="jmPRH8THJJi4gKTDYtl7-9" vertex="1">
          <mxGeometry x="1.38" width="687.24" height="86.43" as="geometry" />
        </mxCell>
        <mxCell id="BZBJQn5B5M7l6MrAMs_o-8" value="" style="group" parent="jmPRH8THJJi4gKTDYtl7-9" vertex="1" connectable="0">
          <mxGeometry x="34" y="82" width="309" height="39" as="geometry" />
        </mxCell>
        <mxCell id="Tz6aEU4ManMyac2rpAqn-42" value="" style="rounded=1;whiteSpace=wrap;html=1;fillColor=#1C57CD;strokeColor=none;" parent="BZBJQn5B5M7l6MrAMs_o-8" vertex="1">
          <mxGeometry width="309" height="39" as="geometry" />
        </mxCell>
        <mxCell id="Tz6aEU4ManMyac2rpAqn-43" value="" style="sketch=0;outlineConnect=0;fontColor=#232F3E;gradientColor=none;fillColor=default;strokeColor=none;dashed=0;verticalLabelPosition=bottom;verticalAlign=top;align=center;html=1;fontSize=12;fontStyle=0;aspect=fixed;pointerEvents=1;shape=mxgraph.aws4.gear;rounded=1;" parent="BZBJQn5B5M7l6MrAMs_o-8" vertex="1">
          <mxGeometry x="280" y="11" width="17" height="17" as="geometry" />
        </mxCell>
        <mxCell id="Tz6aEU4ManMyac2rpAqn-44" value="Аутентификация" style="text;html=1;align=center;verticalAlign=middle;whiteSpace=wrap;rounded=1;fontSize=13;fontColor=#FFFFFF;strokeColor=none;" parent="BZBJQn5B5M7l6MrAMs_o-8" vertex="1">
          <mxGeometry x="2" y="4.5" width="114" height="30" as="geometry" />
        </mxCell>
        <mxCell id="BZBJQn5B5M7l6MrAMs_o-11" value="" style="group" parent="jmPRH8THJJi4gKTDYtl7-9" vertex="1" connectable="0">
          <mxGeometry x="34" y="128" width="309" height="39" as="geometry" />
        </mxCell>
        <mxCell id="Tz6aEU4ManMyac2rpAqn-48" value="" style="rounded=1;whiteSpace=wrap;html=1;fillColor=#1C57CD;strokeColor=none;" parent="BZBJQn5B5M7l6MrAMs_o-11" vertex="1">
          <mxGeometry width="309" height="39" as="geometry" />
        </mxCell>
        <mxCell id="Tz6aEU4ManMyac2rpAqn-49" value="" style="sketch=0;outlineConnect=0;fontColor=#232F3E;gradientColor=none;fillColor=default;strokeColor=none;dashed=0;verticalLabelPosition=bottom;verticalAlign=top;align=center;html=1;fontSize=12;fontStyle=0;aspect=fixed;pointerEvents=1;shape=mxgraph.aws4.gear;rounded=1;" parent="BZBJQn5B5M7l6MrAMs_o-11" vertex="1">
          <mxGeometry x="280" y="11" width="17" height="17" as="geometry" />
        </mxCell>
        <mxCell id="Tz6aEU4ManMyac2rpAqn-50" value="Валидация токена безопасности" style="text;html=1;align=center;verticalAlign=middle;whiteSpace=wrap;rounded=1;fontSize=13;fontColor=#FFFFFF;strokeColor=none;" parent="BZBJQn5B5M7l6MrAMs_o-11" vertex="1">
          <mxGeometry x="3" y="4.5" width="209" height="30" as="geometry" />
        </mxCell>
        <mxCell id="JB9Il4g9EO8bp8syB02q-23" value="" style="group" parent="jmPRH8THJJi4gKTDYtl7-9" vertex="1" connectable="0">
          <mxGeometry x="390" y="82" width="290" height="312" as="geometry" />
        </mxCell>
        <mxCell id="JB9Il4g9EO8bp8syB02q-19" value="" style="strokeWidth=2;html=1;shape=mxgraph.flowchart.database;whiteSpace=wrap;rounded=1;movable=1;resizable=1;rotatable=1;deletable=1;editable=1;locked=0;connectable=1;" parent="JB9Il4g9EO8bp8syB02q-23" vertex="1">
          <mxGeometry width="290" height="150" as="geometry" />
        </mxCell>
        <mxCell id="cKbgiC5qh_IXnBO1eU4K-46" value="&lt;p style=&quot;margin: 0px 0px 0px 13px; text-indent: -13px; font-variant-numeric: normal; font-variant-east-asian: normal; font-variant-alternates: normal; font-kerning: auto; font-optical-sizing: auto; font-feature-settings: normal; font-variation-settings: normal; font-variant-position: normal; font-stretch: normal; line-height: normal; color: rgb(14, 14, 14); text-align: start;&quot; class=&quot;p1&quot;&gt;&lt;font face=&quot;Times New Roman&quot;&gt;&lt;span style=&quot;font-size: 14px;&quot;&gt;JWT&lt;/span&gt;&lt;/font&gt;&lt;/p&gt;" style="rounded=1;whiteSpace=wrap;html=1;fillColor=#b1ddf0;strokeColor=#10739e;" parent="JB9Il4g9EO8bp8syB02q-23" vertex="1">
          <mxGeometry x="40.709999999999994" y="73.5" width="49" height="21" as="geometry" />
        </mxCell>
        <mxCell id="cKbgiC5qh_IXnBO1eU4K-77" value="&lt;p style=&quot;margin: 0px 0px 0px 13px; text-indent: -13px; font-variant-numeric: normal; font-variant-east-asian: normal; font-variant-alternates: normal; font-kerning: auto; font-optical-sizing: auto; font-feature-settings: normal; font-variation-settings: normal; font-variant-position: normal; font-stretch: normal; font-size: 14px; line-height: normal; color: rgb(14, 14, 14); text-align: start;&quot; class=&quot;p1&quot;&gt;&lt;font face=&quot;Times New Roman&quot;&gt;Пользователь.Активен&lt;/font&gt;&lt;/p&gt;" style="rounded=1;whiteSpace=wrap;html=1;fillColor=#b1ddf0;strokeColor=#10739e;" parent="JB9Il4g9EO8bp8syB02q-23" vertex="1">
          <mxGeometry x="126" y="73.5" width="147" height="21" as="geometry" />
        </mxCell>
        <mxCell id="cKbgiC5qh_IXnBO1eU4K-50" value="&lt;p style=&quot;margin: 0px 0px 0px 13px; text-indent: -13px; font-variant-numeric: normal; font-variant-east-asian: normal; font-variant-alternates: normal; font-kerning: auto; font-optical-sizing: auto; font-feature-settings: normal; font-variation-settings: normal; font-variant-position: normal; font-stretch: normal; font-size: 14px; line-height: normal; color: rgb(14, 14, 14); text-align: start;&quot; class=&quot;p1&quot;&gt;&lt;font face=&quot;Times New Roman&quot;&gt;Пользователь.ID&lt;/font&gt;&lt;/p&gt;" style="rounded=1;whiteSpace=wrap;html=1;fillColor=#b1ddf0;strokeColor=#10739e;" parent="JB9Il4g9EO8bp8syB02q-23" vertex="1">
          <mxGeometry x="69.5" y="108" width="151" height="21" as="geometry" />
        </mxCell>
        <mxCell id="jmPRH8THJJi4gKTDYtl7-4" value="" style="group" vertex="1" connectable="0" parent="JB9Il4g9EO8bp8syB02q-23">
          <mxGeometry x="85.99949494949492" y="8.002050816696851" width="110.58080808080831" height="27.74591651542653" as="geometry" />
        </mxCell>
        <mxCell id="JB9Il4g9EO8bp8syB02q-21" value="&lt;p style=&quot;margin: 0px 0px 0px 13px; text-indent: -13px; font-variant-numeric: normal; font-variant-east-asian: normal; font-variant-alternates: normal; font-kerning: auto; font-optical-sizing: auto; font-feature-settings: normal; font-variation-settings: normal; font-variant-position: normal; font-stretch: normal; font-size: 14px; line-height: normal; color: rgb(14, 14, 14); text-align: start;&quot; class=&quot;p1&quot;&gt;&lt;br&gt;&lt;/p&gt;" style="rounded=1;whiteSpace=wrap;html=1;fillColor=#FF77BF;strokeColor=none;arcSize=50;" parent="jmPRH8THJJi4gKTDYtl7-4" vertex="1">
          <mxGeometry y="6.24618874773148" width="110.5808080808081" height="18.686025408348456" as="geometry" />
        </mxCell>
        <mxCell id="JB9Il4g9EO8bp8syB02q-22" value="&lt;font style=&quot;font-size: 18px;&quot;&gt;&lt;i&gt;PostgreSQL&lt;/i&gt;&lt;/font&gt;" style="text;html=1;align=center;verticalAlign=middle;whiteSpace=wrap;rounded=1;shadow=0;fontSize=23;fontStyle=1" parent="jmPRH8THJJi4gKTDYtl7-4" vertex="1">
          <mxGeometry x="22.70202020202032" width="65.17676767676768" height="27.745916515426497" as="geometry" />
        </mxCell>
        <mxCell id="jmPRH8THJJi4gKTDYtl7-189" value="6" style="ellipse;whiteSpace=wrap;html=1;aspect=fixed;rounded=1;fillColor=#FF77BF;" vertex="1" parent="JB9Il4g9EO8bp8syB02q-5">
          <mxGeometry x="578" y="451" width="23" height="23" as="geometry" />
        </mxCell>
        <mxCell id="jmPRH8THJJi4gKTDYtl7-8" value="&lt;h1 style=&quot;margin-top: 0px;&quot;&gt;&lt;span style=&quot;font-size: 23px; font-weight: 400; text-align: center;&quot;&gt;Сервис аутентификации&lt;/span&gt;&lt;br&gt;&lt;/h1&gt;&lt;p&gt;Сервис аутентификации и авторизации пользователя в системе.&lt;/p&gt;" style="text;html=1;whiteSpace=wrap;overflow=hidden;rounded=0;labelBackgroundColor=default;" vertex="1" parent="jmPRH8THJJi4gKTDYtl7-11">
          <mxGeometry y="270" width="410" height="80" as="geometry" />
        </mxCell>
        <mxCell id="jmPRH8THJJi4gKTDYtl7-255" value="7.2" style="ellipse;whiteSpace=wrap;html=1;aspect=fixed;rounded=1;fillColor=#FF77BF;" vertex="1" parent="jmPRH8THJJi4gKTDYtl7-13">
          <mxGeometry x="745" y="-11" width="23" height="23" as="geometry" />
        </mxCell>
        <mxCell id="jmPRH8THJJi4gKTDYtl7-23" value="&lt;span style=&quot;font-size: 12px;&quot;&gt;Аутентификация&lt;/span&gt;" style="edgeLabel;html=1;align=center;verticalAlign=middle;resizable=0;points=[];rounded=1;" vertex="1" connectable="0" parent="1">
          <mxGeometry x="710.0033333333334" y="670" as="geometry" />
        </mxCell>
        <mxCell id="cKbgiC5qh_IXnBO1eU4K-96" value="" style="endArrow=classic;html=1;rounded=1;dashed=1;entryX=0.878;entryY=0.024;entryDx=0;entryDy=0;entryPerimeter=0;" parent="1" target="JB9Il4g9EO8bp8syB02q-172" edge="1">
          <mxGeometry width="50" height="50" relative="1" as="geometry">
            <mxPoint x="636" y="-260" as="sourcePoint" />
            <mxPoint x="1197.537924151697" y="-143.5" as="targetPoint" />
            <Array as="points" />
          </mxGeometry>
        </mxCell>
        <mxCell id="jmPRH8THJJi4gKTDYtl7-252" value="" style="group;labelBackgroundColor=default;" vertex="1" connectable="0" parent="1">
          <mxGeometry x="930" y="744" width="160" height="40" as="geometry" />
        </mxCell>
        <mxCell id="jmPRH8THJJi4gKTDYtl7-253" value="&lt;font style=&quot;font-size: 12px;&quot;&gt;[Пользователь.Статус]&lt;/font&gt;" style="text;html=1;align=center;verticalAlign=middle;whiteSpace=wrap;rounded=1;fontSize=13;labelBackgroundColor=default;fontColor=#B8B8B8;" vertex="1" parent="jmPRH8THJJi4gKTDYtl7-252">
          <mxGeometry y="10" width="160" height="30" as="geometry" />
        </mxCell>
        <mxCell id="jmPRH8THJJi4gKTDYtl7-256" value="" style="edgeStyle=orthogonalEdgeStyle;rounded=0;orthogonalLoop=1;jettySize=auto;html=1;strokeColor=#FF0000;exitX=0.863;exitY=1.021;exitDx=0;exitDy=0;exitPerimeter=0;entryX=1;entryY=0.564;entryDx=0;entryDy=0;entryPerimeter=0;" edge="1" parent="1" source="JB9Il4g9EO8bp8syB02q-70" target="JB9Il4g9EO8bp8syB02q-9">
          <mxGeometry relative="1" as="geometry">
            <mxPoint x="1460" y="1042" as="sourcePoint" />
            <mxPoint x="1070" y="1050" as="targetPoint" />
            <Array as="points">
              <mxPoint x="1683" y="1060" />
              <mxPoint x="1070" y="1060" />
            </Array>
          </mxGeometry>
        </mxCell>
        <mxCell id="jmPRH8THJJi4gKTDYtl7-260" value="" style="group;labelBackgroundColor=default;" vertex="1" connectable="0" parent="1">
          <mxGeometry x="904" y="801" width="160" height="40" as="geometry" />
        </mxCell>
        <mxCell id="jmPRH8THJJi4gKTDYtl7-261" value="&lt;font style=&quot;font-size: 12px;&quot;&gt;[Пользователь.Имя]&lt;/font&gt;" style="text;html=1;align=center;verticalAlign=middle;whiteSpace=wrap;rounded=1;fontSize=13;labelBackgroundColor=default;fontColor=#B8B8B8;" vertex="1" parent="jmPRH8THJJi4gKTDYtl7-260">
          <mxGeometry y="10" width="160" height="30" as="geometry" />
        </mxCell>
        <mxCell id="jmPRH8THJJi4gKTDYtl7-266" value="" style="group;labelBackgroundColor=default;" vertex="1" connectable="0" parent="1">
          <mxGeometry x="1070" y="812" width="188" height="40" as="geometry" />
        </mxCell>
        <mxCell id="jmPRH8THJJi4gKTDYtl7-267" value="&lt;font style=&quot;font-size: 12px;&quot;&gt;[Пользователь.Электронная почта]&lt;/font&gt;" style="text;html=1;align=center;verticalAlign=middle;whiteSpace=wrap;rounded=1;fontSize=13;labelBackgroundColor=default;fontColor=#B8B8B8;" vertex="1" parent="jmPRH8THJJi4gKTDYtl7-266">
          <mxGeometry y="10" width="160" height="30" as="geometry" />
        </mxCell>
        <mxCell id="jmPRH8THJJi4gKTDYtl7-262" value="" style="group;labelBackgroundColor=default;" vertex="1" connectable="0" parent="jmPRH8THJJi4gKTDYtl7-266">
          <mxGeometry x="28" y="-32.5" width="160" height="40" as="geometry" />
        </mxCell>
        <mxCell id="jmPRH8THJJi4gKTDYtl7-263" value="&lt;font style=&quot;font-size: 12px;&quot;&gt;[Пользователь.Фамилия]&lt;/font&gt;" style="text;html=1;align=center;verticalAlign=middle;whiteSpace=wrap;rounded=1;fontSize=13;labelBackgroundColor=default;fontColor=#B8B8B8;" vertex="1" parent="jmPRH8THJJi4gKTDYtl7-262">
          <mxGeometry y="10" width="160" height="30" as="geometry" />
        </mxCell>
        <mxCell id="jmPRH8THJJi4gKTDYtl7-265" value="&lt;font style=&quot;font-size: 12px;&quot;&gt;[Пользователь.Номер телефона]&lt;/font&gt;" style="text;html=1;align=center;verticalAlign=middle;whiteSpace=wrap;rounded=1;fontSize=13;labelBackgroundColor=default;fontColor=#B8B8B8;" vertex="1" parent="1">
          <mxGeometry x="930" y="784" width="160" height="30" as="geometry" />
        </mxCell>
        <mxCell id="jmPRH8THJJi4gKTDYtl7-250" value="7.1" style="ellipse;whiteSpace=wrap;html=1;aspect=fixed;rounded=1;fillColor=#FF77BF;" vertex="1" parent="1">
          <mxGeometry x="1671" y="620" width="23" height="23" as="geometry" />
        </mxCell>
        <mxCell id="jmPRH8THJJi4gKTDYtl7-270" value="" style="edgeStyle=orthogonalEdgeStyle;rounded=0;orthogonalLoop=1;jettySize=auto;html=1;strokeColor=#FF0000;entryX=0.5;entryY=0;entryDx=0;entryDy=0;" edge="1" parent="1" target="JB9Il4g9EO8bp8syB02q-4">
          <mxGeometry relative="1" as="geometry">
            <mxPoint x="2310" y="750" as="sourcePoint" />
            <mxPoint x="2310" y="554" as="targetPoint" />
            <Array as="points">
              <mxPoint x="2310" y="240" />
              <mxPoint x="465" y="240" />
            </Array>
          </mxGeometry>
        </mxCell>
        <mxCell id="jmPRH8THJJi4gKTDYtl7-25" value="" style="group;labelBackgroundColor=default;" vertex="1" connectable="0" parent="1">
          <mxGeometry x="631.5" y="670" width="160" height="40" as="geometry" />
        </mxCell>
        <mxCell id="jmPRH8THJJi4gKTDYtl7-24" value="&lt;font style=&quot;font-size: 12px;&quot;&gt;[Пользователь.ID]&lt;/font&gt;" style="text;html=1;align=center;verticalAlign=middle;whiteSpace=wrap;rounded=1;fontSize=13;labelBackgroundColor=default;fontColor=#B8B8B8;" vertex="1" parent="jmPRH8THJJi4gKTDYtl7-25">
          <mxGeometry y="10" width="160" height="30" as="geometry" />
        </mxCell>
        <mxCell id="jmPRH8THJJi4gKTDYtl7-272" value="&lt;span style=&quot;font-size: 12px;&quot;&gt;Валидация токена безопасности&lt;/span&gt;" style="edgeLabel;html=1;align=center;verticalAlign=middle;resizable=0;points=[];rounded=1;" vertex="1" connectable="0" parent="1">
          <mxGeometry x="2310.0033333333336" y="600" as="geometry">
            <mxPoint x="-1" y="-3" as="offset" />
          </mxGeometry>
        </mxCell>
        <mxCell id="jmPRH8THJJi4gKTDYtl7-273" value="" style="group;labelBackgroundColor=default;" vertex="1" connectable="0" parent="1">
          <mxGeometry x="2230" y="596" width="160" height="40" as="geometry" />
        </mxCell>
        <mxCell id="jmPRH8THJJi4gKTDYtl7-274" value="&lt;font style=&quot;font-size: 12px;&quot;&gt;[Пользователь.ID]&lt;/font&gt;" style="text;html=1;align=center;verticalAlign=middle;whiteSpace=wrap;rounded=1;fontSize=13;labelBackgroundColor=default;fontColor=#B8B8B8;" vertex="1" parent="jmPRH8THJJi4gKTDYtl7-273">
          <mxGeometry y="10" width="160" height="30" as="geometry" />
        </mxCell>
        <mxCell id="jmPRH8THJJi4gKTDYtl7-277" value="" style="edgeStyle=orthogonalEdgeStyle;rounded=0;orthogonalLoop=1;jettySize=auto;html=1;strokeColor=#FF0000;entryX=0;entryY=0.75;entryDx=0;entryDy=0;" edge="1" parent="1" source="jmPRH8THJJi4gKTDYtl7-278" target="JB9Il4g9EO8bp8syB02q-41">
          <mxGeometry relative="1" as="geometry">
            <mxPoint x="2136.67" y="1340" as="sourcePoint" />
            <mxPoint x="2136.67" y="1130" as="targetPoint" />
            <Array as="points">
              <mxPoint x="2137" y="904" />
              <mxPoint x="2137" y="1458" />
            </Array>
          </mxGeometry>
        </mxCell>
        <mxCell id="jmPRH8THJJi4gKTDYtl7-279" value="&lt;span style=&quot;font-size: 12px;&quot;&gt;Изменение услуги пользователя&lt;/span&gt;" style="edgeLabel;html=1;align=center;verticalAlign=middle;resizable=0;points=[];rounded=1;" vertex="1" connectable="0" parent="1">
          <mxGeometry x="2130.0033333333336" y="1250" as="geometry" />
        </mxCell>
        <mxCell id="jmPRH8THJJi4gKTDYtl7-280" value="" style="group;labelBackgroundColor=default;" vertex="1" connectable="0" parent="1">
          <mxGeometry x="2059" y="1256.5" width="160" height="40" as="geometry" />
        </mxCell>
        <mxCell id="jmPRH8THJJi4gKTDYtl7-281" value="&lt;font style=&quot;font-size: 12px;&quot;&gt;[Заказ.ID услуги]&lt;/font&gt;" style="text;html=1;align=center;verticalAlign=middle;whiteSpace=wrap;rounded=1;fontSize=13;labelBackgroundColor=default;fontColor=#B8B8B8;" vertex="1" parent="jmPRH8THJJi4gKTDYtl7-280">
          <mxGeometry y="10" width="160" height="30" as="geometry" />
        </mxCell>
        <mxCell id="jmPRH8THJJi4gKTDYtl7-278" value="8.2" style="ellipse;whiteSpace=wrap;html=1;aspect=fixed;rounded=1;fillColor=#FF77BF;" vertex="1" parent="1">
          <mxGeometry x="2219" y="893" width="23" height="23" as="geometry" />
        </mxCell>
      </root>
    </mxGraphModel>
  </diagram>
</mxfile>
